M48
;DRILL file {kicad (2014-jul-16 BZR unknown)-product} date Tue 13 Jan 2015 03:42:55 PM PST
;FORMAT={2:4/ absolute / inch / suppress leading zeros}
FMAT,2
INCH,TZ
T1C0.025
T2C0.036
T3C0.039
T4C0.040
T5C0.080
T6C0.086
T7C0.091
T8C0.125
T9C0.150
%
G90
G05
M72
T1
X61500Y-55250
T2
X45872Y-43719
X45872Y-44750
X46856Y-43719
X46856Y-44750
X47644Y-43719
X47644Y-44750
X48628Y-43719
X48628Y-44750
X52872Y-43719
X52872Y-44750
X53856Y-43719
X53856Y-44750
X54644Y-43719
X54644Y-44750
X55628Y-43719
X55628Y-44750
T3
X45000Y-49500
X45000Y-53500
X60000Y-44250
X60000Y-46250
X60000Y-48250
X60000Y-50250
X64000Y-44250
X64000Y-46250
X64000Y-48250
X64000Y-50250
X66750Y-45250
X66750Y-46250
X66750Y-47250
X74250Y-51500
X74250Y-52500
X74250Y-53500
T4
X41000Y-47500
X41000Y-48500
X41000Y-49500
X41000Y-50500
X41000Y-51500
X42000Y-47500
X42000Y-48500
X42000Y-49500
X42000Y-50500
X42000Y-51500
X45000Y-54750
X45000Y-55750
X45000Y-56750
X46250Y-48000
X47250Y-48000
X48250Y-48000
X48500Y-56500
X48500Y-57500
X49500Y-56500
X49500Y-57500
X50500Y-56500
X50500Y-57500
X51500Y-56500
X51500Y-57500
X52500Y-56500
X52500Y-57500
X53250Y-48000
X54250Y-48000
X55250Y-48000
X60016Y-40750
X61984Y-40750
X65516Y-40750
X66745Y-49500
X67484Y-40750
X68755Y-49500
X69495Y-55750
X71016Y-40750
X71505Y-55750
X72984Y-40750
X77250Y-45516
X77250Y-47484
X77250Y-51516
X77250Y-53484
T5
X56880Y-54550
X56880Y-57950
X60000Y-54550
X60000Y-57950
X63120Y-54550
X63120Y-57950
T6
X47100Y-56150
X52400Y-50850
T7
X44663Y-43581
X44663Y-45817
X49837Y-43581
X49837Y-45817
X51663Y-43581
X51663Y-45817
X56837Y-43581
X56837Y-45817
T8
X41339Y-41339
X41339Y-57087
X76772Y-41339
X76772Y-57087
T9
X67650Y-52500
X73350Y-46250
T0
M30
