%FSLAX36Y36*%
G04 Gerber Fmt 3.6, Leading zero omitted, Abs format (unit inch)*
G04 Created by KiCad (PCBNEW (2014-jul-16 BZR unknown)-product) date Tue 13 Jan 2015 03:42:58 PM PST*
%MOIN*%
G01*
G04 APERTURE LIST*
%ADD10C,0.003937*%
%ADD11C,0.008000*%
%ADD12C,0.010000*%
%ADD13C,0.005906*%
%ADD14C,0.015000*%
%ADD15C,0.009850*%
%ADD16C,0.009900*%
%ADD17C,0.006000*%
G04 APERTURE END LIST*
D10*
D11*
X5261429Y-4818095D02*
X5238571Y-4818095D01*
X5250000Y-4818095D02*
X5250000Y-4778095D01*
X5246191Y-4783810D01*
X5242381Y-4787619D01*
X5238571Y-4789524D01*
X5311429Y-4668095D02*
X5288571Y-4668095D01*
X5300000Y-4668095D02*
X5300000Y-4628095D01*
X5296191Y-4633810D01*
X5292381Y-4637619D01*
X5288571Y-4639524D01*
X4586429Y-4668095D02*
X4563571Y-4668095D01*
X4575000Y-4668095D02*
X4575000Y-4628095D01*
X4571191Y-4633810D01*
X4567381Y-4637619D01*
X4563571Y-4639524D01*
X4536429Y-4818095D02*
X4513571Y-4818095D01*
X4525000Y-4818095D02*
X4525000Y-4778095D01*
X4521191Y-4783810D01*
X4517381Y-4787619D01*
X4513571Y-4789524D01*
X4786429Y-5768095D02*
X4763571Y-5768095D01*
X4775000Y-5768095D02*
X4775000Y-5728095D01*
X4771191Y-5733810D01*
X4767381Y-5737619D01*
X4763571Y-5739524D01*
X4036429Y-4518095D02*
X4013571Y-4518095D01*
X4025000Y-4518095D02*
X4025000Y-4478095D01*
X4021191Y-4483810D01*
X4017381Y-4487619D01*
X4013571Y-4489524D01*
X4336905Y-5603095D02*
X4344524Y-5603095D01*
X4348333Y-5605000D01*
X4352143Y-5608810D01*
X4354048Y-5616429D01*
X4354048Y-5629762D01*
X4352143Y-5637381D01*
X4348333Y-5641190D01*
X4344524Y-5643095D01*
X4336905Y-5643095D01*
X4333095Y-5641190D01*
X4329286Y-5637381D01*
X4327381Y-5629762D01*
X4327381Y-5616429D01*
X4329286Y-5608810D01*
X4333095Y-5605000D01*
X4336905Y-5603095D01*
X4384524Y-5622143D02*
X4371191Y-5622143D01*
X4371191Y-5643095D02*
X4371191Y-5603095D01*
X4390238Y-5603095D01*
X4418810Y-5622143D02*
X4405476Y-5622143D01*
X4405476Y-5643095D02*
X4405476Y-5603095D01*
X4424524Y-5603095D01*
D12*
X7847857Y-5479286D02*
X7802143Y-5479286D01*
X7847857Y-5004286D02*
X7802143Y-5004286D01*
X7825000Y-5027143D02*
X7825000Y-4981429D01*
X7847857Y-4404286D02*
X7802143Y-4404286D01*
X7825000Y-4427143D02*
X7825000Y-4381429D01*
X7565714Y-5521429D02*
X7562857Y-5524286D01*
X7554286Y-5527143D01*
X7548571Y-5527143D01*
X7540000Y-5524286D01*
X7534286Y-5518571D01*
X7531429Y-5512857D01*
X7528571Y-5501429D01*
X7528571Y-5492857D01*
X7531429Y-5481429D01*
X7534286Y-5475714D01*
X7540000Y-5470000D01*
X7548571Y-5467143D01*
X7554286Y-5467143D01*
X7562857Y-5470000D01*
X7565714Y-5472857D01*
X7591429Y-5527143D02*
X7591429Y-5467143D01*
X7591429Y-5495714D02*
X7625714Y-5495714D01*
X7625714Y-5527143D02*
X7625714Y-5467143D01*
X7651429Y-5510000D02*
X7680000Y-5510000D01*
X7645714Y-5527143D02*
X7665714Y-5467143D01*
X7685714Y-5527143D01*
X7705714Y-5527143D02*
X7705714Y-5467143D01*
X7734286Y-5527143D02*
X7734286Y-5467143D01*
X7768571Y-5527143D01*
X7768571Y-5467143D01*
X7668571Y-4402143D02*
X7668571Y-4342143D01*
X7697143Y-4402143D02*
X7697143Y-4342143D01*
X7731429Y-4402143D01*
X7731429Y-4342143D01*
X5965714Y-4321429D02*
X5962857Y-4324286D01*
X5954286Y-4327143D01*
X5948571Y-4327143D01*
X5940000Y-4324286D01*
X5934286Y-4318571D01*
X5931429Y-4312857D01*
X5928571Y-4301429D01*
X5928571Y-4292857D01*
X5931429Y-4281429D01*
X5934286Y-4275714D01*
X5940000Y-4270000D01*
X5948571Y-4267143D01*
X5954286Y-4267143D01*
X5962857Y-4270000D01*
X5965714Y-4272857D01*
X5991429Y-4327143D02*
X5991429Y-4267143D01*
X5991429Y-4295714D02*
X6025714Y-4295714D01*
X6025714Y-4327143D02*
X6025714Y-4267143D01*
X6051429Y-4310000D02*
X6080000Y-4310000D01*
X6045714Y-4327143D02*
X6065714Y-4267143D01*
X6085714Y-4327143D01*
X6105714Y-4327143D02*
X6105714Y-4267143D01*
X6134286Y-4327143D02*
X6134286Y-4267143D01*
X6168571Y-4327143D01*
X6168571Y-4267143D01*
X6534286Y-4327143D02*
X6534286Y-4267143D01*
X6562857Y-4327143D02*
X6562857Y-4267143D01*
X6597143Y-4327143D01*
X6597143Y-4267143D01*
X6625714Y-4327143D02*
X6625714Y-4267143D01*
X6648571Y-4267143D01*
X6654286Y-4270000D01*
X6657143Y-4272857D01*
X6660000Y-4278571D01*
X6660000Y-4287143D01*
X6657143Y-4292857D01*
X6654286Y-4295714D01*
X6648571Y-4298571D01*
X6625714Y-4298571D01*
X6685714Y-4267143D02*
X6685714Y-4315714D01*
X6688571Y-4321429D01*
X6691429Y-4324286D01*
X6697143Y-4327143D01*
X6708571Y-4327143D01*
X6714286Y-4324286D01*
X6717143Y-4321429D01*
X6720000Y-4315714D01*
X6720000Y-4267143D01*
X6740000Y-4267143D02*
X6774286Y-4267143D01*
X6757143Y-4327143D02*
X6757143Y-4267143D01*
D11*
X3937008Y-5905512D02*
X3937008Y-3937008D01*
X7874016Y-5905512D02*
X3937008Y-5905512D01*
X7874016Y-3937008D02*
X7874016Y-5905512D01*
X3937008Y-3937008D02*
X7874016Y-3937008D01*
X4432381Y-5753095D02*
X4455238Y-5753095D01*
X4443810Y-5793095D02*
X4443810Y-5753095D01*
X4483810Y-5791190D02*
X4480000Y-5793095D01*
X4472381Y-5793095D01*
X4468571Y-5791190D01*
X4466667Y-5787381D01*
X4466667Y-5772143D01*
X4468571Y-5768333D01*
X4472381Y-5766429D01*
X4480000Y-5766429D01*
X4483810Y-5768333D01*
X4485714Y-5772143D01*
X4485714Y-5775952D01*
X4466667Y-5779762D01*
X4502857Y-5793095D02*
X4502857Y-5766429D01*
X4502857Y-5774048D02*
X4504762Y-5770238D01*
X4506667Y-5768333D01*
X4510476Y-5766429D01*
X4514286Y-5766429D01*
X4527619Y-5793095D02*
X4527619Y-5766429D01*
X4527619Y-5770238D02*
X4529524Y-5768333D01*
X4533333Y-5766429D01*
X4539048Y-5766429D01*
X4542857Y-5768333D01*
X4544762Y-5772143D01*
X4544762Y-5793095D01*
X4544762Y-5772143D02*
X4546667Y-5768333D01*
X4550476Y-5766429D01*
X4556190Y-5766429D01*
X4560000Y-5768333D01*
X4561905Y-5772143D01*
X4561905Y-5793095D01*
X4375238Y-5503095D02*
X4382857Y-5503095D01*
X4386667Y-5505000D01*
X4390476Y-5508810D01*
X4392381Y-5516429D01*
X4392381Y-5529762D01*
X4390476Y-5537381D01*
X4386667Y-5541190D01*
X4382857Y-5543095D01*
X4375238Y-5543095D01*
X4371429Y-5541190D01*
X4367619Y-5537381D01*
X4365714Y-5529762D01*
X4365714Y-5516429D01*
X4367619Y-5508810D01*
X4371429Y-5505000D01*
X4375238Y-5503095D01*
X4409524Y-5543095D02*
X4409524Y-5503095D01*
X4432381Y-5543095D01*
X4432381Y-5503095D01*
D12*
X6235714Y-4327143D02*
X6235714Y-4267143D01*
X6255714Y-4310000D01*
X6275714Y-4267143D01*
X6275714Y-4327143D01*
X6304286Y-4327143D02*
X6304286Y-4267143D01*
X6327143Y-4267143D01*
X6332857Y-4270000D01*
X6335714Y-4272857D01*
X6338571Y-4278571D01*
X6338571Y-4287143D01*
X6335714Y-4292857D01*
X6332857Y-4295714D01*
X6327143Y-4298571D01*
X6304286Y-4298571D01*
X6358571Y-4267143D02*
X6372857Y-4327143D01*
X6384286Y-4284286D01*
X6395714Y-4327143D01*
X6410000Y-4267143D01*
X6467143Y-4327143D02*
X6447143Y-4298571D01*
X6432857Y-4327143D02*
X6432857Y-4267143D01*
X6455714Y-4267143D01*
X6461429Y-4270000D01*
X6464286Y-4272857D01*
X6467143Y-4278571D01*
X6467143Y-4287143D01*
X6464286Y-4292857D01*
X6461429Y-4295714D01*
X6455714Y-4298571D01*
X6432857Y-4298571D01*
X7599286Y-4977143D02*
X7570714Y-4977143D01*
X7570714Y-4917143D01*
X7619286Y-4977143D02*
X7619286Y-4917143D01*
X7642143Y-4917143D01*
X7647857Y-4920000D01*
X7650714Y-4922857D01*
X7653571Y-4928571D01*
X7653571Y-4937143D01*
X7650714Y-4942857D01*
X7647857Y-4945714D01*
X7642143Y-4948571D01*
X7619286Y-4948571D01*
X7673571Y-4917143D02*
X7687857Y-4977143D01*
X7699286Y-4934286D01*
X7710714Y-4977143D01*
X7725000Y-4917143D01*
X7782143Y-4977143D02*
X7762143Y-4948571D01*
X7747857Y-4977143D02*
X7747857Y-4917143D01*
X7770714Y-4917143D01*
X7776429Y-4920000D01*
X7779286Y-4922857D01*
X7782143Y-4928571D01*
X7782143Y-4937143D01*
X7779286Y-4942857D01*
X7776429Y-4945714D01*
X7770714Y-4948571D01*
X7747857Y-4948571D01*
X7037143Y-4295714D02*
X7057143Y-4295714D01*
X7065714Y-4327143D02*
X7037143Y-4327143D01*
X7037143Y-4267143D01*
X7065714Y-4267143D01*
X7091429Y-4304286D02*
X7137143Y-4304286D01*
X7162857Y-4324286D02*
X7171429Y-4327143D01*
X7185714Y-4327143D01*
X7191429Y-4324286D01*
X7194286Y-4321429D01*
X7197143Y-4315714D01*
X7197143Y-4310000D01*
X7194286Y-4304286D01*
X7191429Y-4301429D01*
X7185714Y-4298571D01*
X7174286Y-4295714D01*
X7168571Y-4292857D01*
X7165714Y-4290000D01*
X7162857Y-4284286D01*
X7162857Y-4278571D01*
X7165714Y-4272857D01*
X7168571Y-4270000D01*
X7174286Y-4267143D01*
X7188571Y-4267143D01*
X7197143Y-4270000D01*
X7214286Y-4267143D02*
X7248571Y-4267143D01*
X7231429Y-4327143D02*
X7231429Y-4267143D01*
X7280000Y-4267143D02*
X7291429Y-4267143D01*
X7297143Y-4270000D01*
X7302857Y-4275714D01*
X7305714Y-4287143D01*
X7305714Y-4307143D01*
X7302857Y-4318571D01*
X7297143Y-4324286D01*
X7291429Y-4327143D01*
X7280000Y-4327143D01*
X7274286Y-4324286D01*
X7268571Y-4318571D01*
X7265714Y-4307143D01*
X7265714Y-4287143D01*
X7268571Y-4275714D01*
X7274286Y-4270000D01*
X7280000Y-4267143D01*
X7331429Y-4327143D02*
X7331429Y-4267143D01*
X7354286Y-4267143D01*
X7360000Y-4270000D01*
X7362857Y-4272857D01*
X7365714Y-4278571D01*
X7365714Y-4287143D01*
X7362857Y-4292857D01*
X7360000Y-4295714D01*
X7354286Y-4298571D01*
X7331429Y-4298571D01*
X6347857Y-3979286D02*
X6302143Y-3979286D01*
X6897857Y-3979286D02*
X6852143Y-3979286D01*
X5897857Y-3979286D02*
X5852143Y-3979286D01*
X5875000Y-4002143D02*
X5875000Y-3956429D01*
X6447857Y-3979286D02*
X6402143Y-3979286D01*
X6425000Y-4002143D02*
X6425000Y-3956429D01*
X7847857Y-4879286D02*
X7802143Y-4879286D01*
D11*
X5396429Y-5222619D02*
X5379762Y-5198810D01*
X5367857Y-5222619D02*
X5367857Y-5172619D01*
X5386905Y-5172619D01*
X5391667Y-5175000D01*
X5394048Y-5177381D01*
X5396429Y-5182143D01*
X5396429Y-5189286D01*
X5394048Y-5194048D01*
X5391667Y-5196429D01*
X5386905Y-5198810D01*
X5367857Y-5198810D01*
X5436905Y-5220238D02*
X5432143Y-5222619D01*
X5422619Y-5222619D01*
X5417857Y-5220238D01*
X5415476Y-5215476D01*
X5415476Y-5196429D01*
X5417857Y-5191667D01*
X5422619Y-5189286D01*
X5432143Y-5189286D01*
X5436905Y-5191667D01*
X5439286Y-5196429D01*
X5439286Y-5201190D01*
X5415476Y-5205952D01*
X5455952Y-5189286D02*
X5467857Y-5222619D01*
X5479762Y-5189286D01*
X5498809Y-5217857D02*
X5501190Y-5220238D01*
X5498809Y-5222619D01*
X5496429Y-5220238D01*
X5498809Y-5217857D01*
X5498809Y-5222619D01*
X5558333Y-5208333D02*
X5582143Y-5208333D01*
X5553571Y-5222619D02*
X5570238Y-5172619D01*
X5586905Y-5222619D01*
X5667857Y-5222619D02*
X5639286Y-5222619D01*
X5653571Y-5222619D02*
X5653571Y-5172619D01*
X5648809Y-5179762D01*
X5644048Y-5184524D01*
X5639286Y-5186905D01*
X5684524Y-5172619D02*
X5715476Y-5172619D01*
X5698809Y-5191667D01*
X5705952Y-5191667D01*
X5710714Y-5194048D01*
X5713095Y-5196429D01*
X5715476Y-5201190D01*
X5715476Y-5213095D01*
X5713095Y-5217857D01*
X5710714Y-5220238D01*
X5705952Y-5222619D01*
X5691667Y-5222619D01*
X5686905Y-5220238D01*
X5684524Y-5217857D01*
X5751190Y-5172619D02*
X5751190Y-5208333D01*
X5748809Y-5215476D01*
X5744048Y-5220238D01*
X5736905Y-5222619D01*
X5732143Y-5222619D01*
X5796429Y-5222619D02*
X5796429Y-5196429D01*
X5794048Y-5191667D01*
X5789286Y-5189286D01*
X5779762Y-5189286D01*
X5775000Y-5191667D01*
X5796429Y-5220238D02*
X5791667Y-5222619D01*
X5779762Y-5222619D01*
X5775000Y-5220238D01*
X5772619Y-5215476D01*
X5772619Y-5210714D01*
X5775000Y-5205952D01*
X5779762Y-5203571D01*
X5791667Y-5203571D01*
X5796429Y-5201190D01*
X5820238Y-5189286D02*
X5820238Y-5222619D01*
X5820238Y-5194048D02*
X5822619Y-5191667D01*
X5827381Y-5189286D01*
X5834524Y-5189286D01*
X5839286Y-5191667D01*
X5841667Y-5196429D01*
X5841667Y-5222619D01*
X5863095Y-5177381D02*
X5865476Y-5175000D01*
X5870238Y-5172619D01*
X5882143Y-5172619D01*
X5886905Y-5175000D01*
X5889286Y-5177381D01*
X5891667Y-5182143D01*
X5891667Y-5186905D01*
X5889286Y-5194048D01*
X5860714Y-5222619D01*
X5891667Y-5222619D01*
X5922619Y-5172619D02*
X5927381Y-5172619D01*
X5932143Y-5175000D01*
X5934524Y-5177381D01*
X5936905Y-5182143D01*
X5939286Y-5191667D01*
X5939286Y-5203571D01*
X5936905Y-5213095D01*
X5934524Y-5217857D01*
X5932143Y-5220238D01*
X5927381Y-5222619D01*
X5922619Y-5222619D01*
X5917857Y-5220238D01*
X5915476Y-5217857D01*
X5913095Y-5213095D01*
X5910714Y-5203571D01*
X5910714Y-5191667D01*
X5913095Y-5182143D01*
X5915476Y-5177381D01*
X5917857Y-5175000D01*
X5922619Y-5172619D01*
X5986905Y-5222619D02*
X5958333Y-5222619D01*
X5972619Y-5222619D02*
X5972619Y-5172619D01*
X5967857Y-5179762D01*
X5963095Y-5184524D01*
X5958333Y-5186905D01*
X6032143Y-5172619D02*
X6008333Y-5172619D01*
X6005952Y-5196429D01*
X6008333Y-5194048D01*
X6013095Y-5191667D01*
X6025000Y-5191667D01*
X6029762Y-5194048D01*
X6032143Y-5196429D01*
X6034524Y-5201190D01*
X6034524Y-5213095D01*
X6032143Y-5217857D01*
X6029762Y-5220238D01*
X6025000Y-5222619D01*
X6013095Y-5222619D01*
X6008333Y-5220238D01*
X6005952Y-5217857D01*
X6498810Y-5781190D02*
X6514048Y-5781190D01*
X6521667Y-5785000D01*
X6529286Y-5792619D01*
X6533095Y-5807857D01*
X6533095Y-5834524D01*
X6529286Y-5849762D01*
X6521667Y-5857381D01*
X6514048Y-5861190D01*
X6498810Y-5861190D01*
X6491190Y-5857381D01*
X6483571Y-5849762D01*
X6479762Y-5834524D01*
X6479762Y-5807857D01*
X6483571Y-5792619D01*
X6491190Y-5785000D01*
X6498810Y-5781190D01*
X6594048Y-5819286D02*
X6567381Y-5819286D01*
X6567381Y-5861190D02*
X6567381Y-5781190D01*
X6605476Y-5781190D01*
X6662619Y-5819286D02*
X6635952Y-5819286D01*
X6635952Y-5861190D02*
X6635952Y-5781190D01*
X6674048Y-5781190D01*
X5375476Y-5806190D02*
X5390714Y-5806190D01*
X5398333Y-5810000D01*
X5405952Y-5817619D01*
X5409762Y-5832857D01*
X5409762Y-5859524D01*
X5405952Y-5874762D01*
X5398333Y-5882381D01*
X5390714Y-5886190D01*
X5375476Y-5886190D01*
X5367857Y-5882381D01*
X5360238Y-5874762D01*
X5356429Y-5859524D01*
X5356429Y-5832857D01*
X5360238Y-5817619D01*
X5367857Y-5810000D01*
X5375476Y-5806190D01*
X5444048Y-5886190D02*
X5444048Y-5806190D01*
X5489762Y-5886190D01*
X5489762Y-5806190D01*
X5386905Y-5121429D02*
X5394048Y-5123810D01*
X5396429Y-5126190D01*
X5398810Y-5130952D01*
X5398810Y-5138095D01*
X5396429Y-5142857D01*
X5394048Y-5145238D01*
X5389286Y-5147619D01*
X5370238Y-5147619D01*
X5370238Y-5097619D01*
X5386905Y-5097619D01*
X5391667Y-5100000D01*
X5394048Y-5102381D01*
X5396429Y-5107143D01*
X5396429Y-5111905D01*
X5394048Y-5116667D01*
X5391667Y-5119048D01*
X5386905Y-5121429D01*
X5370238Y-5121429D01*
X5441667Y-5114286D02*
X5441667Y-5147619D01*
X5420238Y-5114286D02*
X5420238Y-5140476D01*
X5422619Y-5145238D01*
X5427381Y-5147619D01*
X5434524Y-5147619D01*
X5439286Y-5145238D01*
X5441667Y-5142857D01*
X5463095Y-5145238D02*
X5467857Y-5147619D01*
X5477381Y-5147619D01*
X5482143Y-5145238D01*
X5484524Y-5140476D01*
X5484524Y-5138095D01*
X5482143Y-5133333D01*
X5477381Y-5130952D01*
X5470238Y-5130952D01*
X5465476Y-5128571D01*
X5463095Y-5123810D01*
X5463095Y-5121429D01*
X5465476Y-5116667D01*
X5470238Y-5114286D01*
X5477381Y-5114286D01*
X5482143Y-5116667D01*
X5494048Y-5152381D02*
X5532143Y-5152381D01*
X5544048Y-5097619D02*
X5544048Y-5138095D01*
X5546429Y-5142857D01*
X5548810Y-5145238D01*
X5553571Y-5147619D01*
X5563095Y-5147619D01*
X5567857Y-5145238D01*
X5570238Y-5142857D01*
X5572619Y-5138095D01*
X5572619Y-5097619D01*
X5594048Y-5145238D02*
X5601190Y-5147619D01*
X5613095Y-5147619D01*
X5617857Y-5145238D01*
X5620238Y-5142857D01*
X5622619Y-5138095D01*
X5622619Y-5133333D01*
X5620238Y-5128571D01*
X5617857Y-5126190D01*
X5613095Y-5123810D01*
X5603571Y-5121429D01*
X5598810Y-5119048D01*
X5596429Y-5116667D01*
X5594048Y-5111905D01*
X5594048Y-5107143D01*
X5596429Y-5102381D01*
X5598810Y-5100000D01*
X5603571Y-5097619D01*
X5615476Y-5097619D01*
X5622619Y-5100000D01*
X5660714Y-5121429D02*
X5667857Y-5123810D01*
X5670238Y-5126190D01*
X5672619Y-5130952D01*
X5672619Y-5138095D01*
X5670238Y-5142857D01*
X5667857Y-5145238D01*
X5663095Y-5147619D01*
X5644048Y-5147619D01*
X5644048Y-5097619D01*
X5660714Y-5097619D01*
X5665476Y-5100000D01*
X5667857Y-5102381D01*
X5670238Y-5107143D01*
X5670238Y-5111905D01*
X5667857Y-5116667D01*
X5665476Y-5119048D01*
X5660714Y-5121429D01*
X5644048Y-5121429D01*
X5682143Y-5152381D02*
X5720238Y-5152381D01*
X5732143Y-5147619D02*
X5732143Y-5097619D01*
X5751190Y-5097619D01*
X5755952Y-5100000D01*
X5758333Y-5102381D01*
X5760714Y-5107143D01*
X5760714Y-5114286D01*
X5758333Y-5119048D01*
X5755952Y-5121429D01*
X5751190Y-5123810D01*
X5732143Y-5123810D01*
X5789286Y-5147619D02*
X5784524Y-5145238D01*
X5782143Y-5142857D01*
X5779762Y-5138095D01*
X5779762Y-5123810D01*
X5782143Y-5119048D01*
X5784524Y-5116667D01*
X5789286Y-5114286D01*
X5796429Y-5114286D01*
X5801190Y-5116667D01*
X5803571Y-5119048D01*
X5805952Y-5123810D01*
X5805952Y-5138095D01*
X5803571Y-5142857D01*
X5801190Y-5145238D01*
X5796429Y-5147619D01*
X5789286Y-5147619D01*
X5822619Y-5114286D02*
X5832143Y-5147619D01*
X5841667Y-5123810D01*
X5851191Y-5147619D01*
X5860714Y-5114286D01*
X5898810Y-5145238D02*
X5894048Y-5147619D01*
X5884524Y-5147619D01*
X5879762Y-5145238D01*
X5877381Y-5140476D01*
X5877381Y-5121429D01*
X5879762Y-5116667D01*
X5884524Y-5114286D01*
X5894048Y-5114286D01*
X5898810Y-5116667D01*
X5901191Y-5121429D01*
X5901191Y-5126190D01*
X5877381Y-5130952D01*
X5922619Y-5147619D02*
X5922619Y-5114286D01*
X5922619Y-5123810D02*
X5925000Y-5119048D01*
X5927381Y-5116667D01*
X5932143Y-5114286D01*
X5936905Y-5114286D01*
D12*
X4450000Y-5525000D02*
X4450000Y-5725000D01*
X4450000Y-5725000D02*
X4550000Y-5725000D01*
X4550000Y-5725000D02*
X4550000Y-5525000D01*
X4550000Y-5425000D02*
X4550000Y-5525000D01*
X4550000Y-5525000D02*
X4450000Y-5525000D01*
X4550000Y-5425000D02*
X4450000Y-5425000D01*
X4450000Y-5425000D02*
X4450000Y-5525000D01*
D13*
X3930000Y-4750000D02*
X3960000Y-4730000D01*
X3930000Y-4750000D02*
X3960000Y-4770000D01*
D12*
X3960000Y-5040000D02*
X3980000Y-5040000D01*
X3980000Y-5040000D02*
X3980000Y-4860000D01*
X3980000Y-4860000D02*
X3960000Y-4860000D01*
X4340000Y-4550000D02*
X4340000Y-5350000D01*
X4340000Y-5350000D02*
X3960000Y-5350000D01*
X3960000Y-5350000D02*
X3960000Y-4550000D01*
X3960000Y-4550000D02*
X4340000Y-4550000D01*
D11*
X7396850Y-4240354D02*
X7396850Y-3945079D01*
X7396850Y-3945079D02*
X7003150Y-3945079D01*
X7003150Y-3945079D02*
X7003150Y-4240354D01*
X7003150Y-4240354D02*
X7396850Y-4240354D01*
X6846850Y-4240354D02*
X6846850Y-3945079D01*
X6846850Y-3945079D02*
X6453150Y-3945079D01*
X6453150Y-3945079D02*
X6453150Y-4240354D01*
X6453150Y-4240354D02*
X6846850Y-4240354D01*
X6296850Y-4240354D02*
X6296850Y-3945079D01*
X6296850Y-3945079D02*
X5903150Y-3945079D01*
X5903150Y-3945079D02*
X5903150Y-4240354D01*
X5903150Y-4240354D02*
X6296850Y-4240354D01*
X7559646Y-4846850D02*
X7854921Y-4846850D01*
X7854921Y-4846850D02*
X7854921Y-4453150D01*
X7854921Y-4453150D02*
X7559646Y-4453150D01*
X7559646Y-4453150D02*
X7559646Y-4846850D01*
X7559646Y-5446850D02*
X7854921Y-5446850D01*
X7854921Y-5446850D02*
X7854921Y-5053150D01*
X7854921Y-5053150D02*
X7559646Y-5053150D01*
X7559646Y-5053150D02*
X7559646Y-5446850D01*
D14*
X6820000Y-4525000D02*
X6765000Y-4525000D01*
X6820000Y-4625000D02*
X6765000Y-4625000D01*
X6820000Y-4725000D02*
X6765000Y-4725000D01*
X7433995Y-4625000D02*
G75*
G03X7433995Y-4625000I-98995J0D01*
G74*
G01*
X7155000Y-4835000D02*
X7470000Y-4835000D01*
X7470000Y-4835000D02*
X7470000Y-4415000D01*
X7470000Y-4415000D02*
X7155000Y-4415000D01*
X6820000Y-4835000D02*
X7155000Y-4835000D01*
X7155000Y-4835000D02*
X7155000Y-4415000D01*
X7155000Y-4415000D02*
X6820000Y-4415000D01*
X6820000Y-4625000D02*
X6820000Y-4415000D01*
X6820000Y-4625000D02*
X6820000Y-4835000D01*
X7280000Y-5350000D02*
X7335000Y-5350000D01*
X7280000Y-5250000D02*
X7335000Y-5250000D01*
X7280000Y-5150000D02*
X7335000Y-5150000D01*
X6863995Y-5250000D02*
G75*
G03X6863995Y-5250000I-98995J0D01*
G74*
G01*
X6945000Y-5040000D02*
X6630000Y-5040000D01*
X6630000Y-5040000D02*
X6630000Y-5460000D01*
X6630000Y-5460000D02*
X6945000Y-5460000D01*
X7280000Y-5040000D02*
X6945000Y-5040000D01*
X6945000Y-5040000D02*
X6945000Y-5460000D01*
X6945000Y-5460000D02*
X7280000Y-5460000D01*
X7280000Y-5250000D02*
X7280000Y-5460000D01*
X7280000Y-5250000D02*
X7280000Y-5040000D01*
D13*
X4500000Y-5050000D02*
X4500000Y-5000000D01*
X4500000Y-5250000D02*
X4500000Y-5300000D01*
X4450000Y-5250000D02*
X4550000Y-5250000D01*
X4550000Y-5250000D02*
X4550000Y-5050000D01*
X4550000Y-5050000D02*
X4450000Y-5050000D01*
X4450000Y-5050000D02*
X4450000Y-5250000D01*
D11*
X7011000Y-4891000D02*
X6539000Y-4891000D01*
X6539000Y-4891000D02*
X6539000Y-5009000D01*
X6539000Y-5009000D02*
X7011000Y-5009000D01*
X7011000Y-5009000D02*
X7011000Y-4891000D01*
X7286000Y-5516000D02*
X6814000Y-5516000D01*
X6814000Y-5516000D02*
X6814000Y-5634000D01*
X6814000Y-5634000D02*
X7286000Y-5634000D01*
X7286000Y-5634000D02*
X7286000Y-5516000D01*
X5550000Y-5350000D02*
X5550000Y-5900000D01*
X5550000Y-5900000D02*
X6450000Y-5900000D01*
X6450000Y-5900000D02*
X6450000Y-5350000D01*
X6450000Y-5350000D02*
X5550000Y-5350000D01*
D13*
X5139567Y-3952559D02*
X5710433Y-3952559D01*
X5710433Y-3952559D02*
X5710433Y-4621850D01*
X5720276Y-4621850D02*
X5129724Y-4621850D01*
X5139567Y-3952559D02*
X5139567Y-4621850D01*
X6300000Y-5025000D02*
X6350000Y-5025000D01*
X6100000Y-5025000D02*
X6050000Y-5025000D01*
X6100000Y-4975000D02*
X6100000Y-5075000D01*
X6100000Y-5075000D02*
X6300000Y-5075000D01*
X6300000Y-5075000D02*
X6300000Y-4975000D01*
X6300000Y-4975000D02*
X6100000Y-4975000D01*
X6300000Y-4825000D02*
X6350000Y-4825000D01*
X6100000Y-4825000D02*
X6050000Y-4825000D01*
X6100000Y-4775000D02*
X6100000Y-4875000D01*
X6100000Y-4875000D02*
X6300000Y-4875000D01*
X6300000Y-4875000D02*
X6300000Y-4775000D01*
X6300000Y-4775000D02*
X6100000Y-4775000D01*
X6300000Y-4625000D02*
X6350000Y-4625000D01*
X6100000Y-4625000D02*
X6050000Y-4625000D01*
X6100000Y-4575000D02*
X6100000Y-4675000D01*
X6100000Y-4675000D02*
X6300000Y-4675000D01*
X6300000Y-4675000D02*
X6300000Y-4575000D01*
X6300000Y-4575000D02*
X6100000Y-4575000D01*
X6300000Y-4425000D02*
X6350000Y-4425000D01*
X6100000Y-4425000D02*
X6050000Y-4425000D01*
X6100000Y-4375000D02*
X6100000Y-4475000D01*
X6100000Y-4475000D02*
X6300000Y-4475000D01*
X6300000Y-4475000D02*
X6300000Y-4375000D01*
X6300000Y-4375000D02*
X6100000Y-4375000D01*
X4625000Y-5000000D02*
X5325000Y-5000000D01*
X5325000Y-5000000D02*
X5325000Y-5700000D01*
X5325000Y-5700000D02*
X4625000Y-5700000D01*
X4625000Y-5700000D02*
X4625000Y-5000000D01*
X5275000Y-4850000D02*
X5275000Y-4900000D01*
X5275000Y-4900000D02*
X5575000Y-4900000D01*
X5575000Y-4900000D02*
X5575000Y-4850000D01*
X5400000Y-4750000D02*
X5400000Y-4725000D01*
X5400000Y-4725000D02*
X5550000Y-4725000D01*
X5550000Y-4725000D02*
X5550000Y-4750000D01*
X5300000Y-4750000D02*
X5300000Y-4725000D01*
X5300000Y-4725000D02*
X5350000Y-4725000D01*
X5350000Y-4725000D02*
X5350000Y-4750000D01*
D12*
X5375000Y-4850000D02*
X5575000Y-4850000D01*
X5575000Y-4850000D02*
X5575000Y-4750000D01*
X5575000Y-4750000D02*
X5375000Y-4750000D01*
X5275000Y-4750000D02*
X5375000Y-4750000D01*
X5375000Y-4750000D02*
X5375000Y-4850000D01*
X5275000Y-4750000D02*
X5275000Y-4850000D01*
X5275000Y-4850000D02*
X5375000Y-4850000D01*
D13*
X4575000Y-4850000D02*
X4575000Y-4900000D01*
X4575000Y-4900000D02*
X4875000Y-4900000D01*
X4875000Y-4900000D02*
X4875000Y-4850000D01*
X4700000Y-4750000D02*
X4700000Y-4725000D01*
X4700000Y-4725000D02*
X4850000Y-4725000D01*
X4850000Y-4725000D02*
X4850000Y-4750000D01*
X4600000Y-4750000D02*
X4600000Y-4725000D01*
X4600000Y-4725000D02*
X4650000Y-4725000D01*
X4650000Y-4725000D02*
X4650000Y-4750000D01*
D12*
X4675000Y-4850000D02*
X4875000Y-4850000D01*
X4875000Y-4850000D02*
X4875000Y-4750000D01*
X4875000Y-4750000D02*
X4675000Y-4750000D01*
X4575000Y-4750000D02*
X4675000Y-4750000D01*
X4675000Y-4750000D02*
X4675000Y-4850000D01*
X4575000Y-4750000D02*
X4575000Y-4850000D01*
X4575000Y-4850000D02*
X4675000Y-4850000D01*
D13*
X4439567Y-3952559D02*
X5010433Y-3952559D01*
X5010433Y-3952559D02*
X5010433Y-4621850D01*
X5020276Y-4621850D02*
X4429724Y-4621850D01*
X4439567Y-3952559D02*
X4439567Y-4621850D01*
D11*
X4103382Y-4151954D02*
X4103382Y-4111954D01*
X4103382Y-4131001D02*
X4126239Y-4131001D01*
X4126239Y-4151954D02*
X4126239Y-4111954D01*
X4166239Y-4151954D02*
X4143382Y-4151954D01*
X4154811Y-4151954D02*
X4154811Y-4111954D01*
X4151001Y-4117668D01*
X4147192Y-4121477D01*
X4143382Y-4123382D01*
X7646689Y-4151954D02*
X7646689Y-4111954D01*
X7646689Y-4131001D02*
X7669546Y-4131001D01*
X7669546Y-4151954D02*
X7669546Y-4111954D01*
X7686689Y-4115763D02*
X7688594Y-4113858D01*
X7692403Y-4111954D01*
X7701927Y-4111954D01*
X7705737Y-4113858D01*
X7707642Y-4115763D01*
X7709546Y-4119573D01*
X7709546Y-4123382D01*
X7707642Y-4129096D01*
X7684784Y-4151954D01*
X7709546Y-4151954D01*
X4103382Y-5726757D02*
X4103382Y-5686757D01*
X4103382Y-5705804D02*
X4126239Y-5705804D01*
X4126239Y-5726757D02*
X4126239Y-5686757D01*
X4141477Y-5686757D02*
X4166239Y-5686757D01*
X4152906Y-5701995D01*
X4158620Y-5701995D01*
X4162430Y-5703900D01*
X4164334Y-5705804D01*
X4166239Y-5709614D01*
X4166239Y-5719138D01*
X4164334Y-5722947D01*
X4162430Y-5724852D01*
X4158620Y-5726757D01*
X4147192Y-5726757D01*
X4143382Y-5724852D01*
X4141477Y-5722947D01*
X7646689Y-5726757D02*
X7646689Y-5686757D01*
X7646689Y-5705804D02*
X7669546Y-5705804D01*
X7669546Y-5726757D02*
X7669546Y-5686757D01*
X7705737Y-5700090D02*
X7705737Y-5726757D01*
X7696213Y-5684852D02*
X7686689Y-5713423D01*
X7711451Y-5713423D01*
X4386667Y-5378095D02*
X4386667Y-5406667D01*
X4384762Y-5412381D01*
X4380952Y-5416190D01*
X4375238Y-5418095D01*
X4371429Y-5418095D01*
X4426667Y-5418095D02*
X4403810Y-5418095D01*
X4415238Y-5418095D02*
X4415238Y-5378095D01*
X4411429Y-5383810D01*
X4407619Y-5387619D01*
X4403810Y-5389524D01*
X4119524Y-4518095D02*
X4119524Y-4478095D01*
X4142381Y-4518095D01*
X4142381Y-4478095D01*
X4159524Y-4481905D02*
X4161429Y-4480000D01*
X4165238Y-4478095D01*
X4174762Y-4478095D01*
X4178571Y-4480000D01*
X4180476Y-4481905D01*
X4182381Y-4485714D01*
X4182381Y-4489524D01*
X4180476Y-4495238D01*
X4157619Y-4518095D01*
X4182381Y-4518095D01*
X7419524Y-4018095D02*
X7419524Y-3978095D01*
X7442381Y-4018095D01*
X7442381Y-3978095D01*
X7457619Y-3978095D02*
X7482381Y-3978095D01*
X7469048Y-3993333D01*
X7474762Y-3993333D01*
X7478571Y-3995238D01*
X7480476Y-3997143D01*
X7482381Y-4000952D01*
X7482381Y-4010476D01*
X7480476Y-4014286D01*
X7478571Y-4016190D01*
X7474762Y-4018095D01*
X7463333Y-4018095D01*
X7459524Y-4016190D01*
X7457619Y-4014286D01*
X6819524Y-4293095D02*
X6819524Y-4253095D01*
X6842381Y-4293095D01*
X6842381Y-4253095D01*
X6878571Y-4266429D02*
X6878571Y-4293095D01*
X6869048Y-4251190D02*
X6859524Y-4279762D01*
X6884286Y-4279762D01*
X5819524Y-4218095D02*
X5819524Y-4178095D01*
X5842381Y-4218095D01*
X5842381Y-4178095D01*
X5880476Y-4178095D02*
X5861429Y-4178095D01*
X5859524Y-4197143D01*
X5861429Y-4195238D01*
X5865238Y-4193333D01*
X5874762Y-4193333D01*
X5878571Y-4195238D01*
X5880476Y-4197143D01*
X5882381Y-4200952D01*
X5882381Y-4210476D01*
X5880476Y-4214286D01*
X5878571Y-4216190D01*
X5874762Y-4218095D01*
X5865238Y-4218095D01*
X5861429Y-4216190D01*
X5859524Y-4214286D01*
X7544524Y-4418095D02*
X7544524Y-4378095D01*
X7567381Y-4418095D01*
X7567381Y-4378095D01*
X7603571Y-4378095D02*
X7595952Y-4378095D01*
X7592143Y-4380000D01*
X7590238Y-4381905D01*
X7586429Y-4387619D01*
X7584524Y-4395238D01*
X7584524Y-4410476D01*
X7586429Y-4414286D01*
X7588333Y-4416190D01*
X7592143Y-4418095D01*
X7599762Y-4418095D01*
X7603571Y-4416190D01*
X7605476Y-4414286D01*
X7607381Y-4410476D01*
X7607381Y-4400952D01*
X7605476Y-4397143D01*
X7603571Y-4395238D01*
X7599762Y-4393333D01*
X7592143Y-4393333D01*
X7588333Y-4395238D01*
X7586429Y-4397143D01*
X7584524Y-4400952D01*
X7469524Y-5068095D02*
X7469524Y-5028095D01*
X7492381Y-5068095D01*
X7492381Y-5028095D01*
X7507619Y-5028095D02*
X7534286Y-5028095D01*
X7517143Y-5068095D01*
X7146190Y-4396905D02*
X7142381Y-4395000D01*
X7138571Y-4391190D01*
X7132857Y-4385476D01*
X7129048Y-4383571D01*
X7125238Y-4383571D01*
X7127143Y-4393095D02*
X7123333Y-4391190D01*
X7119524Y-4387381D01*
X7117619Y-4379762D01*
X7117619Y-4366429D01*
X7119524Y-4358810D01*
X7123333Y-4355000D01*
X7127143Y-4353095D01*
X7134762Y-4353095D01*
X7138571Y-4355000D01*
X7142381Y-4358810D01*
X7144286Y-4366429D01*
X7144286Y-4379762D01*
X7142381Y-4387381D01*
X7138571Y-4391190D01*
X7134762Y-4393095D01*
X7127143Y-4393095D01*
X7182381Y-4393095D02*
X7159524Y-4393095D01*
X7170952Y-4393095D02*
X7170952Y-4353095D01*
X7167143Y-4358810D01*
X7163333Y-4362619D01*
X7159524Y-4364524D01*
D15*
X6855300Y-4514681D02*
X6853424Y-4518433D01*
X6853424Y-4524062D01*
X6855300Y-4529690D01*
X6859052Y-4533443D01*
X6862805Y-4535319D01*
X6870310Y-4537195D01*
X6875938Y-4537195D01*
X6883443Y-4535319D01*
X6887195Y-4533443D01*
X6890948Y-4529690D01*
X6892824Y-4524062D01*
X6892824Y-4520310D01*
X6890948Y-4514681D01*
X6889071Y-4512805D01*
X6875938Y-4512805D01*
X6875938Y-4520310D01*
D16*
D15*
X6890948Y-4736257D02*
X6892824Y-4730629D01*
X6892824Y-4721248D01*
X6890948Y-4717495D01*
X6889071Y-4715619D01*
X6885319Y-4713743D01*
X6881567Y-4713743D01*
X6877814Y-4715619D01*
X6875938Y-4717495D01*
X6874062Y-4721248D01*
X6872186Y-4728752D01*
X6870310Y-4732505D01*
X6868433Y-4734381D01*
X6864681Y-4736257D01*
X6860929Y-4736257D01*
X6857176Y-4734381D01*
X6855300Y-4732505D01*
X6853424Y-4728752D01*
X6853424Y-4719371D01*
X6855300Y-4713743D01*
D16*
D15*
X6892824Y-4635319D02*
X6853424Y-4635319D01*
X6853424Y-4625938D01*
X6855300Y-4620310D01*
X6859052Y-4616557D01*
X6862805Y-4614681D01*
X6870310Y-4612805D01*
X6875938Y-4612805D01*
X6883443Y-4614681D01*
X6887195Y-4616557D01*
X6890948Y-4620310D01*
X6892824Y-4625938D01*
X6892824Y-4635319D01*
D16*
D11*
X7221190Y-5021905D02*
X7217381Y-5020000D01*
X7213571Y-5016190D01*
X7207857Y-5010476D01*
X7204048Y-5008571D01*
X7200238Y-5008571D01*
X7202143Y-5018095D02*
X7198333Y-5016190D01*
X7194524Y-5012381D01*
X7192619Y-5004762D01*
X7192619Y-4991429D01*
X7194524Y-4983810D01*
X7198333Y-4980000D01*
X7202143Y-4978095D01*
X7209762Y-4978095D01*
X7213571Y-4980000D01*
X7217381Y-4983810D01*
X7219286Y-4991429D01*
X7219286Y-5004762D01*
X7217381Y-5012381D01*
X7213571Y-5016190D01*
X7209762Y-5018095D01*
X7202143Y-5018095D01*
X7234524Y-4981905D02*
X7236429Y-4980000D01*
X7240238Y-4978095D01*
X7249762Y-4978095D01*
X7253571Y-4980000D01*
X7255476Y-4981905D01*
X7257381Y-4985714D01*
X7257381Y-4989524D01*
X7255476Y-4995238D01*
X7232619Y-5018095D01*
X7257381Y-5018095D01*
D15*
X7205300Y-5339681D02*
X7203424Y-5343433D01*
X7203424Y-5349062D01*
X7205300Y-5354690D01*
X7209052Y-5358443D01*
X7212805Y-5360319D01*
X7220310Y-5362195D01*
X7225938Y-5362195D01*
X7233443Y-5360319D01*
X7237195Y-5358443D01*
X7240948Y-5354690D01*
X7242824Y-5349062D01*
X7242824Y-5345310D01*
X7240948Y-5339681D01*
X7239071Y-5337805D01*
X7225938Y-5337805D01*
X7225938Y-5345310D01*
D16*
D15*
X7240948Y-5161257D02*
X7242824Y-5155629D01*
X7242824Y-5146248D01*
X7240948Y-5142495D01*
X7239071Y-5140619D01*
X7235319Y-5138743D01*
X7231567Y-5138743D01*
X7227814Y-5140619D01*
X7225938Y-5142495D01*
X7224062Y-5146248D01*
X7222186Y-5153752D01*
X7220310Y-5157505D01*
X7218433Y-5159381D01*
X7214681Y-5161257D01*
X7210929Y-5161257D01*
X7207176Y-5159381D01*
X7205300Y-5157505D01*
X7203424Y-5153752D01*
X7203424Y-5144371D01*
X7205300Y-5138743D01*
D16*
D15*
X7242824Y-5260319D02*
X7203424Y-5260319D01*
X7203424Y-5250938D01*
X7205300Y-5245310D01*
X7209052Y-5241557D01*
X7212805Y-5239681D01*
X7220310Y-5237805D01*
X7225938Y-5237805D01*
X7233443Y-5239681D01*
X7237195Y-5241557D01*
X7240948Y-5245310D01*
X7242824Y-5250938D01*
X7242824Y-5260319D01*
D16*
D11*
X4401601Y-5169276D02*
X4388268Y-5150229D01*
X4378744Y-5169276D02*
X4378744Y-5129276D01*
X4393982Y-5129276D01*
X4397792Y-5131181D01*
X4399696Y-5133086D01*
X4401601Y-5136895D01*
X4401601Y-5142610D01*
X4399696Y-5146419D01*
X4397792Y-5148324D01*
X4393982Y-5150229D01*
X4378744Y-5150229D01*
X4439696Y-5169276D02*
X4416839Y-5169276D01*
X4428268Y-5169276D02*
X4428268Y-5129276D01*
X4424458Y-5134991D01*
X4420649Y-5138800D01*
X4416839Y-5140705D01*
X7068333Y-4968095D02*
X7055000Y-4949048D01*
X7045476Y-4968095D02*
X7045476Y-4928095D01*
X7060714Y-4928095D01*
X7064524Y-4930000D01*
X7066429Y-4931905D01*
X7068333Y-4935714D01*
X7068333Y-4941429D01*
X7066429Y-4945238D01*
X7064524Y-4947143D01*
X7060714Y-4949048D01*
X7045476Y-4949048D01*
X7083571Y-4931905D02*
X7085476Y-4930000D01*
X7089286Y-4928095D01*
X7098810Y-4928095D01*
X7102619Y-4930000D01*
X7104524Y-4931905D01*
X7106429Y-4935714D01*
X7106429Y-4939524D01*
X7104524Y-4945238D01*
X7081667Y-4968095D01*
X7106429Y-4968095D01*
X7043333Y-5693095D02*
X7030000Y-5674048D01*
X7020476Y-5693095D02*
X7020476Y-5653095D01*
X7035714Y-5653095D01*
X7039524Y-5655000D01*
X7041429Y-5656905D01*
X7043333Y-5660714D01*
X7043333Y-5666429D01*
X7041429Y-5670238D01*
X7039524Y-5672143D01*
X7035714Y-5674048D01*
X7020476Y-5674048D01*
X7056667Y-5653095D02*
X7081429Y-5653095D01*
X7068095Y-5668333D01*
X7073810Y-5668333D01*
X7077619Y-5670238D01*
X7079524Y-5672143D01*
X7081429Y-5675952D01*
X7081429Y-5685476D01*
X7079524Y-5689286D01*
X7077619Y-5691190D01*
X7073810Y-5693095D01*
X7062381Y-5693095D01*
X7058571Y-5691190D01*
X7056667Y-5689286D01*
X5546667Y-5316190D02*
X5552381Y-5318095D01*
X5561905Y-5318095D01*
X5565714Y-5316190D01*
X5567619Y-5314286D01*
X5569524Y-5310476D01*
X5569524Y-5306667D01*
X5567619Y-5302857D01*
X5565714Y-5300952D01*
X5561905Y-5299048D01*
X5554286Y-5297143D01*
X5550476Y-5295238D01*
X5548571Y-5293333D01*
X5546667Y-5289524D01*
X5546667Y-5285714D01*
X5548571Y-5281905D01*
X5550476Y-5280000D01*
X5554286Y-5278095D01*
X5563810Y-5278095D01*
X5569524Y-5280000D01*
X5582857Y-5278095D02*
X5592381Y-5318095D01*
X5600000Y-5289524D01*
X5607619Y-5318095D01*
X5617143Y-5278095D01*
X5653333Y-5318095D02*
X5630476Y-5318095D01*
X5641905Y-5318095D02*
X5641905Y-5278095D01*
X5638095Y-5283810D01*
X5634286Y-5287619D01*
X5630476Y-5289524D01*
D17*
X5744524Y-3993095D02*
X5744524Y-3953095D01*
X5767381Y-3993095D01*
X5767381Y-3953095D01*
X5792143Y-3970238D02*
X5788333Y-3968333D01*
X5786429Y-3966429D01*
X5784524Y-3962619D01*
X5784524Y-3960714D01*
X5786429Y-3956905D01*
X5788333Y-3955000D01*
X5792143Y-3953095D01*
X5799762Y-3953095D01*
X5803571Y-3955000D01*
X5805476Y-3956905D01*
X5807381Y-3960714D01*
X5807381Y-3962619D01*
X5805476Y-3966429D01*
X5803571Y-3968333D01*
X5799762Y-3970238D01*
X5792143Y-3970238D01*
X5788333Y-3972143D01*
X5786429Y-3974048D01*
X5784524Y-3977857D01*
X5784524Y-3985476D01*
X5786429Y-3989286D01*
X5788333Y-3991190D01*
X5792143Y-3993095D01*
X5799762Y-3993095D01*
X5803571Y-3991190D01*
X5805476Y-3989286D01*
X5807381Y-3985476D01*
X5807381Y-3977857D01*
X5805476Y-3974048D01*
X5803571Y-3972143D01*
X5799762Y-3970238D01*
D11*
X5893333Y-5043095D02*
X5880000Y-5024048D01*
X5870476Y-5043095D02*
X5870476Y-5003095D01*
X5885714Y-5003095D01*
X5889524Y-5005000D01*
X5891429Y-5006905D01*
X5893333Y-5010714D01*
X5893333Y-5016429D01*
X5891429Y-5020238D01*
X5889524Y-5022143D01*
X5885714Y-5024048D01*
X5870476Y-5024048D01*
X5927619Y-5016429D02*
X5927619Y-5043095D01*
X5918095Y-5001190D02*
X5908571Y-5029762D01*
X5933333Y-5029762D01*
X5893333Y-4843095D02*
X5880000Y-4824048D01*
X5870476Y-4843095D02*
X5870476Y-4803095D01*
X5885714Y-4803095D01*
X5889524Y-4805000D01*
X5891429Y-4806905D01*
X5893333Y-4810714D01*
X5893333Y-4816429D01*
X5891429Y-4820238D01*
X5889524Y-4822143D01*
X5885714Y-4824048D01*
X5870476Y-4824048D01*
X5929524Y-4803095D02*
X5910476Y-4803095D01*
X5908571Y-4822143D01*
X5910476Y-4820238D01*
X5914286Y-4818333D01*
X5923810Y-4818333D01*
X5927619Y-4820238D01*
X5929524Y-4822143D01*
X5931429Y-4825952D01*
X5931429Y-4835476D01*
X5929524Y-4839286D01*
X5927619Y-4841190D01*
X5923810Y-4843095D01*
X5914286Y-4843095D01*
X5910476Y-4841190D01*
X5908571Y-4839286D01*
X5893333Y-4643095D02*
X5880000Y-4624048D01*
X5870476Y-4643095D02*
X5870476Y-4603095D01*
X5885714Y-4603095D01*
X5889524Y-4605000D01*
X5891429Y-4606905D01*
X5893333Y-4610714D01*
X5893333Y-4616429D01*
X5891429Y-4620238D01*
X5889524Y-4622143D01*
X5885714Y-4624048D01*
X5870476Y-4624048D01*
X5927619Y-4603095D02*
X5920000Y-4603095D01*
X5916191Y-4605000D01*
X5914286Y-4606905D01*
X5910476Y-4612619D01*
X5908571Y-4620238D01*
X5908571Y-4635476D01*
X5910476Y-4639286D01*
X5912381Y-4641190D01*
X5916191Y-4643095D01*
X5923810Y-4643095D01*
X5927619Y-4641190D01*
X5929524Y-4639286D01*
X5931429Y-4635476D01*
X5931429Y-4625952D01*
X5929524Y-4622143D01*
X5927619Y-4620238D01*
X5923810Y-4618333D01*
X5916191Y-4618333D01*
X5912381Y-4620238D01*
X5910476Y-4622143D01*
X5908571Y-4625952D01*
X5893333Y-4443095D02*
X5880000Y-4424048D01*
X5870476Y-4443095D02*
X5870476Y-4403095D01*
X5885714Y-4403095D01*
X5889524Y-4405000D01*
X5891429Y-4406905D01*
X5893333Y-4410714D01*
X5893333Y-4416429D01*
X5891429Y-4420238D01*
X5889524Y-4422143D01*
X5885714Y-4424048D01*
X5870476Y-4424048D01*
X5906667Y-4403095D02*
X5933333Y-4403095D01*
X5916191Y-4443095D01*
D17*
X5047619Y-4928095D02*
X5060952Y-4968095D01*
X5074286Y-4928095D01*
X5110476Y-4968095D02*
X5097143Y-4949048D01*
X5087619Y-4968095D02*
X5087619Y-4928095D01*
X5102857Y-4928095D01*
X5106667Y-4930000D01*
X5108571Y-4931905D01*
X5110476Y-4935714D01*
X5110476Y-4941429D01*
X5108571Y-4945238D01*
X5106667Y-4947143D01*
X5102857Y-4949048D01*
X5087619Y-4949048D01*
X5148571Y-4968095D02*
X5125714Y-4968095D01*
X5137143Y-4968095D02*
X5137143Y-4928095D01*
X5133333Y-4933810D01*
X5129524Y-4937619D01*
X5125714Y-4939524D01*
D11*
X5622619Y-4803095D02*
X5635952Y-4843095D01*
X5649286Y-4803095D01*
X5685476Y-4843095D02*
X5672143Y-4824048D01*
X5662619Y-4843095D02*
X5662619Y-4803095D01*
X5677857Y-4803095D01*
X5681667Y-4805000D01*
X5683571Y-4806905D01*
X5685476Y-4810714D01*
X5685476Y-4816429D01*
X5683571Y-4820238D01*
X5681667Y-4822143D01*
X5677857Y-4824048D01*
X5662619Y-4824048D01*
X5700714Y-4806905D02*
X5702619Y-4805000D01*
X5706429Y-4803095D01*
X5715952Y-4803095D01*
X5719762Y-4805000D01*
X5721667Y-4806905D01*
X5723571Y-4810714D01*
X5723571Y-4814524D01*
X5721667Y-4820238D01*
X5698810Y-4843095D01*
X5723571Y-4843095D01*
X4897619Y-4778095D02*
X4910952Y-4818095D01*
X4924286Y-4778095D01*
X4960476Y-4818095D02*
X4947143Y-4799048D01*
X4937619Y-4818095D02*
X4937619Y-4778095D01*
X4952857Y-4778095D01*
X4956667Y-4780000D01*
X4958571Y-4781905D01*
X4960476Y-4785714D01*
X4960476Y-4791429D01*
X4958571Y-4795238D01*
X4956667Y-4797143D01*
X4952857Y-4799048D01*
X4937619Y-4799048D01*
X4973810Y-4778095D02*
X4998571Y-4778095D01*
X4985238Y-4793333D01*
X4990952Y-4793333D01*
X4994762Y-4795238D01*
X4996667Y-4797143D01*
X4998571Y-4800952D01*
X4998571Y-4810476D01*
X4996667Y-4814286D01*
X4994762Y-4816190D01*
X4990952Y-4818095D01*
X4979524Y-4818095D01*
X4975714Y-4816190D01*
X4973810Y-4814286D01*
D17*
X4344524Y-4018095D02*
X4344524Y-3978095D01*
X4367381Y-4018095D01*
X4367381Y-3978095D01*
X4407381Y-4018095D02*
X4384524Y-4018095D01*
X4395952Y-4018095D02*
X4395952Y-3978095D01*
X4392143Y-3983810D01*
X4388333Y-3987619D01*
X4384524Y-3989524D01*
M02*
