%FSLAX36Y36*%
G04 Gerber Fmt 3.6, Leading zero omitted, Abs format (unit inch)*
G04 Created by KiCad (PCBNEW (2014-jul-16 BZR unknown)-product) date Tue 13 Jan 2015 03:42:58 PM PST*
%MOIN*%
G01*
G04 APERTURE LIST*
%ADD10C,0.003937*%
%ADD11R,0.068000X0.068000*%
%ADD12C,0.068000*%
%ADD13R,0.060000X0.060000*%
%ADD14C,0.060000*%
%ADD15C,0.080000*%
%ADD16O,0.137800X0.066900*%
%ADD17R,0.620000X0.380000*%
%ADD18C,0.078700*%
%ADD19C,0.150000*%
%ADD20C,0.059055*%
%ADD21C,0.145669*%
%ADD22C,0.125000*%
G04 APERTURE END LIST*
D10*
D11*
X4500000Y-5475000D03*
D12*
X4500000Y-5575000D03*
X4500000Y-5675000D03*
D13*
X4100000Y-4750000D03*
D14*
X4200000Y-4750000D03*
X4100000Y-4850000D03*
X4200000Y-4850000D03*
X4100000Y-4950000D03*
X4200000Y-4950000D03*
X4100000Y-5050000D03*
X4200000Y-5050000D03*
X4100000Y-5150000D03*
X4200000Y-5150000D03*
D15*
X7298425Y-4075000D03*
X7101575Y-4075000D03*
X6748425Y-4075000D03*
X6551575Y-4075000D03*
X6198425Y-4075000D03*
X6001575Y-4075000D03*
X7725000Y-4748425D03*
X7725000Y-4551575D03*
X7725000Y-5348425D03*
X7725000Y-5151575D03*
D16*
X6675000Y-4625000D03*
X6675000Y-4525000D03*
X6675000Y-4725000D03*
D17*
X7145000Y-4625000D03*
D16*
X7425000Y-5250000D03*
X7425000Y-5350000D03*
X7425000Y-5150000D03*
D17*
X6955000Y-5250000D03*
D18*
X4500000Y-5350000D03*
X4500000Y-4950000D03*
D15*
X6875500Y-4950000D03*
X6674500Y-4950000D03*
X7150500Y-5575000D03*
X6949500Y-5575000D03*
D19*
X6000000Y-5795000D03*
X6000000Y-5455000D03*
X6312000Y-5795000D03*
X5688000Y-5455000D03*
X6312000Y-5455000D03*
X5688000Y-5795000D03*
D20*
X5287205Y-4475000D03*
X5385630Y-4475000D03*
X5464370Y-4475000D03*
X5562795Y-4475000D03*
X5287205Y-4371850D03*
X5385630Y-4371850D03*
X5464370Y-4371850D03*
X5562795Y-4371850D03*
D21*
X5166339Y-4581693D03*
X5683661Y-4581693D03*
X5166339Y-4358071D03*
X5683661Y-4358071D03*
D18*
X6000000Y-5025000D03*
X6400000Y-5025000D03*
X6000000Y-4825000D03*
X6400000Y-4825000D03*
X6000000Y-4625000D03*
X6400000Y-4625000D03*
X6000000Y-4425000D03*
X6400000Y-4425000D03*
D12*
X4850000Y-5650000D03*
X4950000Y-5650000D03*
X5050000Y-5650000D03*
X5150000Y-5650000D03*
X5250000Y-5650000D03*
D11*
X4850000Y-5750000D03*
D12*
X4950000Y-5750000D03*
X5050000Y-5750000D03*
X5150000Y-5750000D03*
X5250000Y-5750000D03*
D22*
X4710000Y-5615000D03*
X5240000Y-5085000D03*
D11*
X5325000Y-4800000D03*
D12*
X5425000Y-4800000D03*
X5525000Y-4800000D03*
D11*
X4625000Y-4800000D03*
D12*
X4725000Y-4800000D03*
X4825000Y-4800000D03*
D20*
X4587205Y-4475000D03*
X4685630Y-4475000D03*
X4764370Y-4475000D03*
X4862795Y-4475000D03*
X4587205Y-4371850D03*
X4685630Y-4371850D03*
X4764370Y-4371850D03*
X4862795Y-4371850D03*
D21*
X4466339Y-4581693D03*
X4983661Y-4581693D03*
X4466339Y-4358071D03*
X4983661Y-4358071D03*
M02*
