%FSLAX36Y36*%
G04 Gerber Fmt 3.6, Leading zero omitted, Abs format (unit inch)*
G04 Created by KiCad (PCBNEW (2014-jul-16 BZR unknown)-product) date Sat 24 Jan 2015 08:01:21 PM PST*
%MOIN*%
G01*
G04 APERTURE LIST*
%ADD10C,0.003937*%
%ADD11R,0.068000X0.068000*%
%ADD12C,0.068000*%
%ADD13C,0.080000*%
%ADD14R,0.060000X0.060000*%
%ADD15C,0.060000*%
%ADD16O,0.137800X0.066900*%
%ADD17C,0.078700*%
%ADD18C,0.150000*%
%ADD19R,0.088000X0.088000*%
%ADD20O,0.068000X0.068000*%
%ADD21C,0.129921*%
%ADD22C,0.059055*%
%ADD23C,0.145669*%
G04 APERTURE END LIST*
D10*
D11*
X5650000Y-5750000D03*
D12*
X5550000Y-5750000D03*
X5450000Y-5750000D03*
D11*
X4225000Y-5400000D03*
D12*
X4125000Y-5400000D03*
X4025000Y-5400000D03*
D13*
X4426575Y-5825000D03*
X4623425Y-5825000D03*
X6451575Y-5825000D03*
X6648425Y-5825000D03*
X4951575Y-5825000D03*
X5148425Y-5825000D03*
D14*
X4075000Y-4725000D03*
D15*
X4175000Y-4725000D03*
X4075000Y-4825000D03*
X4175000Y-4825000D03*
X4075000Y-4925000D03*
X4175000Y-4925000D03*
X4075000Y-5025000D03*
X4175000Y-5025000D03*
X4075000Y-5125000D03*
X4175000Y-5125000D03*
D16*
X6725000Y-4950000D03*
X6725000Y-5050000D03*
X6725000Y-4850000D03*
X6725000Y-4450000D03*
X6725000Y-4550000D03*
X6725000Y-4350000D03*
D17*
X4409449Y-4957480D03*
X4409449Y-5357480D03*
D18*
X7375000Y-5120000D03*
X7375000Y-4780000D03*
X7687000Y-5120000D03*
X7063000Y-4780000D03*
X7687000Y-4780000D03*
X7063000Y-5120000D03*
D19*
X4050000Y-4450000D03*
X4175000Y-4450000D03*
X7775000Y-5300000D03*
X5775000Y-5750000D03*
X5325000Y-5850000D03*
D11*
X6290000Y-5300000D03*
D20*
X6390000Y-5300000D03*
X6490000Y-5300000D03*
X6590000Y-5300000D03*
D11*
X5450000Y-5300000D03*
D20*
X5550000Y-5300000D03*
X5650000Y-5300000D03*
X5750000Y-5300000D03*
D11*
X4600000Y-5300000D03*
D20*
X4700000Y-5300000D03*
X4800000Y-5300000D03*
X4900000Y-5300000D03*
D13*
X6175500Y-5750000D03*
X5974500Y-5750000D03*
D17*
X5380000Y-5080000D03*
X5780000Y-5080000D03*
X5380000Y-4320000D03*
X5780000Y-4320000D03*
D11*
X4560000Y-5450000D03*
X4660000Y-5450000D03*
D12*
X4760000Y-5450000D03*
X4860000Y-5450000D03*
X4960000Y-5450000D03*
D11*
X4560000Y-4150000D03*
X4660000Y-4150000D03*
D12*
X4760000Y-4150000D03*
X4860000Y-4150000D03*
D11*
X5410000Y-5450000D03*
X5510000Y-5450000D03*
D12*
X5610000Y-5450000D03*
X5710000Y-5450000D03*
X5810000Y-5450000D03*
D11*
X5410000Y-4150000D03*
X5510000Y-4150000D03*
D12*
X5610000Y-4150000D03*
X5710000Y-4150000D03*
D11*
X6260000Y-5450000D03*
X6360000Y-5450000D03*
D12*
X6460000Y-5450000D03*
X6560000Y-5450000D03*
X6660000Y-5450000D03*
D11*
X6260000Y-4150000D03*
X6360000Y-4150000D03*
D12*
X6460000Y-4150000D03*
X6560000Y-4150000D03*
D21*
X6912205Y-5500000D03*
X7387008Y-5500000D03*
D22*
X7100787Y-5314567D03*
X7199213Y-5314567D03*
X7100787Y-5393307D03*
X7199213Y-5393307D03*
X7337795Y-4475000D03*
X7239370Y-4475000D03*
X7160630Y-4475000D03*
X7062205Y-4475000D03*
X7337795Y-4578150D03*
X7239370Y-4578150D03*
X7160630Y-4578150D03*
X7062205Y-4578150D03*
D23*
X7458661Y-4368307D03*
X6941339Y-4368307D03*
X7458661Y-4591929D03*
X6941339Y-4591929D03*
M02*
