M48
;DRILL file {kicad (2014-jul-16 BZR unknown)-product} date Sat 24 Jan 2015 08:01:19 PM PST
;FORMAT={2:4/ absolute / inch / suppress leading zeros}
FMAT,2
INCH,TZ
T1C0.036
T2C0.039
T3C0.040
T4C0.080
T5C0.090
T6C0.091
T7C0.125
T8C0.150
%
G90
G05
M72
T1
X70622Y-44750
X70622Y-45781
X71008Y-53146
X71008Y-53933
X71606Y-44750
X71606Y-45781
X71992Y-53146
X71992Y-53933
X72394Y-44750
X72394Y-45781
X73378Y-44750
X73378Y-45781
T2
X44094Y-49575
X44094Y-53575
X53800Y-43200
X53800Y-50800
X57800Y-43200
X57800Y-50800
X67250Y-43500
X67250Y-44500
X67250Y-45500
X67250Y-48500
X67250Y-49500
X67250Y-50500
T3
X40250Y-54000
X40500Y-44500
X40750Y-47250
X40750Y-48250
X40750Y-49250
X40750Y-50250
X40750Y-51250
X41250Y-54000
X41750Y-44500
X41750Y-47250
X41750Y-48250
X41750Y-49250
X41750Y-50250
X41750Y-51250
X42250Y-54000
X44266Y-58250
X45600Y-41500
X45600Y-54500
X46000Y-53000
X46234Y-58250
X46600Y-41500
X46600Y-54500
X47000Y-53000
X47600Y-41500
X47600Y-54500
X48000Y-53000
X48600Y-41500
X48600Y-54500
X49000Y-53000
X49516Y-58250
X49600Y-54500
X51484Y-58250
X53250Y-58500
X54100Y-41500
X54100Y-54500
X54500Y-53000
X54500Y-57500
X55100Y-41500
X55100Y-54500
X55500Y-53000
X55500Y-57500
X56100Y-41500
X56100Y-54500
X56500Y-53000
X56500Y-57500
X57100Y-41500
X57100Y-54500
X57500Y-53000
X57750Y-57500
X58100Y-54500
X59745Y-57500
X61755Y-57500
X62600Y-41500
X62600Y-54500
X62900Y-53000
X63600Y-41500
X63600Y-54500
X63900Y-53000
X64516Y-58250
X64600Y-41500
X64600Y-54500
X64900Y-53000
X65600Y-41500
X65600Y-54500
X65900Y-53000
X66484Y-58250
X66600Y-54500
X77750Y-53000
T4
X70630Y-47800
X70630Y-51200
X73750Y-47800
X73750Y-51200
X76870Y-47800
X76870Y-51200
T5
X44225Y-40350
X44225Y-55650
X50775Y-40350
X50775Y-55650
X52725Y-40350
X52725Y-55650
X59275Y-40350
X59275Y-55650
X61225Y-40350
X61225Y-55650
X67775Y-40350
X67775Y-55650
T6
X69122Y-55000
X69413Y-43683
X69413Y-45919
X73870Y-55000
X74587Y-43683
X74587Y-45919
T7
X41339Y-41339
X41339Y-57087
X76772Y-41339
X76772Y-57087
T8
X60650Y-44500
X60650Y-49500
T0
M30
