%FSLAX36Y36*%
G04 Gerber Fmt 3.6, Leading zero omitted, Abs format (unit inch)*
G04 Created by KiCad (PCBNEW (2014-jul-16 BZR unknown)-product) date Sat 24 Jan 2015 08:01:21 PM PST*
%MOIN*%
G01*
G04 APERTURE LIST*
%ADD10C,0.003937*%
%ADD11C,0.236220*%
%ADD12R,0.068000X0.068000*%
%ADD13C,0.068000*%
%ADD14C,0.080000*%
%ADD15R,0.060000X0.060000*%
%ADD16C,0.060000*%
%ADD17O,0.137800X0.066900*%
%ADD18R,0.620000X0.380000*%
%ADD19C,0.078700*%
%ADD20C,0.150000*%
%ADD21R,0.088000X0.088000*%
%ADD22O,0.068000X0.068000*%
%ADD23C,0.090000*%
%ADD24C,0.129921*%
%ADD25C,0.059055*%
%ADD26C,0.145669*%
%ADD27C,0.040000*%
%ADD28C,0.010000*%
G04 APERTURE END LIST*
D10*
D11*
X4133858Y-4133858D03*
X7677165Y-4133858D03*
X4133858Y-5708661D03*
X7677165Y-5708661D03*
D12*
X5650000Y-5750000D03*
D13*
X5550000Y-5750000D03*
X5450000Y-5750000D03*
D12*
X4225000Y-5400000D03*
D13*
X4125000Y-5400000D03*
X4025000Y-5400000D03*
D14*
X4426575Y-5825000D03*
X4623425Y-5825000D03*
X6451575Y-5825000D03*
X6648425Y-5825000D03*
X4951575Y-5825000D03*
X5148425Y-5825000D03*
D15*
X4075000Y-4725000D03*
D16*
X4175000Y-4725000D03*
X4075000Y-4825000D03*
X4175000Y-4825000D03*
X4075000Y-4925000D03*
X4175000Y-4925000D03*
X4075000Y-5025000D03*
X4175000Y-5025000D03*
X4075000Y-5125000D03*
X4175000Y-5125000D03*
D17*
X6725000Y-4950000D03*
X6725000Y-5050000D03*
X6725000Y-4850000D03*
D18*
X6255000Y-4950000D03*
D17*
X6725000Y-4450000D03*
X6725000Y-4550000D03*
X6725000Y-4350000D03*
D18*
X6255000Y-4450000D03*
D19*
X4409449Y-4957480D03*
X4409449Y-5357480D03*
D20*
X7375000Y-5120000D03*
X7375000Y-4780000D03*
X7687000Y-5120000D03*
X7063000Y-4780000D03*
X7687000Y-4780000D03*
X7063000Y-5120000D03*
D21*
X4050000Y-4450000D03*
X4175000Y-4450000D03*
X7775000Y-5300000D03*
X5775000Y-5750000D03*
X5325000Y-5850000D03*
D12*
X6290000Y-5300000D03*
D22*
X6390000Y-5300000D03*
X6490000Y-5300000D03*
X6590000Y-5300000D03*
D12*
X5450000Y-5300000D03*
D22*
X5550000Y-5300000D03*
X5650000Y-5300000D03*
X5750000Y-5300000D03*
D12*
X4600000Y-5300000D03*
D22*
X4700000Y-5300000D03*
X4800000Y-5300000D03*
X4900000Y-5300000D03*
D14*
X6175500Y-5750000D03*
X5974500Y-5750000D03*
D19*
X5380000Y-5080000D03*
X5780000Y-5080000D03*
X5380000Y-4320000D03*
X5780000Y-4320000D03*
D23*
X4422500Y-5565000D03*
X4422500Y-4035000D03*
X5077500Y-5565000D03*
X5077500Y-4035000D03*
D12*
X4560000Y-5450000D03*
X4660000Y-5450000D03*
D13*
X4760000Y-5450000D03*
X4860000Y-5450000D03*
X4960000Y-5450000D03*
D12*
X4560000Y-4150000D03*
X4660000Y-4150000D03*
D13*
X4760000Y-4150000D03*
X4860000Y-4150000D03*
D23*
X5272500Y-5565000D03*
X5272500Y-4035000D03*
X5927500Y-5565000D03*
X5927500Y-4035000D03*
D12*
X5410000Y-5450000D03*
X5510000Y-5450000D03*
D13*
X5610000Y-5450000D03*
X5710000Y-5450000D03*
X5810000Y-5450000D03*
D12*
X5410000Y-4150000D03*
X5510000Y-4150000D03*
D13*
X5610000Y-4150000D03*
X5710000Y-4150000D03*
D23*
X6122500Y-5565000D03*
X6122500Y-4035000D03*
X6777500Y-5565000D03*
X6777500Y-4035000D03*
D12*
X6260000Y-5450000D03*
X6360000Y-5450000D03*
D13*
X6460000Y-5450000D03*
X6560000Y-5450000D03*
X6660000Y-5450000D03*
D12*
X6260000Y-4150000D03*
X6360000Y-4150000D03*
D13*
X6460000Y-4150000D03*
X6560000Y-4150000D03*
D24*
X6912205Y-5500000D03*
X7387008Y-5500000D03*
D25*
X7100787Y-5314567D03*
X7199213Y-5314567D03*
X7100787Y-5393307D03*
X7199213Y-5393307D03*
X7337795Y-4475000D03*
X7239370Y-4475000D03*
X7160630Y-4475000D03*
X7062205Y-4475000D03*
X7337795Y-4578150D03*
X7239370Y-4578150D03*
X7160630Y-4578150D03*
X7062205Y-4578150D03*
D26*
X7458661Y-4368307D03*
X6941339Y-4368307D03*
X7458661Y-4591929D03*
X6941339Y-4591929D03*
D27*
X5650000Y-5750000D02*
X5650000Y-5600000D01*
X5610000Y-5560000D02*
X5610000Y-5450000D01*
X5650000Y-5600000D02*
X5610000Y-5560000D01*
X4760000Y-5390000D02*
X4800000Y-5350000D01*
X4800000Y-5350000D02*
X4800000Y-5300000D01*
X4760000Y-5450000D02*
X4760000Y-5390000D01*
X5610000Y-5415000D02*
X5650000Y-5375000D01*
X5610000Y-5450000D02*
X5610000Y-5415000D01*
X5650000Y-5375000D02*
X5650000Y-5300000D01*
X6460000Y-5380000D02*
X6490000Y-5350000D01*
X6490000Y-5350000D02*
X6490000Y-5300000D01*
X6460000Y-5450000D02*
X6460000Y-5380000D01*
X5450000Y-5750000D02*
X5450000Y-5610000D01*
X5450000Y-5610000D02*
X5340000Y-5500000D01*
X5450000Y-5230000D02*
X5610000Y-5070000D01*
X5610000Y-5070000D02*
X5610000Y-4150000D01*
X5450000Y-5300000D02*
X5450000Y-5230000D01*
X5340000Y-5500000D02*
X5340000Y-5340000D01*
X5340000Y-5340000D02*
X5380000Y-5300000D01*
X5380000Y-5300000D02*
X5450000Y-5300000D01*
D28*
X4020000Y-4980000D02*
X4020000Y-5160000D01*
X4020000Y-5160000D02*
X4125000Y-5265000D01*
X4125000Y-5265000D02*
X4125000Y-5400000D01*
X4075000Y-4925000D02*
X4020000Y-4980000D01*
D27*
X6800000Y-4450000D02*
X6825000Y-4475000D01*
X6825000Y-4475000D02*
X6825000Y-4650000D01*
X6825000Y-4650000D02*
X6955000Y-4780000D01*
X6955000Y-4780000D02*
X7063000Y-4780000D01*
X6725000Y-4450000D02*
X6800000Y-4450000D01*
X6900000Y-5825000D02*
X7525000Y-5200000D01*
X7525000Y-5200000D02*
X7525000Y-4930000D01*
X7525000Y-4930000D02*
X7375000Y-4780000D01*
X6648425Y-5825000D02*
X6900000Y-5825000D01*
X4175000Y-4450000D02*
X4990000Y-4450000D01*
X5780000Y-4040000D02*
X5920000Y-4180000D01*
X5400000Y-4040000D02*
X5780000Y-4040000D01*
X4990000Y-4450000D02*
X5400000Y-4040000D01*
X7337795Y-4578150D02*
X7337795Y-4475000D01*
X6460000Y-4080000D02*
X6420000Y-4040000D01*
X6420000Y-4040000D02*
X6240000Y-4040000D01*
X6240000Y-4040000D02*
X6100000Y-4180000D01*
X6100000Y-4180000D02*
X5920000Y-4180000D01*
X5920000Y-4180000D02*
X5880000Y-4220000D01*
X5880000Y-4220000D02*
X5880000Y-5200000D01*
X5880000Y-5200000D02*
X5980000Y-5300000D01*
X5980000Y-5300000D02*
X6290000Y-5300000D01*
X6460000Y-4150000D02*
X6460000Y-4080000D01*
X7337795Y-4437795D02*
X7050000Y-4150000D01*
X7050000Y-4150000D02*
X6560000Y-4150000D01*
X7337795Y-4475000D02*
X7337795Y-4437795D01*
X4075000Y-4725000D02*
X4075000Y-4625000D01*
X4050000Y-4600000D02*
X4050000Y-4450000D01*
X4075000Y-4625000D02*
X4050000Y-4600000D01*
X4600000Y-4960000D02*
X4365000Y-4725000D01*
X4365000Y-4725000D02*
X4175000Y-4725000D01*
X4600000Y-5300000D02*
X4600000Y-4960000D01*
X7199213Y-5049213D02*
X7100000Y-4950000D01*
X7100000Y-4950000D02*
X6725000Y-4950000D01*
X7199213Y-5314567D02*
X7199213Y-5049213D01*
X6725000Y-4725000D02*
X6725000Y-4850000D01*
X6625000Y-4625000D02*
X6725000Y-4725000D01*
X6625000Y-4400000D02*
X6625000Y-4625000D01*
X6675000Y-4350000D02*
X6625000Y-4400000D01*
X6725000Y-4350000D02*
X6675000Y-4350000D01*
X6350000Y-5750000D02*
X6525000Y-5575000D01*
X6525000Y-5575000D02*
X6650000Y-5575000D01*
X6650000Y-5575000D02*
X6750000Y-5475000D01*
X6750000Y-5475000D02*
X6750000Y-5250000D01*
X6750000Y-5250000D02*
X6625000Y-5125000D01*
X6625000Y-5125000D02*
X6625000Y-4875000D01*
X6625000Y-4875000D02*
X6650000Y-4850000D01*
X6650000Y-4850000D02*
X6725000Y-4850000D01*
X6175500Y-5750000D02*
X6350000Y-5750000D01*
X4805000Y-5825000D02*
X4680000Y-5700000D01*
X4680000Y-5700000D02*
X4380000Y-5700000D01*
X4380000Y-5700000D02*
X4370000Y-5690000D01*
X4320000Y-5270000D02*
X4175000Y-5125000D01*
X4951575Y-5825000D02*
X4805000Y-5825000D01*
X4320000Y-5640000D02*
X4320000Y-5270000D01*
X4370000Y-5690000D02*
X4320000Y-5640000D01*
D28*
G36*
X7847047Y-5878543D02*
X7820300Y-5878543D01*
X7820300Y-5680320D01*
X7798559Y-5627702D01*
X7774000Y-5603100D01*
X7774000Y-5370250D01*
X7774000Y-5301000D01*
X7774000Y-5299000D01*
X7774000Y-5229750D01*
X7765250Y-5221000D01*
X7724038Y-5221000D01*
X7711174Y-5226328D01*
X7701328Y-5236174D01*
X7696000Y-5249038D01*
X7696000Y-5262962D01*
X7696000Y-5290250D01*
X7704750Y-5299000D01*
X7774000Y-5299000D01*
X7774000Y-5301000D01*
X7704750Y-5301000D01*
X7696000Y-5309750D01*
X7696000Y-5337038D01*
X7696000Y-5350962D01*
X7701328Y-5363826D01*
X7711174Y-5373672D01*
X7724038Y-5379000D01*
X7765250Y-5379000D01*
X7774000Y-5370250D01*
X7774000Y-5603100D01*
X7758337Y-5587409D01*
X7705757Y-5565576D01*
X7648824Y-5565526D01*
X7596206Y-5587268D01*
X7555913Y-5627490D01*
X7534080Y-5680070D01*
X7534030Y-5737003D01*
X7555772Y-5789621D01*
X7595994Y-5829914D01*
X7648574Y-5851747D01*
X7705507Y-5851796D01*
X7758125Y-5830055D01*
X7798418Y-5789833D01*
X7820251Y-5737253D01*
X7820300Y-5680320D01*
X7820300Y-5878543D01*
X7487511Y-5878543D01*
X7487511Y-5483069D01*
X7473381Y-5445897D01*
X7470046Y-5440905D01*
X7453592Y-5434830D01*
X7388422Y-5500000D01*
X7453592Y-5565170D01*
X7470046Y-5559095D01*
X7486339Y-5522819D01*
X7487511Y-5483069D01*
X7487511Y-5878543D01*
X7452177Y-5878543D01*
X7452177Y-5566584D01*
X7387008Y-5501414D01*
X7321838Y-5566584D01*
X7327913Y-5583038D01*
X7364189Y-5599332D01*
X7403938Y-5600503D01*
X7441110Y-5586374D01*
X7446102Y-5583038D01*
X7452177Y-5566584D01*
X7452177Y-5878543D01*
X6686793Y-5878543D01*
X6695351Y-5870000D01*
X6900000Y-5870000D01*
X6917221Y-5866575D01*
X6931820Y-5856820D01*
X7286954Y-5501685D01*
X7286505Y-5516931D01*
X7300634Y-5554103D01*
X7303970Y-5559095D01*
X7320424Y-5565170D01*
X7385594Y-5500000D01*
X7385037Y-5499443D01*
X7386451Y-5498029D01*
X7387008Y-5498586D01*
X7452177Y-5433416D01*
X7446102Y-5416962D01*
X7409827Y-5400668D01*
X7388597Y-5400043D01*
X7556820Y-5231820D01*
X7566575Y-5217221D01*
X7570000Y-5200000D01*
X7570000Y-4930000D01*
X7567094Y-4915391D01*
X7567094Y-4573743D01*
X7567094Y-4350121D01*
X7551880Y-4310010D01*
X7548195Y-4304493D01*
X7530922Y-4297460D01*
X7529508Y-4298875D01*
X7529508Y-4296046D01*
X7522475Y-4278774D01*
X7483355Y-4261169D01*
X7440475Y-4259874D01*
X7400364Y-4275088D01*
X7394848Y-4278774D01*
X7387815Y-4296046D01*
X7458661Y-4366893D01*
X7529508Y-4296046D01*
X7529508Y-4298875D01*
X7460076Y-4368307D01*
X7530922Y-4439154D01*
X7548195Y-4432121D01*
X7565800Y-4393000D01*
X7567094Y-4350121D01*
X7567094Y-4573743D01*
X7551880Y-4533632D01*
X7548195Y-4528115D01*
X7530922Y-4521082D01*
X7529508Y-4522497D01*
X7529508Y-4519668D01*
X7522475Y-4502396D01*
X7483355Y-4484791D01*
X7440475Y-4483496D01*
X7400364Y-4498710D01*
X7394848Y-4502396D01*
X7387815Y-4519668D01*
X7382795Y-4514649D01*
X7382795Y-4507125D01*
X7383995Y-4505928D01*
X7392313Y-4485894D01*
X7392332Y-4464201D01*
X7384101Y-4444281D01*
X7387815Y-4440568D01*
X7394848Y-4457840D01*
X7433968Y-4475445D01*
X7476848Y-4476740D01*
X7516959Y-4461526D01*
X7522475Y-4457840D01*
X7529508Y-4440568D01*
X7458661Y-4369721D01*
X7458105Y-4370278D01*
X7456690Y-4368864D01*
X7457247Y-4368307D01*
X7386401Y-4297460D01*
X7369128Y-4304493D01*
X7351523Y-4343614D01*
X7350229Y-4386494D01*
X7350287Y-4386648D01*
X7081820Y-4118180D01*
X7067221Y-4108425D01*
X7050000Y-4105000D01*
X6791392Y-4105000D01*
X6817100Y-4094378D01*
X6836809Y-4074704D01*
X6847488Y-4048985D01*
X6847512Y-4021137D01*
X6836878Y-3995400D01*
X6817204Y-3975691D01*
X6791485Y-3965012D01*
X6763637Y-3964988D01*
X6737900Y-3975622D01*
X6718191Y-3995296D01*
X6707512Y-4021015D01*
X6707488Y-4048863D01*
X6718122Y-4074600D01*
X6737796Y-4094309D01*
X6763515Y-4104988D01*
X6777461Y-4105000D01*
X6598444Y-4105000D01*
X6593464Y-4100011D01*
X6571787Y-4091010D01*
X6548316Y-4090990D01*
X6526623Y-4099953D01*
X6510011Y-4116536D01*
X6509996Y-4116572D01*
X6505000Y-4111567D01*
X6505000Y-4080000D01*
X6501575Y-4062779D01*
X6491820Y-4048180D01*
X6451820Y-4008180D01*
X6437221Y-3998425D01*
X6420000Y-3995000D01*
X6240000Y-3995000D01*
X6222779Y-3998425D01*
X6208180Y-4008180D01*
X6192510Y-4023851D01*
X6192512Y-4021137D01*
X6181878Y-3995400D01*
X6162204Y-3975691D01*
X6136485Y-3965012D01*
X6108637Y-3964988D01*
X6082900Y-3975622D01*
X6063191Y-3995296D01*
X6052512Y-4021015D01*
X6052488Y-4048863D01*
X6063122Y-4074600D01*
X6082796Y-4094309D01*
X6108515Y-4104988D01*
X6111370Y-4104990D01*
X6081360Y-4135000D01*
X5938640Y-4135000D01*
X5905157Y-4101517D01*
X5913515Y-4104988D01*
X5941363Y-4105012D01*
X5967100Y-4094378D01*
X5986809Y-4074704D01*
X5997488Y-4048985D01*
X5997512Y-4021137D01*
X5986878Y-3995400D01*
X5967204Y-3975691D01*
X5941485Y-3965012D01*
X5913637Y-3964988D01*
X5887900Y-3975622D01*
X5868191Y-3995296D01*
X5857512Y-4021015D01*
X5857488Y-4048863D01*
X5860998Y-4057359D01*
X5811820Y-4008180D01*
X5797221Y-3998425D01*
X5780000Y-3995000D01*
X5400000Y-3995000D01*
X5382779Y-3998425D01*
X5368180Y-4008180D01*
X5342501Y-4033859D01*
X5342512Y-4021137D01*
X5331878Y-3995400D01*
X5312204Y-3975691D01*
X5286485Y-3965012D01*
X5258637Y-3964988D01*
X5232900Y-3975622D01*
X5213191Y-3995296D01*
X5202512Y-4021015D01*
X5202488Y-4048863D01*
X5213122Y-4074600D01*
X5232796Y-4094309D01*
X5258515Y-4104988D01*
X5271361Y-4104999D01*
X5147512Y-4228848D01*
X5147512Y-4021137D01*
X5136878Y-3995400D01*
X5117204Y-3975691D01*
X5091485Y-3965012D01*
X5063637Y-3964988D01*
X5037900Y-3975622D01*
X5018191Y-3995296D01*
X5007512Y-4021015D01*
X5007488Y-4048863D01*
X5018122Y-4074600D01*
X5037796Y-4094309D01*
X5063515Y-4104988D01*
X5091363Y-4105012D01*
X5117100Y-4094378D01*
X5136809Y-4074704D01*
X5147488Y-4048985D01*
X5147512Y-4021137D01*
X5147512Y-4228848D01*
X4971360Y-4405000D01*
X4919010Y-4405000D01*
X4919010Y-4138316D01*
X4910047Y-4116623D01*
X4893464Y-4100011D01*
X4871787Y-4091010D01*
X4848316Y-4090990D01*
X4826623Y-4099953D01*
X4810011Y-4116536D01*
X4809996Y-4116572D01*
X4793464Y-4100011D01*
X4771787Y-4091010D01*
X4748316Y-4090990D01*
X4726623Y-4099953D01*
X4725642Y-4100932D01*
X4723672Y-4096174D01*
X4713826Y-4086328D01*
X4700962Y-4081000D01*
X4687038Y-4081000D01*
X4669750Y-4081000D01*
X4661000Y-4089750D01*
X4661000Y-4149000D01*
X4661787Y-4149000D01*
X4661787Y-4151000D01*
X4661000Y-4151000D01*
X4661000Y-4210250D01*
X4669750Y-4219000D01*
X4687038Y-4219000D01*
X4700962Y-4219000D01*
X4713826Y-4213672D01*
X4723672Y-4203826D01*
X4725635Y-4199086D01*
X4726536Y-4199989D01*
X4748213Y-4208990D01*
X4771684Y-4209010D01*
X4793377Y-4200047D01*
X4809989Y-4183464D01*
X4810004Y-4183428D01*
X4826536Y-4199989D01*
X4848213Y-4208990D01*
X4871684Y-4209010D01*
X4893377Y-4200047D01*
X4909989Y-4183464D01*
X4918990Y-4161787D01*
X4919010Y-4138316D01*
X4919010Y-4405000D01*
X4659000Y-4405000D01*
X4659000Y-4210250D01*
X4659000Y-4151000D01*
X4659000Y-4149000D01*
X4659000Y-4089750D01*
X4650250Y-4081000D01*
X4632962Y-4081000D01*
X4619038Y-4081000D01*
X4610000Y-4084744D01*
X4600962Y-4081000D01*
X4587038Y-4081000D01*
X4569750Y-4081000D01*
X4561000Y-4089750D01*
X4561000Y-4149000D01*
X4599750Y-4149000D01*
X4620250Y-4149000D01*
X4659000Y-4149000D01*
X4659000Y-4151000D01*
X4620250Y-4151000D01*
X4599750Y-4151000D01*
X4561000Y-4151000D01*
X4561000Y-4210250D01*
X4569750Y-4219000D01*
X4587038Y-4219000D01*
X4600962Y-4219000D01*
X4610000Y-4215256D01*
X4619038Y-4219000D01*
X4632962Y-4219000D01*
X4650250Y-4219000D01*
X4659000Y-4210250D01*
X4659000Y-4405000D01*
X4559000Y-4405000D01*
X4559000Y-4210250D01*
X4559000Y-4151000D01*
X4559000Y-4149000D01*
X4559000Y-4089750D01*
X4550250Y-4081000D01*
X4532962Y-4081000D01*
X4519038Y-4081000D01*
X4506174Y-4086328D01*
X4496328Y-4096174D01*
X4492512Y-4105387D01*
X4492512Y-4021137D01*
X4481878Y-3995400D01*
X4462204Y-3975691D01*
X4436485Y-3965012D01*
X4408637Y-3964988D01*
X4382900Y-3975622D01*
X4363191Y-3995296D01*
X4352512Y-4021015D01*
X4352488Y-4048863D01*
X4363122Y-4074600D01*
X4382796Y-4094309D01*
X4408515Y-4104988D01*
X4436363Y-4105012D01*
X4462100Y-4094378D01*
X4481809Y-4074704D01*
X4492488Y-4048985D01*
X4492512Y-4021137D01*
X4492512Y-4105387D01*
X4491000Y-4109038D01*
X4491000Y-4140250D01*
X4499750Y-4149000D01*
X4559000Y-4149000D01*
X4559000Y-4151000D01*
X4499750Y-4151000D01*
X4491000Y-4159750D01*
X4491000Y-4190962D01*
X4496328Y-4203826D01*
X4506174Y-4213672D01*
X4519038Y-4219000D01*
X4532962Y-4219000D01*
X4550250Y-4219000D01*
X4559000Y-4210250D01*
X4559000Y-4405000D01*
X4276993Y-4405000D01*
X4276993Y-4105517D01*
X4255252Y-4052899D01*
X4215030Y-4012606D01*
X4162450Y-3990773D01*
X4105517Y-3990723D01*
X4052899Y-4012465D01*
X4012606Y-4052687D01*
X3990773Y-4105267D01*
X3990723Y-4162200D01*
X4012465Y-4214818D01*
X4052687Y-4255110D01*
X4105267Y-4276944D01*
X4162200Y-4276993D01*
X4214818Y-4255252D01*
X4255110Y-4215030D01*
X4276944Y-4162450D01*
X4276993Y-4105517D01*
X4276993Y-4405000D01*
X4244000Y-4405000D01*
X4244000Y-4401027D01*
X4240194Y-4391839D01*
X4233161Y-4384806D01*
X4223973Y-4381000D01*
X4214027Y-4381000D01*
X4126027Y-4381000D01*
X4116839Y-4384806D01*
X4112500Y-4389145D01*
X4108161Y-4384806D01*
X4098973Y-4381000D01*
X4089027Y-4381000D01*
X4001027Y-4381000D01*
X3991839Y-4384806D01*
X3984806Y-4391839D01*
X3981000Y-4401027D01*
X3981000Y-4410973D01*
X3981000Y-4498973D01*
X3984806Y-4508161D01*
X3991839Y-4515194D01*
X4001027Y-4519000D01*
X4005000Y-4519000D01*
X4005000Y-4600000D01*
X4008425Y-4617221D01*
X4018180Y-4631820D01*
X4030000Y-4643640D01*
X4030000Y-4674645D01*
X4023806Y-4680839D01*
X4020000Y-4690027D01*
X4020000Y-4699973D01*
X4020000Y-4759973D01*
X4023806Y-4769161D01*
X4030839Y-4776194D01*
X4035801Y-4778250D01*
X4035038Y-4783624D01*
X4075000Y-4823586D01*
X4114962Y-4783624D01*
X4114199Y-4778250D01*
X4119161Y-4776194D01*
X4126194Y-4769161D01*
X4130000Y-4759973D01*
X4130000Y-4757771D01*
X4140756Y-4768546D01*
X4139524Y-4769022D01*
X4136859Y-4770802D01*
X4135038Y-4783624D01*
X4175000Y-4823586D01*
X4214962Y-4783624D01*
X4213141Y-4770802D01*
X4211330Y-4770000D01*
X4346360Y-4770000D01*
X4555000Y-4978640D01*
X4555000Y-5243497D01*
X4551839Y-5244806D01*
X4544806Y-5251839D01*
X4541000Y-5261027D01*
X4541000Y-5270973D01*
X4541000Y-5338973D01*
X4544806Y-5348161D01*
X4551839Y-5355194D01*
X4561027Y-5359000D01*
X4570973Y-5359000D01*
X4638973Y-5359000D01*
X4648161Y-5355194D01*
X4653852Y-5349504D01*
X4663099Y-5358304D01*
X4688219Y-5367987D01*
X4699000Y-5360243D01*
X4699000Y-5301000D01*
X4698213Y-5301000D01*
X4698213Y-5299000D01*
X4699000Y-5299000D01*
X4699000Y-5239757D01*
X4688219Y-5232013D01*
X4663099Y-5241696D01*
X4653852Y-5250496D01*
X4648161Y-5244806D01*
X4645000Y-5243497D01*
X4645000Y-4960000D01*
X4641575Y-4942779D01*
X4631820Y-4928180D01*
X4396820Y-4693180D01*
X4382221Y-4683425D01*
X4365000Y-4680000D01*
X4207792Y-4680000D01*
X4206196Y-4678400D01*
X4185988Y-4670010D01*
X4164108Y-4669990D01*
X4143886Y-4678346D01*
X4130000Y-4692208D01*
X4130000Y-4690027D01*
X4126194Y-4680839D01*
X4120000Y-4674645D01*
X4120000Y-4625000D01*
X4116575Y-4607779D01*
X4106820Y-4593180D01*
X4095000Y-4581360D01*
X4095000Y-4519000D01*
X4098973Y-4519000D01*
X4108161Y-4515194D01*
X4112500Y-4510855D01*
X4116839Y-4515194D01*
X4126027Y-4519000D01*
X4135973Y-4519000D01*
X4223973Y-4519000D01*
X4233161Y-4515194D01*
X4240194Y-4508161D01*
X4244000Y-4498973D01*
X4244000Y-4495000D01*
X4990000Y-4495000D01*
X5007221Y-4491575D01*
X5021820Y-4481820D01*
X5341000Y-4162640D01*
X5341000Y-4190962D01*
X5346328Y-4203826D01*
X5356174Y-4213672D01*
X5369038Y-4219000D01*
X5382962Y-4219000D01*
X5400250Y-4219000D01*
X5409000Y-4210250D01*
X5409000Y-4151000D01*
X5408213Y-4151000D01*
X5408213Y-4149000D01*
X5409000Y-4149000D01*
X5409000Y-4148213D01*
X5411000Y-4148213D01*
X5411000Y-4149000D01*
X5449750Y-4149000D01*
X5470250Y-4149000D01*
X5509000Y-4149000D01*
X5509000Y-4148213D01*
X5511000Y-4148213D01*
X5511000Y-4149000D01*
X5511787Y-4149000D01*
X5511787Y-4151000D01*
X5511000Y-4151000D01*
X5511000Y-4210250D01*
X5519750Y-4219000D01*
X5537038Y-4219000D01*
X5550962Y-4219000D01*
X5563826Y-4213672D01*
X5565000Y-4212497D01*
X5565000Y-5051360D01*
X5509000Y-5107360D01*
X5509000Y-4210250D01*
X5509000Y-4151000D01*
X5470250Y-4151000D01*
X5449750Y-4151000D01*
X5411000Y-4151000D01*
X5411000Y-4210250D01*
X5419750Y-4219000D01*
X5437038Y-4219000D01*
X5450962Y-4219000D01*
X5460000Y-4215256D01*
X5469038Y-4219000D01*
X5482962Y-4219000D01*
X5500250Y-4219000D01*
X5509000Y-4210250D01*
X5509000Y-5107360D01*
X5444361Y-5171999D01*
X5444361Y-5067256D01*
X5444361Y-4307256D01*
X5434585Y-4283596D01*
X5416499Y-4265479D01*
X5392856Y-4255661D01*
X5367256Y-4255639D01*
X5343596Y-4265415D01*
X5325479Y-4283501D01*
X5315661Y-4307144D01*
X5315639Y-4332744D01*
X5325415Y-4356404D01*
X5343501Y-4374521D01*
X5367144Y-4384339D01*
X5392744Y-4384361D01*
X5416404Y-4374585D01*
X5434521Y-4356499D01*
X5444339Y-4332856D01*
X5444361Y-4307256D01*
X5444361Y-5067256D01*
X5434585Y-5043596D01*
X5416499Y-5025479D01*
X5392856Y-5015661D01*
X5367256Y-5015639D01*
X5343596Y-5025415D01*
X5325479Y-5043501D01*
X5315661Y-5067144D01*
X5315639Y-5092744D01*
X5325415Y-5116404D01*
X5343501Y-5134521D01*
X5367144Y-5144339D01*
X5392744Y-5144361D01*
X5416404Y-5134585D01*
X5434521Y-5116499D01*
X5444339Y-5092856D01*
X5444361Y-5067256D01*
X5444361Y-5171999D01*
X5418180Y-5198180D01*
X5408425Y-5212779D01*
X5405000Y-5230000D01*
X5405000Y-5243497D01*
X5401839Y-5244806D01*
X5394806Y-5251839D01*
X5393497Y-5255000D01*
X5380000Y-5255000D01*
X5362779Y-5258425D01*
X5348180Y-5268180D01*
X5308180Y-5308180D01*
X5298425Y-5322779D01*
X5295000Y-5340000D01*
X5295000Y-5498548D01*
X5286485Y-5495012D01*
X5258637Y-5494988D01*
X5232900Y-5505622D01*
X5213191Y-5525296D01*
X5202512Y-5551015D01*
X5202488Y-5578863D01*
X5213122Y-5604600D01*
X5232796Y-5624309D01*
X5258515Y-5634988D01*
X5286363Y-5635012D01*
X5312100Y-5624378D01*
X5331809Y-5604704D01*
X5342488Y-5578985D01*
X5342499Y-5566139D01*
X5405000Y-5628640D01*
X5405000Y-5711556D01*
X5400011Y-5716536D01*
X5391010Y-5738213D01*
X5390990Y-5761684D01*
X5399953Y-5783377D01*
X5416536Y-5799989D01*
X5438213Y-5808990D01*
X5461684Y-5809010D01*
X5483377Y-5800047D01*
X5499989Y-5783464D01*
X5500004Y-5783428D01*
X5516536Y-5799989D01*
X5538213Y-5808990D01*
X5561684Y-5809010D01*
X5583377Y-5800047D01*
X5592015Y-5791424D01*
X5594806Y-5798161D01*
X5601839Y-5805194D01*
X5611027Y-5809000D01*
X5620973Y-5809000D01*
X5688973Y-5809000D01*
X5698161Y-5805194D01*
X5705194Y-5798161D01*
X5706000Y-5796215D01*
X5706000Y-5798973D01*
X5709806Y-5808161D01*
X5716839Y-5815194D01*
X5726027Y-5819000D01*
X5735973Y-5819000D01*
X5823973Y-5819000D01*
X5833161Y-5815194D01*
X5840194Y-5808161D01*
X5844000Y-5798973D01*
X5844000Y-5789027D01*
X5844000Y-5701027D01*
X5840194Y-5691839D01*
X5833161Y-5684806D01*
X5823973Y-5681000D01*
X5814027Y-5681000D01*
X5726027Y-5681000D01*
X5716839Y-5684806D01*
X5709806Y-5691839D01*
X5706000Y-5701027D01*
X5706000Y-5703785D01*
X5705194Y-5701839D01*
X5698161Y-5694806D01*
X5695000Y-5693497D01*
X5695000Y-5600000D01*
X5691575Y-5582779D01*
X5681820Y-5568180D01*
X5655000Y-5541360D01*
X5655000Y-5488444D01*
X5659989Y-5483464D01*
X5660004Y-5483428D01*
X5676536Y-5499989D01*
X5698213Y-5508990D01*
X5721684Y-5509010D01*
X5743377Y-5500047D01*
X5759989Y-5483464D01*
X5760004Y-5483428D01*
X5776536Y-5499989D01*
X5798213Y-5508990D01*
X5821684Y-5509010D01*
X5843377Y-5500047D01*
X5859989Y-5483464D01*
X5868990Y-5461787D01*
X5869010Y-5438316D01*
X5860047Y-5416623D01*
X5843464Y-5400011D01*
X5821787Y-5391010D01*
X5798316Y-5390990D01*
X5776623Y-5399953D01*
X5760011Y-5416536D01*
X5759996Y-5416572D01*
X5743464Y-5400011D01*
X5721787Y-5391010D01*
X5698316Y-5390990D01*
X5690140Y-5394368D01*
X5691575Y-5392221D01*
X5695000Y-5375000D01*
X5695000Y-5338539D01*
X5700000Y-5331056D01*
X5707125Y-5341719D01*
X5726266Y-5354509D01*
X5748844Y-5359000D01*
X5751156Y-5359000D01*
X5773734Y-5354509D01*
X5792875Y-5341719D01*
X5805665Y-5322578D01*
X5810156Y-5300000D01*
X5805665Y-5277422D01*
X5792875Y-5258281D01*
X5773734Y-5245491D01*
X5751156Y-5241000D01*
X5748844Y-5241000D01*
X5726266Y-5245491D01*
X5707125Y-5258281D01*
X5700000Y-5268944D01*
X5692875Y-5258281D01*
X5673734Y-5245491D01*
X5651156Y-5241000D01*
X5648844Y-5241000D01*
X5626266Y-5245491D01*
X5607125Y-5258281D01*
X5606038Y-5259907D01*
X5586901Y-5241696D01*
X5561781Y-5232013D01*
X5551000Y-5239757D01*
X5551000Y-5299000D01*
X5551787Y-5299000D01*
X5551787Y-5301000D01*
X5551000Y-5301000D01*
X5551000Y-5360243D01*
X5561781Y-5367987D01*
X5586901Y-5358304D01*
X5605000Y-5341080D01*
X5605000Y-5356360D01*
X5578180Y-5383180D01*
X5571170Y-5393672D01*
X5563826Y-5386328D01*
X5550962Y-5381000D01*
X5537038Y-5381000D01*
X5519750Y-5381000D01*
X5511000Y-5389750D01*
X5511000Y-5449000D01*
X5511787Y-5449000D01*
X5511787Y-5451000D01*
X5511000Y-5451000D01*
X5511000Y-5510250D01*
X5519750Y-5519000D01*
X5537038Y-5519000D01*
X5550962Y-5519000D01*
X5563826Y-5513672D01*
X5565000Y-5512497D01*
X5565000Y-5560000D01*
X5568425Y-5577221D01*
X5578180Y-5591820D01*
X5605000Y-5618640D01*
X5605000Y-5693497D01*
X5601839Y-5694806D01*
X5594806Y-5701839D01*
X5592015Y-5708577D01*
X5583464Y-5700011D01*
X5561787Y-5691010D01*
X5538316Y-5690990D01*
X5516623Y-5699953D01*
X5500011Y-5716536D01*
X5499996Y-5716572D01*
X5495000Y-5711567D01*
X5495000Y-5610000D01*
X5491575Y-5592779D01*
X5481820Y-5578180D01*
X5422640Y-5519000D01*
X5437038Y-5519000D01*
X5450962Y-5519000D01*
X5460000Y-5515256D01*
X5469038Y-5519000D01*
X5482962Y-5519000D01*
X5500250Y-5519000D01*
X5509000Y-5510250D01*
X5509000Y-5451000D01*
X5509000Y-5449000D01*
X5509000Y-5389750D01*
X5500250Y-5381000D01*
X5482962Y-5381000D01*
X5469038Y-5381000D01*
X5460000Y-5384744D01*
X5450962Y-5381000D01*
X5437038Y-5381000D01*
X5419750Y-5381000D01*
X5411000Y-5389750D01*
X5411000Y-5449000D01*
X5449750Y-5449000D01*
X5470250Y-5449000D01*
X5509000Y-5449000D01*
X5509000Y-5451000D01*
X5470250Y-5451000D01*
X5449750Y-5451000D01*
X5411000Y-5451000D01*
X5411000Y-5451787D01*
X5409000Y-5451787D01*
X5409000Y-5451000D01*
X5408213Y-5451000D01*
X5408213Y-5449000D01*
X5409000Y-5449000D01*
X5409000Y-5389750D01*
X5400250Y-5381000D01*
X5385000Y-5381000D01*
X5385000Y-5358640D01*
X5395142Y-5348497D01*
X5401839Y-5355194D01*
X5411027Y-5359000D01*
X5420973Y-5359000D01*
X5488973Y-5359000D01*
X5498161Y-5355194D01*
X5503852Y-5349504D01*
X5513099Y-5358304D01*
X5538219Y-5367987D01*
X5549000Y-5360243D01*
X5549000Y-5301000D01*
X5548213Y-5301000D01*
X5548213Y-5299000D01*
X5549000Y-5299000D01*
X5549000Y-5239757D01*
X5538219Y-5232013D01*
X5513099Y-5241696D01*
X5503852Y-5250496D01*
X5498497Y-5245142D01*
X5641820Y-5101820D01*
X5651575Y-5087221D01*
X5655000Y-5070000D01*
X5655000Y-4188444D01*
X5659989Y-4183464D01*
X5660004Y-4183428D01*
X5676536Y-4199989D01*
X5698213Y-4208990D01*
X5721684Y-4209010D01*
X5743377Y-4200047D01*
X5759989Y-4183464D01*
X5768990Y-4161787D01*
X5769010Y-4138316D01*
X5760047Y-4116623D01*
X5743464Y-4100011D01*
X5721787Y-4091010D01*
X5698316Y-4090990D01*
X5676623Y-4099953D01*
X5660011Y-4116536D01*
X5659996Y-4116572D01*
X5643464Y-4100011D01*
X5621787Y-4091010D01*
X5598316Y-4090990D01*
X5576623Y-4099953D01*
X5575642Y-4100932D01*
X5573672Y-4096174D01*
X5563826Y-4086328D01*
X5560619Y-4085000D01*
X5761360Y-4085000D01*
X5856360Y-4180000D01*
X5848180Y-4188180D01*
X5838425Y-4202779D01*
X5835000Y-4220000D01*
X5835000Y-4284600D01*
X5834585Y-4283596D01*
X5816499Y-4265479D01*
X5792856Y-4255661D01*
X5767256Y-4255639D01*
X5743596Y-4265415D01*
X5725479Y-4283501D01*
X5715661Y-4307144D01*
X5715639Y-4332744D01*
X5725415Y-4356404D01*
X5743501Y-4374521D01*
X5767144Y-4384339D01*
X5792744Y-4384361D01*
X5816404Y-4374585D01*
X5834521Y-4356499D01*
X5835000Y-4355347D01*
X5835000Y-5044600D01*
X5834585Y-5043596D01*
X5816499Y-5025479D01*
X5792856Y-5015661D01*
X5767256Y-5015639D01*
X5743596Y-5025415D01*
X5725479Y-5043501D01*
X5715661Y-5067144D01*
X5715639Y-5092744D01*
X5725415Y-5116404D01*
X5743501Y-5134521D01*
X5767144Y-5144339D01*
X5792744Y-5144361D01*
X5816404Y-5134585D01*
X5834521Y-5116499D01*
X5835000Y-5115347D01*
X5835000Y-5200000D01*
X5838425Y-5217221D01*
X5848180Y-5231820D01*
X5948180Y-5331820D01*
X5962779Y-5341575D01*
X5980000Y-5345000D01*
X6233497Y-5345000D01*
X6234806Y-5348161D01*
X6241839Y-5355194D01*
X6251027Y-5359000D01*
X6260973Y-5359000D01*
X6328973Y-5359000D01*
X6338161Y-5355194D01*
X6343852Y-5349504D01*
X6353099Y-5358304D01*
X6378219Y-5367987D01*
X6389000Y-5360243D01*
X6389000Y-5301000D01*
X6388213Y-5301000D01*
X6388213Y-5299000D01*
X6389000Y-5299000D01*
X6389000Y-5239757D01*
X6378219Y-5232013D01*
X6353099Y-5241696D01*
X6343852Y-5250496D01*
X6338161Y-5244806D01*
X6328973Y-5241000D01*
X6319027Y-5241000D01*
X6251027Y-5241000D01*
X6241839Y-5244806D01*
X6234806Y-5251839D01*
X6233497Y-5255000D01*
X5998640Y-5255000D01*
X5925000Y-5181360D01*
X5925000Y-5155355D01*
X5930839Y-5161194D01*
X5940027Y-5165000D01*
X5949973Y-5165000D01*
X6569973Y-5165000D01*
X6579161Y-5161194D01*
X6586194Y-5154161D01*
X6588188Y-5149348D01*
X6593180Y-5156820D01*
X6705000Y-5268640D01*
X6705000Y-5411567D01*
X6693464Y-5400011D01*
X6671787Y-5391010D01*
X6648316Y-5390990D01*
X6626623Y-5399953D01*
X6610011Y-5416536D01*
X6609996Y-5416572D01*
X6593464Y-5400011D01*
X6571787Y-5391010D01*
X6548316Y-5390990D01*
X6526623Y-5399953D01*
X6510011Y-5416536D01*
X6509996Y-5416572D01*
X6505000Y-5411567D01*
X6505000Y-5398640D01*
X6521820Y-5381820D01*
X6531575Y-5367221D01*
X6535000Y-5350000D01*
X6535000Y-5338539D01*
X6540000Y-5331056D01*
X6547125Y-5341719D01*
X6566266Y-5354509D01*
X6588844Y-5359000D01*
X6591156Y-5359000D01*
X6613734Y-5354509D01*
X6632875Y-5341719D01*
X6645665Y-5322578D01*
X6650156Y-5300000D01*
X6645665Y-5277422D01*
X6632875Y-5258281D01*
X6613734Y-5245491D01*
X6591156Y-5241000D01*
X6588844Y-5241000D01*
X6566266Y-5245491D01*
X6547125Y-5258281D01*
X6540000Y-5268944D01*
X6532875Y-5258281D01*
X6513734Y-5245491D01*
X6491156Y-5241000D01*
X6488844Y-5241000D01*
X6466266Y-5245491D01*
X6447125Y-5258281D01*
X6446038Y-5259907D01*
X6426901Y-5241696D01*
X6401781Y-5232013D01*
X6391000Y-5239757D01*
X6391000Y-5299000D01*
X6391787Y-5299000D01*
X6391787Y-5301000D01*
X6391000Y-5301000D01*
X6391000Y-5360243D01*
X6401781Y-5367987D01*
X6419513Y-5361151D01*
X6418425Y-5362779D01*
X6415000Y-5380000D01*
X6415000Y-5387503D01*
X6413826Y-5386328D01*
X6400962Y-5381000D01*
X6387038Y-5381000D01*
X6369750Y-5381000D01*
X6361000Y-5389750D01*
X6361000Y-5449000D01*
X6361787Y-5449000D01*
X6361787Y-5451000D01*
X6361000Y-5451000D01*
X6361000Y-5510250D01*
X6369750Y-5519000D01*
X6387038Y-5519000D01*
X6400962Y-5519000D01*
X6413826Y-5513672D01*
X6423672Y-5503826D01*
X6425635Y-5499086D01*
X6426536Y-5499989D01*
X6448213Y-5508990D01*
X6471684Y-5509010D01*
X6493377Y-5500047D01*
X6509989Y-5483464D01*
X6510004Y-5483428D01*
X6526536Y-5499989D01*
X6548213Y-5508990D01*
X6571684Y-5509010D01*
X6593377Y-5500047D01*
X6609989Y-5483464D01*
X6610004Y-5483428D01*
X6626536Y-5499989D01*
X6648213Y-5508990D01*
X6652367Y-5508993D01*
X6631360Y-5530000D01*
X6525000Y-5530000D01*
X6507779Y-5533425D01*
X6493180Y-5543180D01*
X6359000Y-5677360D01*
X6359000Y-5510250D01*
X6359000Y-5451000D01*
X6359000Y-5449000D01*
X6359000Y-5389750D01*
X6350250Y-5381000D01*
X6332962Y-5381000D01*
X6319038Y-5381000D01*
X6310000Y-5384744D01*
X6300962Y-5381000D01*
X6287038Y-5381000D01*
X6269750Y-5381000D01*
X6261000Y-5389750D01*
X6261000Y-5449000D01*
X6299750Y-5449000D01*
X6320250Y-5449000D01*
X6359000Y-5449000D01*
X6359000Y-5451000D01*
X6320250Y-5451000D01*
X6299750Y-5451000D01*
X6261000Y-5451000D01*
X6261000Y-5510250D01*
X6269750Y-5519000D01*
X6287038Y-5519000D01*
X6300962Y-5519000D01*
X6310000Y-5515256D01*
X6319038Y-5519000D01*
X6332962Y-5519000D01*
X6350250Y-5519000D01*
X6359000Y-5510250D01*
X6359000Y-5677360D01*
X6331360Y-5705000D01*
X6259000Y-5705000D01*
X6259000Y-5510250D01*
X6259000Y-5451000D01*
X6259000Y-5449000D01*
X6259000Y-5389750D01*
X6250250Y-5381000D01*
X6232962Y-5381000D01*
X6219038Y-5381000D01*
X6206174Y-5386328D01*
X6196328Y-5396174D01*
X6191000Y-5409038D01*
X6191000Y-5440250D01*
X6199750Y-5449000D01*
X6259000Y-5449000D01*
X6259000Y-5451000D01*
X6199750Y-5451000D01*
X6191000Y-5459750D01*
X6191000Y-5490962D01*
X6196328Y-5503826D01*
X6206174Y-5513672D01*
X6219038Y-5519000D01*
X6232962Y-5519000D01*
X6250250Y-5519000D01*
X6259000Y-5510250D01*
X6259000Y-5705000D01*
X6222422Y-5705000D01*
X6212368Y-5694928D01*
X6192512Y-5686683D01*
X6192512Y-5551137D01*
X6181878Y-5525400D01*
X6162204Y-5505691D01*
X6136485Y-5495012D01*
X6108637Y-5494988D01*
X6082900Y-5505622D01*
X6063191Y-5525296D01*
X6052512Y-5551015D01*
X6052488Y-5578863D01*
X6063122Y-5604600D01*
X6082796Y-5624309D01*
X6108515Y-5634988D01*
X6136363Y-5635012D01*
X6162100Y-5624378D01*
X6181809Y-5604704D01*
X6192488Y-5578985D01*
X6192512Y-5551137D01*
X6192512Y-5686683D01*
X6188486Y-5685011D01*
X6162627Y-5684989D01*
X6138729Y-5694864D01*
X6120428Y-5713132D01*
X6110511Y-5737014D01*
X6110489Y-5762873D01*
X6120364Y-5786771D01*
X6138632Y-5805072D01*
X6162514Y-5814989D01*
X6188373Y-5815011D01*
X6212271Y-5805136D01*
X6222426Y-5795000D01*
X6350000Y-5795000D01*
X6367221Y-5791575D01*
X6381820Y-5781820D01*
X6543640Y-5620000D01*
X6650000Y-5620000D01*
X6667221Y-5616575D01*
X6681820Y-5606820D01*
X6708157Y-5580482D01*
X6718122Y-5604600D01*
X6737796Y-5624309D01*
X6763515Y-5634988D01*
X6791363Y-5635012D01*
X6817100Y-5624378D01*
X6836809Y-5604704D01*
X6847488Y-5578985D01*
X6847498Y-5567836D01*
X6853110Y-5583038D01*
X6889386Y-5599332D01*
X6929135Y-5600503D01*
X6966307Y-5586374D01*
X6971299Y-5583038D01*
X6977374Y-5566584D01*
X6912205Y-5501414D01*
X6911648Y-5501971D01*
X6910234Y-5500557D01*
X6910791Y-5500000D01*
X6845621Y-5434830D01*
X6829167Y-5440905D01*
X6827894Y-5443740D01*
X6827894Y-5061694D01*
X6820142Y-5051000D01*
X6726000Y-5051000D01*
X6726000Y-5118450D01*
X6761450Y-5118450D01*
X6787569Y-5112857D01*
X6809559Y-5097694D01*
X6824072Y-5075271D01*
X6827894Y-5061694D01*
X6827894Y-5443740D01*
X6812873Y-5477181D01*
X6812096Y-5503570D01*
X6791485Y-5495012D01*
X6789710Y-5495011D01*
X6791575Y-5492221D01*
X6795000Y-5475000D01*
X6795000Y-5250000D01*
X6791575Y-5232779D01*
X6781820Y-5218180D01*
X6680329Y-5116690D01*
X6688550Y-5118450D01*
X6724000Y-5118450D01*
X6724000Y-5051000D01*
X6723213Y-5051000D01*
X6723213Y-5049000D01*
X6724000Y-5049000D01*
X6724000Y-5048213D01*
X6726000Y-5048213D01*
X6726000Y-5049000D01*
X6820142Y-5049000D01*
X6827894Y-5038306D01*
X6824072Y-5024729D01*
X6809559Y-5002306D01*
X6798963Y-4995000D01*
X7081360Y-4995000D01*
X7104336Y-5017976D01*
X7088209Y-5010715D01*
X7044468Y-5009387D01*
X7003549Y-5024898D01*
X6997889Y-5028681D01*
X6990592Y-5046178D01*
X7063000Y-5118586D01*
X7063557Y-5118029D01*
X7064971Y-5119443D01*
X7064414Y-5120000D01*
X7136822Y-5192408D01*
X7154213Y-5185156D01*
X7154213Y-5282442D01*
X7153013Y-5283639D01*
X7150003Y-5290889D01*
X7147041Y-5283720D01*
X7135408Y-5272067D01*
X7135408Y-5193822D01*
X7063000Y-5121414D01*
X7061586Y-5122828D01*
X7061586Y-5120000D01*
X6989178Y-5047592D01*
X6971681Y-5054889D01*
X6953715Y-5094791D01*
X6952387Y-5138532D01*
X6967898Y-5179451D01*
X6971681Y-5185111D01*
X6989178Y-5192408D01*
X7061586Y-5120000D01*
X7061586Y-5122828D01*
X6990592Y-5193822D01*
X6997889Y-5211319D01*
X7037791Y-5229285D01*
X7081532Y-5230613D01*
X7122451Y-5215102D01*
X7128111Y-5211319D01*
X7135408Y-5193822D01*
X7135408Y-5272067D01*
X7131715Y-5268368D01*
X7111681Y-5260049D01*
X7089989Y-5260030D01*
X7069940Y-5268314D01*
X7054588Y-5283639D01*
X7046269Y-5303673D01*
X7046250Y-5325366D01*
X7054534Y-5345414D01*
X7063044Y-5353938D01*
X7054588Y-5362379D01*
X7046269Y-5382413D01*
X7046250Y-5404106D01*
X7054534Y-5424154D01*
X7069860Y-5439506D01*
X7089894Y-5447825D01*
X7111586Y-5447844D01*
X7131634Y-5439560D01*
X7143377Y-5427838D01*
X7143645Y-5428532D01*
X7145404Y-5431165D01*
X7158177Y-5432928D01*
X7197798Y-5393307D01*
X7158177Y-5353686D01*
X7145404Y-5355449D01*
X7143757Y-5359171D01*
X7138531Y-5353936D01*
X7146987Y-5345495D01*
X7149997Y-5338245D01*
X7152959Y-5345414D01*
X7159617Y-5352083D01*
X7159591Y-5352272D01*
X7199213Y-5391893D01*
X7238834Y-5352272D01*
X7238808Y-5352087D01*
X7245412Y-5345495D01*
X7253731Y-5325461D01*
X7253750Y-5303768D01*
X7245466Y-5283720D01*
X7244213Y-5282464D01*
X7244213Y-5049213D01*
X7240787Y-5031992D01*
X7231032Y-5017393D01*
X7131820Y-4918180D01*
X7117221Y-4908425D01*
X7100000Y-4905000D01*
X6798128Y-4905000D01*
X6790645Y-4900000D01*
X6803620Y-4891330D01*
X6816290Y-4872368D01*
X6820740Y-4850000D01*
X6816290Y-4827632D01*
X6803620Y-4808670D01*
X6784657Y-4795999D01*
X6770000Y-4793084D01*
X6770000Y-4725000D01*
X6766575Y-4707779D01*
X6756820Y-4693180D01*
X6680329Y-4616690D01*
X6688550Y-4618450D01*
X6724000Y-4618450D01*
X6724000Y-4551000D01*
X6723213Y-4551000D01*
X6723213Y-4549000D01*
X6724000Y-4549000D01*
X6724000Y-4548213D01*
X6726000Y-4548213D01*
X6726000Y-4549000D01*
X6726787Y-4549000D01*
X6726787Y-4551000D01*
X6726000Y-4551000D01*
X6726000Y-4618450D01*
X6761450Y-4618450D01*
X6780000Y-4614478D01*
X6780000Y-4650000D01*
X6783425Y-4667221D01*
X6793180Y-4681820D01*
X6923180Y-4811820D01*
X6937779Y-4821575D01*
X6955000Y-4825000D01*
X6973393Y-4825000D01*
X6978175Y-4836571D01*
X7006281Y-4864726D01*
X7043021Y-4879983D01*
X7082804Y-4880017D01*
X7119571Y-4864825D01*
X7147726Y-4836719D01*
X7162983Y-4799979D01*
X7163017Y-4760196D01*
X7147825Y-4723429D01*
X7119719Y-4695274D01*
X7101826Y-4687844D01*
X7082979Y-4680017D01*
X7043196Y-4679983D01*
X7006429Y-4695175D01*
X6978274Y-4723281D01*
X6973475Y-4734836D01*
X6938363Y-4699723D01*
X6959525Y-4700362D01*
X6999636Y-4685148D01*
X7005152Y-4681462D01*
X7012185Y-4664190D01*
X6941339Y-4593343D01*
X6940782Y-4593900D01*
X6939368Y-4592486D01*
X6939924Y-4591929D01*
X6939368Y-4591372D01*
X6940782Y-4589958D01*
X6941339Y-4590515D01*
X6941895Y-4589958D01*
X6943310Y-4591372D01*
X6942753Y-4591929D01*
X7013599Y-4662776D01*
X7030872Y-4655743D01*
X7038713Y-4638318D01*
X7047820Y-4642350D01*
X7073483Y-4642967D01*
X7097429Y-4633717D01*
X7100063Y-4631958D01*
X7101826Y-4619185D01*
X7062205Y-4579564D01*
X7061648Y-4580121D01*
X7060234Y-4578706D01*
X7060791Y-4578150D01*
X7060234Y-4577593D01*
X7061648Y-4576179D01*
X7062205Y-4576735D01*
X7101826Y-4537114D01*
X7100371Y-4526575D01*
X7101826Y-4516036D01*
X7062205Y-4476414D01*
X7022583Y-4516036D01*
X7023857Y-4525259D01*
X7013599Y-4521082D01*
X7019721Y-4514961D01*
X7019095Y-4514335D01*
X7021169Y-4514621D01*
X7060791Y-4475000D01*
X7060234Y-4474443D01*
X7061648Y-4473029D01*
X7062205Y-4473586D01*
X7101826Y-4433964D01*
X7100063Y-4421192D01*
X7076589Y-4410800D01*
X7050926Y-4410182D01*
X7038602Y-4414943D01*
X7048477Y-4393000D01*
X7049771Y-4350121D01*
X7034558Y-4310010D01*
X7030872Y-4304493D01*
X7013599Y-4297460D01*
X7012185Y-4298875D01*
X7012185Y-4296046D01*
X7005152Y-4278774D01*
X6966032Y-4261169D01*
X6923152Y-4259874D01*
X6883041Y-4275088D01*
X6877525Y-4278774D01*
X6870492Y-4296046D01*
X6941339Y-4366893D01*
X7012185Y-4296046D01*
X7012185Y-4298875D01*
X6942753Y-4368307D01*
X6943310Y-4368864D01*
X6941895Y-4370278D01*
X6941339Y-4369721D01*
X6939924Y-4371136D01*
X6939924Y-4368307D01*
X6869078Y-4297460D01*
X6851805Y-4304493D01*
X6834200Y-4343614D01*
X6832906Y-4386494D01*
X6848120Y-4426605D01*
X6851805Y-4432121D01*
X6869078Y-4439154D01*
X6939924Y-4368307D01*
X6939924Y-4371136D01*
X6870492Y-4440568D01*
X6877525Y-4457840D01*
X6916645Y-4475445D01*
X6959525Y-4476740D01*
X6997968Y-4462159D01*
X6997387Y-4486279D01*
X7003289Y-4501557D01*
X6966032Y-4484791D01*
X6923152Y-4483496D01*
X6883041Y-4498710D01*
X6877525Y-4502396D01*
X6870492Y-4519668D01*
X6870000Y-4519176D01*
X6870000Y-4475000D01*
X6866575Y-4457779D01*
X6856820Y-4443180D01*
X6831820Y-4418180D01*
X6817221Y-4408425D01*
X6800000Y-4405000D01*
X6798128Y-4405000D01*
X6790645Y-4400000D01*
X6803620Y-4391330D01*
X6816290Y-4372368D01*
X6820740Y-4350000D01*
X6816290Y-4327632D01*
X6803620Y-4308670D01*
X6784657Y-4295999D01*
X6762290Y-4291550D01*
X6687710Y-4291550D01*
X6665343Y-4295999D01*
X6646380Y-4308670D01*
X6633710Y-4327632D01*
X6633705Y-4327655D01*
X6593180Y-4368180D01*
X6590000Y-4372940D01*
X6590000Y-4255027D01*
X6586194Y-4245839D01*
X6579161Y-4238806D01*
X6569973Y-4235000D01*
X6560027Y-4235000D01*
X6359000Y-4235000D01*
X6359000Y-4210250D01*
X6359000Y-4151000D01*
X6320250Y-4151000D01*
X6299750Y-4151000D01*
X6261000Y-4151000D01*
X6261000Y-4210250D01*
X6269750Y-4219000D01*
X6287038Y-4219000D01*
X6300962Y-4219000D01*
X6310000Y-4215256D01*
X6319038Y-4219000D01*
X6332962Y-4219000D01*
X6350250Y-4219000D01*
X6359000Y-4210250D01*
X6359000Y-4235000D01*
X6259000Y-4235000D01*
X5940027Y-4235000D01*
X5930839Y-4238806D01*
X5925000Y-4244645D01*
X5925000Y-4238640D01*
X5938640Y-4225000D01*
X6100000Y-4225000D01*
X6117221Y-4221575D01*
X6131820Y-4211820D01*
X6192640Y-4151000D01*
X6199750Y-4151000D01*
X6191000Y-4159750D01*
X6191000Y-4190962D01*
X6196328Y-4203826D01*
X6206174Y-4213672D01*
X6219038Y-4219000D01*
X6232962Y-4219000D01*
X6250250Y-4219000D01*
X6259000Y-4210250D01*
X6259000Y-4151000D01*
X6258213Y-4151000D01*
X6258213Y-4149000D01*
X6259000Y-4149000D01*
X6259000Y-4148213D01*
X6261000Y-4148213D01*
X6261000Y-4149000D01*
X6299750Y-4149000D01*
X6320250Y-4149000D01*
X6359000Y-4149000D01*
X6359000Y-4148213D01*
X6361000Y-4148213D01*
X6361000Y-4149000D01*
X6361787Y-4149000D01*
X6361787Y-4151000D01*
X6361000Y-4151000D01*
X6361000Y-4210250D01*
X6369750Y-4219000D01*
X6387038Y-4219000D01*
X6400962Y-4219000D01*
X6413826Y-4213672D01*
X6423672Y-4203826D01*
X6425635Y-4199086D01*
X6426536Y-4199989D01*
X6448213Y-4208990D01*
X6471684Y-4209010D01*
X6493377Y-4200047D01*
X6509989Y-4183464D01*
X6510004Y-4183428D01*
X6526536Y-4199989D01*
X6548213Y-4208990D01*
X6571684Y-4209010D01*
X6593377Y-4200047D01*
X6598433Y-4195000D01*
X7031360Y-4195000D01*
X7261514Y-4425153D01*
X7250264Y-4420482D01*
X7228571Y-4420463D01*
X7208523Y-4428747D01*
X7199999Y-4437256D01*
X7191558Y-4428801D01*
X7171524Y-4420482D01*
X7149831Y-4420463D01*
X7129783Y-4428747D01*
X7118040Y-4440469D01*
X7117772Y-4439775D01*
X7116013Y-4437142D01*
X7103240Y-4435379D01*
X7101826Y-4436793D01*
X7063619Y-4475000D01*
X7103240Y-4514621D01*
X7116013Y-4512858D01*
X7117660Y-4509136D01*
X7129702Y-4521199D01*
X7142655Y-4526578D01*
X7129783Y-4531896D01*
X7118040Y-4543618D01*
X7117772Y-4542925D01*
X7116013Y-4540292D01*
X7103240Y-4538528D01*
X7063619Y-4578150D01*
X7103240Y-4617771D01*
X7116013Y-4616008D01*
X7117660Y-4612286D01*
X7129702Y-4624349D01*
X7149736Y-4632668D01*
X7171429Y-4632687D01*
X7191477Y-4624403D01*
X7200001Y-4615893D01*
X7208442Y-4624349D01*
X7228476Y-4632668D01*
X7250169Y-4632687D01*
X7270217Y-4624403D01*
X7285569Y-4609077D01*
X7288580Y-4601827D01*
X7291542Y-4608997D01*
X7306868Y-4624349D01*
X7326901Y-4632668D01*
X7348594Y-4632687D01*
X7357408Y-4629045D01*
X7365442Y-4650227D01*
X7369128Y-4655743D01*
X7386401Y-4662776D01*
X7457247Y-4591929D01*
X7456690Y-4591372D01*
X7458105Y-4589958D01*
X7458661Y-4590515D01*
X7529508Y-4519668D01*
X7529508Y-4522497D01*
X7460076Y-4591929D01*
X7530922Y-4662776D01*
X7548195Y-4655743D01*
X7565800Y-4616622D01*
X7567094Y-4573743D01*
X7567094Y-4915391D01*
X7566575Y-4912779D01*
X7556820Y-4898180D01*
X7470181Y-4811542D01*
X7474983Y-4799979D01*
X7475017Y-4760196D01*
X7459825Y-4723429D01*
X7435555Y-4699115D01*
X7476848Y-4700362D01*
X7516959Y-4685148D01*
X7522475Y-4681462D01*
X7529508Y-4664190D01*
X7458661Y-4593343D01*
X7457247Y-4594758D01*
X7387815Y-4664190D01*
X7394259Y-4680017D01*
X7355196Y-4679983D01*
X7318429Y-4695175D01*
X7290274Y-4723281D01*
X7275017Y-4760021D01*
X7274983Y-4799804D01*
X7290175Y-4836571D01*
X7318281Y-4864726D01*
X7355021Y-4879983D01*
X7394804Y-4880017D01*
X7406532Y-4875171D01*
X7480000Y-4948640D01*
X7480000Y-5181360D01*
X7475017Y-5186343D01*
X7475017Y-5100196D01*
X7459825Y-5063429D01*
X7431719Y-5035274D01*
X7394979Y-5020017D01*
X7355196Y-5019983D01*
X7318429Y-5035175D01*
X7290274Y-5063281D01*
X7275017Y-5100021D01*
X7274983Y-5139804D01*
X7290175Y-5176571D01*
X7318281Y-5204726D01*
X7355021Y-5219983D01*
X7394804Y-5220017D01*
X7431571Y-5204825D01*
X7459726Y-5176719D01*
X7474983Y-5139979D01*
X7475017Y-5100196D01*
X7475017Y-5186343D01*
X7263653Y-5397707D01*
X7264030Y-5382029D01*
X7254780Y-5358082D01*
X7253021Y-5355449D01*
X7240248Y-5353686D01*
X7200627Y-5393307D01*
X7201184Y-5393864D01*
X7199769Y-5395278D01*
X7199213Y-5394721D01*
X7159591Y-5434343D01*
X7161355Y-5447115D01*
X7184828Y-5457507D01*
X7203406Y-5457954D01*
X7012708Y-5648653D01*
X7012708Y-5483069D01*
X6998578Y-5445897D01*
X6995243Y-5440905D01*
X6978788Y-5434830D01*
X6977374Y-5436245D01*
X6977374Y-5433416D01*
X6971299Y-5416962D01*
X6935024Y-5400668D01*
X6895274Y-5399497D01*
X6858102Y-5413626D01*
X6853110Y-5416962D01*
X6847035Y-5433416D01*
X6912205Y-5498586D01*
X6977374Y-5433416D01*
X6977374Y-5436245D01*
X6913619Y-5500000D01*
X6978788Y-5565170D01*
X6995243Y-5559095D01*
X7011536Y-5522819D01*
X7012708Y-5483069D01*
X7012708Y-5648653D01*
X6881360Y-5780000D01*
X6695347Y-5780000D01*
X6685293Y-5769928D01*
X6661411Y-5760011D01*
X6635553Y-5759989D01*
X6611654Y-5769864D01*
X6593353Y-5788132D01*
X6583436Y-5812014D01*
X6583414Y-5837873D01*
X6593289Y-5861771D01*
X6610031Y-5878543D01*
X6489942Y-5878543D01*
X6506647Y-5861868D01*
X6516564Y-5837986D01*
X6516586Y-5812127D01*
X6506711Y-5788229D01*
X6488442Y-5769928D01*
X6464561Y-5760011D01*
X6438702Y-5759989D01*
X6414803Y-5769864D01*
X6396503Y-5788132D01*
X6386586Y-5812014D01*
X6386564Y-5837873D01*
X6396438Y-5861771D01*
X6413181Y-5878543D01*
X6039511Y-5878543D01*
X6039511Y-5737127D01*
X6029636Y-5713229D01*
X6011368Y-5694928D01*
X5997512Y-5689174D01*
X5997512Y-5551137D01*
X5986878Y-5525400D01*
X5967204Y-5505691D01*
X5941485Y-5495012D01*
X5913637Y-5494988D01*
X5887900Y-5505622D01*
X5868191Y-5525296D01*
X5857512Y-5551015D01*
X5857488Y-5578863D01*
X5868122Y-5604600D01*
X5887796Y-5624309D01*
X5913515Y-5634988D01*
X5941363Y-5635012D01*
X5967100Y-5624378D01*
X5986809Y-5604704D01*
X5997488Y-5578985D01*
X5997512Y-5551137D01*
X5997512Y-5689174D01*
X5987486Y-5685011D01*
X5961627Y-5684989D01*
X5937729Y-5694864D01*
X5919428Y-5713132D01*
X5909511Y-5737014D01*
X5909489Y-5762873D01*
X5919364Y-5786771D01*
X5937632Y-5805072D01*
X5961514Y-5814989D01*
X5987373Y-5815011D01*
X6011271Y-5805136D01*
X6029572Y-5786868D01*
X6039489Y-5762986D01*
X6039511Y-5737127D01*
X6039511Y-5878543D01*
X5394000Y-5878543D01*
X5394000Y-5801027D01*
X5390194Y-5791839D01*
X5383161Y-5784806D01*
X5373973Y-5781000D01*
X5364027Y-5781000D01*
X5276027Y-5781000D01*
X5266839Y-5784806D01*
X5259806Y-5791839D01*
X5256000Y-5801027D01*
X5256000Y-5810973D01*
X5256000Y-5878543D01*
X5186793Y-5878543D01*
X5203497Y-5861868D01*
X5213414Y-5837986D01*
X5213436Y-5812127D01*
X5203562Y-5788229D01*
X5185293Y-5769928D01*
X5161411Y-5760011D01*
X5147512Y-5759999D01*
X5147512Y-5551137D01*
X5136878Y-5525400D01*
X5117204Y-5505691D01*
X5091485Y-5495012D01*
X5063637Y-5494988D01*
X5037900Y-5505622D01*
X5019010Y-5524479D01*
X5019010Y-5438316D01*
X5010047Y-5416623D01*
X4993464Y-5400011D01*
X4971787Y-5391010D01*
X4948316Y-5390990D01*
X4926623Y-5399953D01*
X4910011Y-5416536D01*
X4909996Y-5416572D01*
X4893464Y-5400011D01*
X4871787Y-5391010D01*
X4848316Y-5390990D01*
X4826623Y-5399953D01*
X4810011Y-5416536D01*
X4809996Y-5416572D01*
X4805000Y-5411567D01*
X4805000Y-5408640D01*
X4831820Y-5381820D01*
X4841575Y-5367221D01*
X4845000Y-5350000D01*
X4845000Y-5338539D01*
X4850000Y-5331056D01*
X4857125Y-5341719D01*
X4876266Y-5354509D01*
X4898844Y-5359000D01*
X4901156Y-5359000D01*
X4923734Y-5354509D01*
X4942875Y-5341719D01*
X4955665Y-5322578D01*
X4960156Y-5300000D01*
X4955665Y-5277422D01*
X4942875Y-5258281D01*
X4923734Y-5245491D01*
X4901156Y-5241000D01*
X4898844Y-5241000D01*
X4876266Y-5245491D01*
X4857125Y-5258281D01*
X4850000Y-5268944D01*
X4842875Y-5258281D01*
X4823734Y-5245491D01*
X4801156Y-5241000D01*
X4798844Y-5241000D01*
X4776266Y-5245491D01*
X4757125Y-5258281D01*
X4756038Y-5259907D01*
X4736901Y-5241696D01*
X4711781Y-5232013D01*
X4701000Y-5239757D01*
X4701000Y-5299000D01*
X4701787Y-5299000D01*
X4701787Y-5301000D01*
X4701000Y-5301000D01*
X4701000Y-5360243D01*
X4711781Y-5367987D01*
X4725044Y-5362874D01*
X4718425Y-5372779D01*
X4715414Y-5387917D01*
X4713826Y-5386328D01*
X4700962Y-5381000D01*
X4687038Y-5381000D01*
X4669750Y-5381000D01*
X4661000Y-5389750D01*
X4661000Y-5449000D01*
X4661787Y-5449000D01*
X4661787Y-5451000D01*
X4661000Y-5451000D01*
X4661000Y-5510250D01*
X4669750Y-5519000D01*
X4687038Y-5519000D01*
X4700962Y-5519000D01*
X4713826Y-5513672D01*
X4723672Y-5503826D01*
X4725635Y-5499086D01*
X4726536Y-5499989D01*
X4748213Y-5508990D01*
X4771684Y-5509010D01*
X4793377Y-5500047D01*
X4809989Y-5483464D01*
X4810004Y-5483428D01*
X4826536Y-5499989D01*
X4848213Y-5508990D01*
X4871684Y-5509010D01*
X4893377Y-5500047D01*
X4909989Y-5483464D01*
X4910004Y-5483428D01*
X4926536Y-5499989D01*
X4948213Y-5508990D01*
X4971684Y-5509010D01*
X4993377Y-5500047D01*
X5009989Y-5483464D01*
X5018990Y-5461787D01*
X5019010Y-5438316D01*
X5019010Y-5524479D01*
X5018191Y-5525296D01*
X5007512Y-5551015D01*
X5007488Y-5578863D01*
X5018122Y-5604600D01*
X5037796Y-5624309D01*
X5063515Y-5634988D01*
X5091363Y-5635012D01*
X5117100Y-5624378D01*
X5136809Y-5604704D01*
X5147488Y-5578985D01*
X5147512Y-5551137D01*
X5147512Y-5759999D01*
X5135553Y-5759989D01*
X5111654Y-5769864D01*
X5093353Y-5788132D01*
X5083436Y-5812014D01*
X5083414Y-5837873D01*
X5093289Y-5861771D01*
X5110031Y-5878543D01*
X4989942Y-5878543D01*
X5006647Y-5861868D01*
X5016564Y-5837986D01*
X5016586Y-5812127D01*
X5006711Y-5788229D01*
X4988442Y-5769928D01*
X4964561Y-5760011D01*
X4938702Y-5759989D01*
X4914803Y-5769864D01*
X4904649Y-5780000D01*
X4823640Y-5780000D01*
X4711820Y-5668180D01*
X4697221Y-5658425D01*
X4680000Y-5655000D01*
X4659000Y-5655000D01*
X4659000Y-5510250D01*
X4659000Y-5451000D01*
X4659000Y-5449000D01*
X4659000Y-5389750D01*
X4650250Y-5381000D01*
X4632962Y-5381000D01*
X4619038Y-5381000D01*
X4610000Y-5384744D01*
X4600962Y-5381000D01*
X4587038Y-5381000D01*
X4569750Y-5381000D01*
X4561000Y-5389750D01*
X4561000Y-5449000D01*
X4599750Y-5449000D01*
X4620250Y-5449000D01*
X4659000Y-5449000D01*
X4659000Y-5451000D01*
X4620250Y-5451000D01*
X4599750Y-5451000D01*
X4561000Y-5451000D01*
X4561000Y-5510250D01*
X4569750Y-5519000D01*
X4587038Y-5519000D01*
X4600962Y-5519000D01*
X4610000Y-5515256D01*
X4619038Y-5519000D01*
X4632962Y-5519000D01*
X4650250Y-5519000D01*
X4659000Y-5510250D01*
X4659000Y-5655000D01*
X4559000Y-5655000D01*
X4559000Y-5510250D01*
X4559000Y-5451000D01*
X4559000Y-5449000D01*
X4559000Y-5389750D01*
X4550250Y-5381000D01*
X4532962Y-5381000D01*
X4519038Y-5381000D01*
X4506174Y-5386328D01*
X4496328Y-5396174D01*
X4491000Y-5409038D01*
X4491000Y-5440250D01*
X4499750Y-5449000D01*
X4559000Y-5449000D01*
X4559000Y-5451000D01*
X4499750Y-5451000D01*
X4491000Y-5459750D01*
X4491000Y-5490962D01*
X4496328Y-5503826D01*
X4506174Y-5513672D01*
X4519038Y-5519000D01*
X4532962Y-5519000D01*
X4550250Y-5519000D01*
X4559000Y-5510250D01*
X4559000Y-5655000D01*
X4398640Y-5655000D01*
X4365000Y-5621360D01*
X4365000Y-5606481D01*
X4382796Y-5624309D01*
X4408515Y-5634988D01*
X4436363Y-5635012D01*
X4462100Y-5624378D01*
X4481809Y-5604704D01*
X4492488Y-5578985D01*
X4492512Y-5551137D01*
X4481878Y-5525400D01*
X4462204Y-5505691D01*
X4436485Y-5495012D01*
X4408637Y-5494988D01*
X4382900Y-5505622D01*
X4365000Y-5523491D01*
X4365000Y-5404038D01*
X4372950Y-5412002D01*
X4396593Y-5421819D01*
X4422193Y-5421841D01*
X4445853Y-5412065D01*
X4463970Y-5393979D01*
X4473788Y-5370336D01*
X4473810Y-5344736D01*
X4473810Y-4944736D01*
X4464034Y-4921077D01*
X4445948Y-4902959D01*
X4422305Y-4893141D01*
X4396705Y-4893119D01*
X4373045Y-4902895D01*
X4354927Y-4920981D01*
X4345110Y-4944624D01*
X4345088Y-4970224D01*
X4354864Y-4993884D01*
X4372950Y-5012002D01*
X4396593Y-5021819D01*
X4422193Y-5021841D01*
X4445853Y-5012065D01*
X4463970Y-4993979D01*
X4473788Y-4970336D01*
X4473810Y-4944736D01*
X4473810Y-5344736D01*
X4464034Y-5321077D01*
X4445948Y-5302959D01*
X4422305Y-5293141D01*
X4396705Y-5293119D01*
X4373045Y-5302895D01*
X4365000Y-5310926D01*
X4365000Y-5270000D01*
X4361575Y-5252779D01*
X4351820Y-5238180D01*
X4240294Y-5126654D01*
X4240294Y-5013646D01*
X4240294Y-4813646D01*
X4230978Y-4789524D01*
X4229198Y-4786859D01*
X4216376Y-4785038D01*
X4176414Y-4825000D01*
X4216376Y-4864962D01*
X4229198Y-4863141D01*
X4239668Y-4839497D01*
X4240294Y-4813646D01*
X4240294Y-5013646D01*
X4230978Y-4989524D01*
X4229198Y-4986859D01*
X4216376Y-4985038D01*
X4176414Y-5025000D01*
X4216376Y-5064962D01*
X4229198Y-5063141D01*
X4239668Y-5039497D01*
X4240294Y-5013646D01*
X4240294Y-5126654D01*
X4230008Y-5116368D01*
X4230010Y-5114108D01*
X4221654Y-5093886D01*
X4209244Y-5081454D01*
X4210476Y-5080978D01*
X4213141Y-5079198D01*
X4214962Y-5066376D01*
X4175000Y-5026414D01*
X4173586Y-5027828D01*
X4173586Y-5025000D01*
X4133624Y-4985038D01*
X4125000Y-4986263D01*
X4116376Y-4985038D01*
X4076414Y-5025000D01*
X4116376Y-5064962D01*
X4125000Y-5063737D01*
X4133624Y-5064962D01*
X4173586Y-5025000D01*
X4173586Y-5027828D01*
X4135038Y-5066376D01*
X4136859Y-5079198D01*
X4141135Y-5081092D01*
X4128400Y-5093804D01*
X4125002Y-5101989D01*
X4121654Y-5093886D01*
X4109244Y-5081454D01*
X4110476Y-5080978D01*
X4113141Y-5079198D01*
X4114962Y-5066376D01*
X4075000Y-5026414D01*
X4074443Y-5026971D01*
X4073029Y-5025557D01*
X4073586Y-5025000D01*
X4073029Y-5024443D01*
X4074443Y-5023029D01*
X4075000Y-5023586D01*
X4114962Y-4983624D01*
X4113141Y-4970802D01*
X4108865Y-4968908D01*
X4121600Y-4956196D01*
X4124998Y-4948011D01*
X4128346Y-4956114D01*
X4140756Y-4968546D01*
X4139524Y-4969022D01*
X4136859Y-4970802D01*
X4135038Y-4983624D01*
X4175000Y-5023586D01*
X4214962Y-4983624D01*
X4213141Y-4970802D01*
X4208865Y-4968908D01*
X4221600Y-4956196D01*
X4229990Y-4935988D01*
X4230010Y-4914108D01*
X4221654Y-4893886D01*
X4209244Y-4881454D01*
X4210476Y-4880978D01*
X4213141Y-4879198D01*
X4214962Y-4866376D01*
X4175000Y-4826414D01*
X4173586Y-4827828D01*
X4173586Y-4825000D01*
X4133624Y-4785038D01*
X4125000Y-4786263D01*
X4116376Y-4785038D01*
X4076414Y-4825000D01*
X4116376Y-4864962D01*
X4125000Y-4863737D01*
X4133624Y-4864962D01*
X4173586Y-4825000D01*
X4173586Y-4827828D01*
X4135038Y-4866376D01*
X4136859Y-4879198D01*
X4141135Y-4881092D01*
X4128400Y-4893804D01*
X4125002Y-4901989D01*
X4121654Y-4893886D01*
X4109244Y-4881454D01*
X4110476Y-4880978D01*
X4113141Y-4879198D01*
X4114962Y-4866376D01*
X4075000Y-4826414D01*
X4073586Y-4827828D01*
X4073586Y-4825000D01*
X4033624Y-4785038D01*
X4020802Y-4786859D01*
X4010332Y-4810503D01*
X4009706Y-4836354D01*
X4019022Y-4860476D01*
X4020802Y-4863141D01*
X4033624Y-4864962D01*
X4073586Y-4825000D01*
X4073586Y-4827828D01*
X4035038Y-4866376D01*
X4036859Y-4879198D01*
X4041135Y-4881092D01*
X4028400Y-4893804D01*
X4020010Y-4914012D01*
X4019990Y-4935892D01*
X4020485Y-4937089D01*
X3998787Y-4958787D01*
X3992284Y-4968519D01*
X3990000Y-4980000D01*
X3990000Y-5160000D01*
X3992284Y-5171481D01*
X3998787Y-5181213D01*
X4095000Y-5277426D01*
X4095000Y-5348558D01*
X4091623Y-5349953D01*
X4075011Y-5366536D01*
X4074996Y-5366572D01*
X4058464Y-5350011D01*
X4036787Y-5341010D01*
X4013316Y-5340990D01*
X3991623Y-5349953D01*
X3975011Y-5366536D01*
X3966010Y-5388213D01*
X3965990Y-5411684D01*
X3974953Y-5433377D01*
X3991536Y-5449989D01*
X4013213Y-5458990D01*
X4036684Y-5459010D01*
X4058377Y-5450047D01*
X4074989Y-5433464D01*
X4075004Y-5433428D01*
X4091536Y-5449989D01*
X4113213Y-5458990D01*
X4136684Y-5459010D01*
X4158377Y-5450047D01*
X4167015Y-5441424D01*
X4169806Y-5448161D01*
X4176839Y-5455194D01*
X4186027Y-5459000D01*
X4195973Y-5459000D01*
X4263973Y-5459000D01*
X4273161Y-5455194D01*
X4275000Y-5453355D01*
X4275000Y-5640000D01*
X4278425Y-5657221D01*
X4288180Y-5671820D01*
X4338180Y-5721820D01*
X4348180Y-5731820D01*
X4362779Y-5741575D01*
X4380000Y-5745000D01*
X4661360Y-5745000D01*
X4773180Y-5856820D01*
X4787779Y-5866575D01*
X4805000Y-5870000D01*
X4904653Y-5870000D01*
X4913181Y-5878543D01*
X4661793Y-5878543D01*
X4678497Y-5861868D01*
X4688414Y-5837986D01*
X4688436Y-5812127D01*
X4678562Y-5788229D01*
X4660293Y-5769928D01*
X4636411Y-5760011D01*
X4610553Y-5759989D01*
X4586654Y-5769864D01*
X4568353Y-5788132D01*
X4558436Y-5812014D01*
X4558414Y-5837873D01*
X4568289Y-5861771D01*
X4585031Y-5878543D01*
X4501940Y-5878543D01*
X4481037Y-5878543D01*
X4481285Y-5878296D01*
X4475162Y-5872172D01*
X4489022Y-5869135D01*
X4501158Y-5841878D01*
X4501940Y-5812051D01*
X4491248Y-5784196D01*
X4489022Y-5780865D01*
X4475161Y-5777828D01*
X4473747Y-5779242D01*
X4473747Y-5776413D01*
X4470709Y-5762553D01*
X4443452Y-5750416D01*
X4413626Y-5749635D01*
X4385770Y-5760327D01*
X4382440Y-5762553D01*
X4379402Y-5776413D01*
X4426575Y-5823586D01*
X4473747Y-5776413D01*
X4473747Y-5779242D01*
X4427989Y-5825000D01*
X4428546Y-5825557D01*
X4427132Y-5826971D01*
X4426575Y-5826414D01*
X4426018Y-5826971D01*
X4425161Y-5826114D01*
X4424604Y-5825557D01*
X4425161Y-5825000D01*
X4377988Y-5777828D01*
X4364127Y-5780865D01*
X4351991Y-5808122D01*
X4351210Y-5837949D01*
X4361902Y-5865804D01*
X4364127Y-5869135D01*
X4377988Y-5872172D01*
X4371865Y-5878296D01*
X4372113Y-5878543D01*
X4276993Y-5878543D01*
X4276993Y-5680320D01*
X4255252Y-5627702D01*
X4215030Y-5587409D01*
X4162450Y-5565576D01*
X4105517Y-5565526D01*
X4052899Y-5587268D01*
X4012606Y-5627490D01*
X3990773Y-5680070D01*
X3990723Y-5737003D01*
X4012465Y-5789621D01*
X4052687Y-5829914D01*
X4105267Y-5851747D01*
X4162200Y-5851796D01*
X4214818Y-5830055D01*
X4255110Y-5789833D01*
X4276944Y-5737253D01*
X4276993Y-5680320D01*
X4276993Y-5878543D01*
X3963976Y-5878543D01*
X3963976Y-3963976D01*
X7847047Y-3963976D01*
X7847047Y-5234550D01*
X7838826Y-5226328D01*
X7825962Y-5221000D01*
X7820300Y-5221000D01*
X7820300Y-4105517D01*
X7798559Y-4052899D01*
X7758337Y-4012606D01*
X7705757Y-3990773D01*
X7648824Y-3990723D01*
X7596206Y-4012465D01*
X7555913Y-4052687D01*
X7534080Y-4105267D01*
X7534030Y-4162200D01*
X7555772Y-4214818D01*
X7595994Y-4255110D01*
X7648574Y-4276944D01*
X7705507Y-4276993D01*
X7758125Y-4255252D01*
X7798418Y-4215030D01*
X7820251Y-4162450D01*
X7820300Y-4105517D01*
X7820300Y-5221000D01*
X7787017Y-5221000D01*
X7787017Y-5100196D01*
X7787017Y-4760196D01*
X7771825Y-4723429D01*
X7743719Y-4695274D01*
X7706979Y-4680017D01*
X7667196Y-4679983D01*
X7630429Y-4695175D01*
X7602274Y-4723281D01*
X7587017Y-4760021D01*
X7586983Y-4799804D01*
X7602175Y-4836571D01*
X7630281Y-4864726D01*
X7667021Y-4879983D01*
X7706804Y-4880017D01*
X7743571Y-4864825D01*
X7771726Y-4836719D01*
X7786983Y-4799979D01*
X7787017Y-4760196D01*
X7787017Y-5100196D01*
X7771825Y-5063429D01*
X7743719Y-5035274D01*
X7706979Y-5020017D01*
X7667196Y-5019983D01*
X7630429Y-5035175D01*
X7602274Y-5063281D01*
X7587017Y-5100021D01*
X7586983Y-5139804D01*
X7602175Y-5176571D01*
X7630281Y-5204726D01*
X7667021Y-5219983D01*
X7706804Y-5220017D01*
X7743571Y-5204825D01*
X7771726Y-5176719D01*
X7786983Y-5139979D01*
X7787017Y-5100196D01*
X7787017Y-5221000D01*
X7784750Y-5221000D01*
X7776000Y-5229750D01*
X7776000Y-5299000D01*
X7776787Y-5299000D01*
X7776787Y-5301000D01*
X7776000Y-5301000D01*
X7776000Y-5370250D01*
X7784750Y-5379000D01*
X7825962Y-5379000D01*
X7838826Y-5373672D01*
X7847047Y-5365450D01*
X7847047Y-5878543D01*
X7847047Y-5878543D01*
G37*
X7847047Y-5878543D02*
X7820300Y-5878543D01*
X7820300Y-5680320D01*
X7798559Y-5627702D01*
X7774000Y-5603100D01*
X7774000Y-5370250D01*
X7774000Y-5301000D01*
X7774000Y-5299000D01*
X7774000Y-5229750D01*
X7765250Y-5221000D01*
X7724038Y-5221000D01*
X7711174Y-5226328D01*
X7701328Y-5236174D01*
X7696000Y-5249038D01*
X7696000Y-5262962D01*
X7696000Y-5290250D01*
X7704750Y-5299000D01*
X7774000Y-5299000D01*
X7774000Y-5301000D01*
X7704750Y-5301000D01*
X7696000Y-5309750D01*
X7696000Y-5337038D01*
X7696000Y-5350962D01*
X7701328Y-5363826D01*
X7711174Y-5373672D01*
X7724038Y-5379000D01*
X7765250Y-5379000D01*
X7774000Y-5370250D01*
X7774000Y-5603100D01*
X7758337Y-5587409D01*
X7705757Y-5565576D01*
X7648824Y-5565526D01*
X7596206Y-5587268D01*
X7555913Y-5627490D01*
X7534080Y-5680070D01*
X7534030Y-5737003D01*
X7555772Y-5789621D01*
X7595994Y-5829914D01*
X7648574Y-5851747D01*
X7705507Y-5851796D01*
X7758125Y-5830055D01*
X7798418Y-5789833D01*
X7820251Y-5737253D01*
X7820300Y-5680320D01*
X7820300Y-5878543D01*
X7487511Y-5878543D01*
X7487511Y-5483069D01*
X7473381Y-5445897D01*
X7470046Y-5440905D01*
X7453592Y-5434830D01*
X7388422Y-5500000D01*
X7453592Y-5565170D01*
X7470046Y-5559095D01*
X7486339Y-5522819D01*
X7487511Y-5483069D01*
X7487511Y-5878543D01*
X7452177Y-5878543D01*
X7452177Y-5566584D01*
X7387008Y-5501414D01*
X7321838Y-5566584D01*
X7327913Y-5583038D01*
X7364189Y-5599332D01*
X7403938Y-5600503D01*
X7441110Y-5586374D01*
X7446102Y-5583038D01*
X7452177Y-5566584D01*
X7452177Y-5878543D01*
X6686793Y-5878543D01*
X6695351Y-5870000D01*
X6900000Y-5870000D01*
X6917221Y-5866575D01*
X6931820Y-5856820D01*
X7286954Y-5501685D01*
X7286505Y-5516931D01*
X7300634Y-5554103D01*
X7303970Y-5559095D01*
X7320424Y-5565170D01*
X7385594Y-5500000D01*
X7385037Y-5499443D01*
X7386451Y-5498029D01*
X7387008Y-5498586D01*
X7452177Y-5433416D01*
X7446102Y-5416962D01*
X7409827Y-5400668D01*
X7388597Y-5400043D01*
X7556820Y-5231820D01*
X7566575Y-5217221D01*
X7570000Y-5200000D01*
X7570000Y-4930000D01*
X7567094Y-4915391D01*
X7567094Y-4573743D01*
X7567094Y-4350121D01*
X7551880Y-4310010D01*
X7548195Y-4304493D01*
X7530922Y-4297460D01*
X7529508Y-4298875D01*
X7529508Y-4296046D01*
X7522475Y-4278774D01*
X7483355Y-4261169D01*
X7440475Y-4259874D01*
X7400364Y-4275088D01*
X7394848Y-4278774D01*
X7387815Y-4296046D01*
X7458661Y-4366893D01*
X7529508Y-4296046D01*
X7529508Y-4298875D01*
X7460076Y-4368307D01*
X7530922Y-4439154D01*
X7548195Y-4432121D01*
X7565800Y-4393000D01*
X7567094Y-4350121D01*
X7567094Y-4573743D01*
X7551880Y-4533632D01*
X7548195Y-4528115D01*
X7530922Y-4521082D01*
X7529508Y-4522497D01*
X7529508Y-4519668D01*
X7522475Y-4502396D01*
X7483355Y-4484791D01*
X7440475Y-4483496D01*
X7400364Y-4498710D01*
X7394848Y-4502396D01*
X7387815Y-4519668D01*
X7382795Y-4514649D01*
X7382795Y-4507125D01*
X7383995Y-4505928D01*
X7392313Y-4485894D01*
X7392332Y-4464201D01*
X7384101Y-4444281D01*
X7387815Y-4440568D01*
X7394848Y-4457840D01*
X7433968Y-4475445D01*
X7476848Y-4476740D01*
X7516959Y-4461526D01*
X7522475Y-4457840D01*
X7529508Y-4440568D01*
X7458661Y-4369721D01*
X7458105Y-4370278D01*
X7456690Y-4368864D01*
X7457247Y-4368307D01*
X7386401Y-4297460D01*
X7369128Y-4304493D01*
X7351523Y-4343614D01*
X7350229Y-4386494D01*
X7350287Y-4386648D01*
X7081820Y-4118180D01*
X7067221Y-4108425D01*
X7050000Y-4105000D01*
X6791392Y-4105000D01*
X6817100Y-4094378D01*
X6836809Y-4074704D01*
X6847488Y-4048985D01*
X6847512Y-4021137D01*
X6836878Y-3995400D01*
X6817204Y-3975691D01*
X6791485Y-3965012D01*
X6763637Y-3964988D01*
X6737900Y-3975622D01*
X6718191Y-3995296D01*
X6707512Y-4021015D01*
X6707488Y-4048863D01*
X6718122Y-4074600D01*
X6737796Y-4094309D01*
X6763515Y-4104988D01*
X6777461Y-4105000D01*
X6598444Y-4105000D01*
X6593464Y-4100011D01*
X6571787Y-4091010D01*
X6548316Y-4090990D01*
X6526623Y-4099953D01*
X6510011Y-4116536D01*
X6509996Y-4116572D01*
X6505000Y-4111567D01*
X6505000Y-4080000D01*
X6501575Y-4062779D01*
X6491820Y-4048180D01*
X6451820Y-4008180D01*
X6437221Y-3998425D01*
X6420000Y-3995000D01*
X6240000Y-3995000D01*
X6222779Y-3998425D01*
X6208180Y-4008180D01*
X6192510Y-4023851D01*
X6192512Y-4021137D01*
X6181878Y-3995400D01*
X6162204Y-3975691D01*
X6136485Y-3965012D01*
X6108637Y-3964988D01*
X6082900Y-3975622D01*
X6063191Y-3995296D01*
X6052512Y-4021015D01*
X6052488Y-4048863D01*
X6063122Y-4074600D01*
X6082796Y-4094309D01*
X6108515Y-4104988D01*
X6111370Y-4104990D01*
X6081360Y-4135000D01*
X5938640Y-4135000D01*
X5905157Y-4101517D01*
X5913515Y-4104988D01*
X5941363Y-4105012D01*
X5967100Y-4094378D01*
X5986809Y-4074704D01*
X5997488Y-4048985D01*
X5997512Y-4021137D01*
X5986878Y-3995400D01*
X5967204Y-3975691D01*
X5941485Y-3965012D01*
X5913637Y-3964988D01*
X5887900Y-3975622D01*
X5868191Y-3995296D01*
X5857512Y-4021015D01*
X5857488Y-4048863D01*
X5860998Y-4057359D01*
X5811820Y-4008180D01*
X5797221Y-3998425D01*
X5780000Y-3995000D01*
X5400000Y-3995000D01*
X5382779Y-3998425D01*
X5368180Y-4008180D01*
X5342501Y-4033859D01*
X5342512Y-4021137D01*
X5331878Y-3995400D01*
X5312204Y-3975691D01*
X5286485Y-3965012D01*
X5258637Y-3964988D01*
X5232900Y-3975622D01*
X5213191Y-3995296D01*
X5202512Y-4021015D01*
X5202488Y-4048863D01*
X5213122Y-4074600D01*
X5232796Y-4094309D01*
X5258515Y-4104988D01*
X5271361Y-4104999D01*
X5147512Y-4228848D01*
X5147512Y-4021137D01*
X5136878Y-3995400D01*
X5117204Y-3975691D01*
X5091485Y-3965012D01*
X5063637Y-3964988D01*
X5037900Y-3975622D01*
X5018191Y-3995296D01*
X5007512Y-4021015D01*
X5007488Y-4048863D01*
X5018122Y-4074600D01*
X5037796Y-4094309D01*
X5063515Y-4104988D01*
X5091363Y-4105012D01*
X5117100Y-4094378D01*
X5136809Y-4074704D01*
X5147488Y-4048985D01*
X5147512Y-4021137D01*
X5147512Y-4228848D01*
X4971360Y-4405000D01*
X4919010Y-4405000D01*
X4919010Y-4138316D01*
X4910047Y-4116623D01*
X4893464Y-4100011D01*
X4871787Y-4091010D01*
X4848316Y-4090990D01*
X4826623Y-4099953D01*
X4810011Y-4116536D01*
X4809996Y-4116572D01*
X4793464Y-4100011D01*
X4771787Y-4091010D01*
X4748316Y-4090990D01*
X4726623Y-4099953D01*
X4725642Y-4100932D01*
X4723672Y-4096174D01*
X4713826Y-4086328D01*
X4700962Y-4081000D01*
X4687038Y-4081000D01*
X4669750Y-4081000D01*
X4661000Y-4089750D01*
X4661000Y-4149000D01*
X4661787Y-4149000D01*
X4661787Y-4151000D01*
X4661000Y-4151000D01*
X4661000Y-4210250D01*
X4669750Y-4219000D01*
X4687038Y-4219000D01*
X4700962Y-4219000D01*
X4713826Y-4213672D01*
X4723672Y-4203826D01*
X4725635Y-4199086D01*
X4726536Y-4199989D01*
X4748213Y-4208990D01*
X4771684Y-4209010D01*
X4793377Y-4200047D01*
X4809989Y-4183464D01*
X4810004Y-4183428D01*
X4826536Y-4199989D01*
X4848213Y-4208990D01*
X4871684Y-4209010D01*
X4893377Y-4200047D01*
X4909989Y-4183464D01*
X4918990Y-4161787D01*
X4919010Y-4138316D01*
X4919010Y-4405000D01*
X4659000Y-4405000D01*
X4659000Y-4210250D01*
X4659000Y-4151000D01*
X4659000Y-4149000D01*
X4659000Y-4089750D01*
X4650250Y-4081000D01*
X4632962Y-4081000D01*
X4619038Y-4081000D01*
X4610000Y-4084744D01*
X4600962Y-4081000D01*
X4587038Y-4081000D01*
X4569750Y-4081000D01*
X4561000Y-4089750D01*
X4561000Y-4149000D01*
X4599750Y-4149000D01*
X4620250Y-4149000D01*
X4659000Y-4149000D01*
X4659000Y-4151000D01*
X4620250Y-4151000D01*
X4599750Y-4151000D01*
X4561000Y-4151000D01*
X4561000Y-4210250D01*
X4569750Y-4219000D01*
X4587038Y-4219000D01*
X4600962Y-4219000D01*
X4610000Y-4215256D01*
X4619038Y-4219000D01*
X4632962Y-4219000D01*
X4650250Y-4219000D01*
X4659000Y-4210250D01*
X4659000Y-4405000D01*
X4559000Y-4405000D01*
X4559000Y-4210250D01*
X4559000Y-4151000D01*
X4559000Y-4149000D01*
X4559000Y-4089750D01*
X4550250Y-4081000D01*
X4532962Y-4081000D01*
X4519038Y-4081000D01*
X4506174Y-4086328D01*
X4496328Y-4096174D01*
X4492512Y-4105387D01*
X4492512Y-4021137D01*
X4481878Y-3995400D01*
X4462204Y-3975691D01*
X4436485Y-3965012D01*
X4408637Y-3964988D01*
X4382900Y-3975622D01*
X4363191Y-3995296D01*
X4352512Y-4021015D01*
X4352488Y-4048863D01*
X4363122Y-4074600D01*
X4382796Y-4094309D01*
X4408515Y-4104988D01*
X4436363Y-4105012D01*
X4462100Y-4094378D01*
X4481809Y-4074704D01*
X4492488Y-4048985D01*
X4492512Y-4021137D01*
X4492512Y-4105387D01*
X4491000Y-4109038D01*
X4491000Y-4140250D01*
X4499750Y-4149000D01*
X4559000Y-4149000D01*
X4559000Y-4151000D01*
X4499750Y-4151000D01*
X4491000Y-4159750D01*
X4491000Y-4190962D01*
X4496328Y-4203826D01*
X4506174Y-4213672D01*
X4519038Y-4219000D01*
X4532962Y-4219000D01*
X4550250Y-4219000D01*
X4559000Y-4210250D01*
X4559000Y-4405000D01*
X4276993Y-4405000D01*
X4276993Y-4105517D01*
X4255252Y-4052899D01*
X4215030Y-4012606D01*
X4162450Y-3990773D01*
X4105517Y-3990723D01*
X4052899Y-4012465D01*
X4012606Y-4052687D01*
X3990773Y-4105267D01*
X3990723Y-4162200D01*
X4012465Y-4214818D01*
X4052687Y-4255110D01*
X4105267Y-4276944D01*
X4162200Y-4276993D01*
X4214818Y-4255252D01*
X4255110Y-4215030D01*
X4276944Y-4162450D01*
X4276993Y-4105517D01*
X4276993Y-4405000D01*
X4244000Y-4405000D01*
X4244000Y-4401027D01*
X4240194Y-4391839D01*
X4233161Y-4384806D01*
X4223973Y-4381000D01*
X4214027Y-4381000D01*
X4126027Y-4381000D01*
X4116839Y-4384806D01*
X4112500Y-4389145D01*
X4108161Y-4384806D01*
X4098973Y-4381000D01*
X4089027Y-4381000D01*
X4001027Y-4381000D01*
X3991839Y-4384806D01*
X3984806Y-4391839D01*
X3981000Y-4401027D01*
X3981000Y-4410973D01*
X3981000Y-4498973D01*
X3984806Y-4508161D01*
X3991839Y-4515194D01*
X4001027Y-4519000D01*
X4005000Y-4519000D01*
X4005000Y-4600000D01*
X4008425Y-4617221D01*
X4018180Y-4631820D01*
X4030000Y-4643640D01*
X4030000Y-4674645D01*
X4023806Y-4680839D01*
X4020000Y-4690027D01*
X4020000Y-4699973D01*
X4020000Y-4759973D01*
X4023806Y-4769161D01*
X4030839Y-4776194D01*
X4035801Y-4778250D01*
X4035038Y-4783624D01*
X4075000Y-4823586D01*
X4114962Y-4783624D01*
X4114199Y-4778250D01*
X4119161Y-4776194D01*
X4126194Y-4769161D01*
X4130000Y-4759973D01*
X4130000Y-4757771D01*
X4140756Y-4768546D01*
X4139524Y-4769022D01*
X4136859Y-4770802D01*
X4135038Y-4783624D01*
X4175000Y-4823586D01*
X4214962Y-4783624D01*
X4213141Y-4770802D01*
X4211330Y-4770000D01*
X4346360Y-4770000D01*
X4555000Y-4978640D01*
X4555000Y-5243497D01*
X4551839Y-5244806D01*
X4544806Y-5251839D01*
X4541000Y-5261027D01*
X4541000Y-5270973D01*
X4541000Y-5338973D01*
X4544806Y-5348161D01*
X4551839Y-5355194D01*
X4561027Y-5359000D01*
X4570973Y-5359000D01*
X4638973Y-5359000D01*
X4648161Y-5355194D01*
X4653852Y-5349504D01*
X4663099Y-5358304D01*
X4688219Y-5367987D01*
X4699000Y-5360243D01*
X4699000Y-5301000D01*
X4698213Y-5301000D01*
X4698213Y-5299000D01*
X4699000Y-5299000D01*
X4699000Y-5239757D01*
X4688219Y-5232013D01*
X4663099Y-5241696D01*
X4653852Y-5250496D01*
X4648161Y-5244806D01*
X4645000Y-5243497D01*
X4645000Y-4960000D01*
X4641575Y-4942779D01*
X4631820Y-4928180D01*
X4396820Y-4693180D01*
X4382221Y-4683425D01*
X4365000Y-4680000D01*
X4207792Y-4680000D01*
X4206196Y-4678400D01*
X4185988Y-4670010D01*
X4164108Y-4669990D01*
X4143886Y-4678346D01*
X4130000Y-4692208D01*
X4130000Y-4690027D01*
X4126194Y-4680839D01*
X4120000Y-4674645D01*
X4120000Y-4625000D01*
X4116575Y-4607779D01*
X4106820Y-4593180D01*
X4095000Y-4581360D01*
X4095000Y-4519000D01*
X4098973Y-4519000D01*
X4108161Y-4515194D01*
X4112500Y-4510855D01*
X4116839Y-4515194D01*
X4126027Y-4519000D01*
X4135973Y-4519000D01*
X4223973Y-4519000D01*
X4233161Y-4515194D01*
X4240194Y-4508161D01*
X4244000Y-4498973D01*
X4244000Y-4495000D01*
X4990000Y-4495000D01*
X5007221Y-4491575D01*
X5021820Y-4481820D01*
X5341000Y-4162640D01*
X5341000Y-4190962D01*
X5346328Y-4203826D01*
X5356174Y-4213672D01*
X5369038Y-4219000D01*
X5382962Y-4219000D01*
X5400250Y-4219000D01*
X5409000Y-4210250D01*
X5409000Y-4151000D01*
X5408213Y-4151000D01*
X5408213Y-4149000D01*
X5409000Y-4149000D01*
X5409000Y-4148213D01*
X5411000Y-4148213D01*
X5411000Y-4149000D01*
X5449750Y-4149000D01*
X5470250Y-4149000D01*
X5509000Y-4149000D01*
X5509000Y-4148213D01*
X5511000Y-4148213D01*
X5511000Y-4149000D01*
X5511787Y-4149000D01*
X5511787Y-4151000D01*
X5511000Y-4151000D01*
X5511000Y-4210250D01*
X5519750Y-4219000D01*
X5537038Y-4219000D01*
X5550962Y-4219000D01*
X5563826Y-4213672D01*
X5565000Y-4212497D01*
X5565000Y-5051360D01*
X5509000Y-5107360D01*
X5509000Y-4210250D01*
X5509000Y-4151000D01*
X5470250Y-4151000D01*
X5449750Y-4151000D01*
X5411000Y-4151000D01*
X5411000Y-4210250D01*
X5419750Y-4219000D01*
X5437038Y-4219000D01*
X5450962Y-4219000D01*
X5460000Y-4215256D01*
X5469038Y-4219000D01*
X5482962Y-4219000D01*
X5500250Y-4219000D01*
X5509000Y-4210250D01*
X5509000Y-5107360D01*
X5444361Y-5171999D01*
X5444361Y-5067256D01*
X5444361Y-4307256D01*
X5434585Y-4283596D01*
X5416499Y-4265479D01*
X5392856Y-4255661D01*
X5367256Y-4255639D01*
X5343596Y-4265415D01*
X5325479Y-4283501D01*
X5315661Y-4307144D01*
X5315639Y-4332744D01*
X5325415Y-4356404D01*
X5343501Y-4374521D01*
X5367144Y-4384339D01*
X5392744Y-4384361D01*
X5416404Y-4374585D01*
X5434521Y-4356499D01*
X5444339Y-4332856D01*
X5444361Y-4307256D01*
X5444361Y-5067256D01*
X5434585Y-5043596D01*
X5416499Y-5025479D01*
X5392856Y-5015661D01*
X5367256Y-5015639D01*
X5343596Y-5025415D01*
X5325479Y-5043501D01*
X5315661Y-5067144D01*
X5315639Y-5092744D01*
X5325415Y-5116404D01*
X5343501Y-5134521D01*
X5367144Y-5144339D01*
X5392744Y-5144361D01*
X5416404Y-5134585D01*
X5434521Y-5116499D01*
X5444339Y-5092856D01*
X5444361Y-5067256D01*
X5444361Y-5171999D01*
X5418180Y-5198180D01*
X5408425Y-5212779D01*
X5405000Y-5230000D01*
X5405000Y-5243497D01*
X5401839Y-5244806D01*
X5394806Y-5251839D01*
X5393497Y-5255000D01*
X5380000Y-5255000D01*
X5362779Y-5258425D01*
X5348180Y-5268180D01*
X5308180Y-5308180D01*
X5298425Y-5322779D01*
X5295000Y-5340000D01*
X5295000Y-5498548D01*
X5286485Y-5495012D01*
X5258637Y-5494988D01*
X5232900Y-5505622D01*
X5213191Y-5525296D01*
X5202512Y-5551015D01*
X5202488Y-5578863D01*
X5213122Y-5604600D01*
X5232796Y-5624309D01*
X5258515Y-5634988D01*
X5286363Y-5635012D01*
X5312100Y-5624378D01*
X5331809Y-5604704D01*
X5342488Y-5578985D01*
X5342499Y-5566139D01*
X5405000Y-5628640D01*
X5405000Y-5711556D01*
X5400011Y-5716536D01*
X5391010Y-5738213D01*
X5390990Y-5761684D01*
X5399953Y-5783377D01*
X5416536Y-5799989D01*
X5438213Y-5808990D01*
X5461684Y-5809010D01*
X5483377Y-5800047D01*
X5499989Y-5783464D01*
X5500004Y-5783428D01*
X5516536Y-5799989D01*
X5538213Y-5808990D01*
X5561684Y-5809010D01*
X5583377Y-5800047D01*
X5592015Y-5791424D01*
X5594806Y-5798161D01*
X5601839Y-5805194D01*
X5611027Y-5809000D01*
X5620973Y-5809000D01*
X5688973Y-5809000D01*
X5698161Y-5805194D01*
X5705194Y-5798161D01*
X5706000Y-5796215D01*
X5706000Y-5798973D01*
X5709806Y-5808161D01*
X5716839Y-5815194D01*
X5726027Y-5819000D01*
X5735973Y-5819000D01*
X5823973Y-5819000D01*
X5833161Y-5815194D01*
X5840194Y-5808161D01*
X5844000Y-5798973D01*
X5844000Y-5789027D01*
X5844000Y-5701027D01*
X5840194Y-5691839D01*
X5833161Y-5684806D01*
X5823973Y-5681000D01*
X5814027Y-5681000D01*
X5726027Y-5681000D01*
X5716839Y-5684806D01*
X5709806Y-5691839D01*
X5706000Y-5701027D01*
X5706000Y-5703785D01*
X5705194Y-5701839D01*
X5698161Y-5694806D01*
X5695000Y-5693497D01*
X5695000Y-5600000D01*
X5691575Y-5582779D01*
X5681820Y-5568180D01*
X5655000Y-5541360D01*
X5655000Y-5488444D01*
X5659989Y-5483464D01*
X5660004Y-5483428D01*
X5676536Y-5499989D01*
X5698213Y-5508990D01*
X5721684Y-5509010D01*
X5743377Y-5500047D01*
X5759989Y-5483464D01*
X5760004Y-5483428D01*
X5776536Y-5499989D01*
X5798213Y-5508990D01*
X5821684Y-5509010D01*
X5843377Y-5500047D01*
X5859989Y-5483464D01*
X5868990Y-5461787D01*
X5869010Y-5438316D01*
X5860047Y-5416623D01*
X5843464Y-5400011D01*
X5821787Y-5391010D01*
X5798316Y-5390990D01*
X5776623Y-5399953D01*
X5760011Y-5416536D01*
X5759996Y-5416572D01*
X5743464Y-5400011D01*
X5721787Y-5391010D01*
X5698316Y-5390990D01*
X5690140Y-5394368D01*
X5691575Y-5392221D01*
X5695000Y-5375000D01*
X5695000Y-5338539D01*
X5700000Y-5331056D01*
X5707125Y-5341719D01*
X5726266Y-5354509D01*
X5748844Y-5359000D01*
X5751156Y-5359000D01*
X5773734Y-5354509D01*
X5792875Y-5341719D01*
X5805665Y-5322578D01*
X5810156Y-5300000D01*
X5805665Y-5277422D01*
X5792875Y-5258281D01*
X5773734Y-5245491D01*
X5751156Y-5241000D01*
X5748844Y-5241000D01*
X5726266Y-5245491D01*
X5707125Y-5258281D01*
X5700000Y-5268944D01*
X5692875Y-5258281D01*
X5673734Y-5245491D01*
X5651156Y-5241000D01*
X5648844Y-5241000D01*
X5626266Y-5245491D01*
X5607125Y-5258281D01*
X5606038Y-5259907D01*
X5586901Y-5241696D01*
X5561781Y-5232013D01*
X5551000Y-5239757D01*
X5551000Y-5299000D01*
X5551787Y-5299000D01*
X5551787Y-5301000D01*
X5551000Y-5301000D01*
X5551000Y-5360243D01*
X5561781Y-5367987D01*
X5586901Y-5358304D01*
X5605000Y-5341080D01*
X5605000Y-5356360D01*
X5578180Y-5383180D01*
X5571170Y-5393672D01*
X5563826Y-5386328D01*
X5550962Y-5381000D01*
X5537038Y-5381000D01*
X5519750Y-5381000D01*
X5511000Y-5389750D01*
X5511000Y-5449000D01*
X5511787Y-5449000D01*
X5511787Y-5451000D01*
X5511000Y-5451000D01*
X5511000Y-5510250D01*
X5519750Y-5519000D01*
X5537038Y-5519000D01*
X5550962Y-5519000D01*
X5563826Y-5513672D01*
X5565000Y-5512497D01*
X5565000Y-5560000D01*
X5568425Y-5577221D01*
X5578180Y-5591820D01*
X5605000Y-5618640D01*
X5605000Y-5693497D01*
X5601839Y-5694806D01*
X5594806Y-5701839D01*
X5592015Y-5708577D01*
X5583464Y-5700011D01*
X5561787Y-5691010D01*
X5538316Y-5690990D01*
X5516623Y-5699953D01*
X5500011Y-5716536D01*
X5499996Y-5716572D01*
X5495000Y-5711567D01*
X5495000Y-5610000D01*
X5491575Y-5592779D01*
X5481820Y-5578180D01*
X5422640Y-5519000D01*
X5437038Y-5519000D01*
X5450962Y-5519000D01*
X5460000Y-5515256D01*
X5469038Y-5519000D01*
X5482962Y-5519000D01*
X5500250Y-5519000D01*
X5509000Y-5510250D01*
X5509000Y-5451000D01*
X5509000Y-5449000D01*
X5509000Y-5389750D01*
X5500250Y-5381000D01*
X5482962Y-5381000D01*
X5469038Y-5381000D01*
X5460000Y-5384744D01*
X5450962Y-5381000D01*
X5437038Y-5381000D01*
X5419750Y-5381000D01*
X5411000Y-5389750D01*
X5411000Y-5449000D01*
X5449750Y-5449000D01*
X5470250Y-5449000D01*
X5509000Y-5449000D01*
X5509000Y-5451000D01*
X5470250Y-5451000D01*
X5449750Y-5451000D01*
X5411000Y-5451000D01*
X5411000Y-5451787D01*
X5409000Y-5451787D01*
X5409000Y-5451000D01*
X5408213Y-5451000D01*
X5408213Y-5449000D01*
X5409000Y-5449000D01*
X5409000Y-5389750D01*
X5400250Y-5381000D01*
X5385000Y-5381000D01*
X5385000Y-5358640D01*
X5395142Y-5348497D01*
X5401839Y-5355194D01*
X5411027Y-5359000D01*
X5420973Y-5359000D01*
X5488973Y-5359000D01*
X5498161Y-5355194D01*
X5503852Y-5349504D01*
X5513099Y-5358304D01*
X5538219Y-5367987D01*
X5549000Y-5360243D01*
X5549000Y-5301000D01*
X5548213Y-5301000D01*
X5548213Y-5299000D01*
X5549000Y-5299000D01*
X5549000Y-5239757D01*
X5538219Y-5232013D01*
X5513099Y-5241696D01*
X5503852Y-5250496D01*
X5498497Y-5245142D01*
X5641820Y-5101820D01*
X5651575Y-5087221D01*
X5655000Y-5070000D01*
X5655000Y-4188444D01*
X5659989Y-4183464D01*
X5660004Y-4183428D01*
X5676536Y-4199989D01*
X5698213Y-4208990D01*
X5721684Y-4209010D01*
X5743377Y-4200047D01*
X5759989Y-4183464D01*
X5768990Y-4161787D01*
X5769010Y-4138316D01*
X5760047Y-4116623D01*
X5743464Y-4100011D01*
X5721787Y-4091010D01*
X5698316Y-4090990D01*
X5676623Y-4099953D01*
X5660011Y-4116536D01*
X5659996Y-4116572D01*
X5643464Y-4100011D01*
X5621787Y-4091010D01*
X5598316Y-4090990D01*
X5576623Y-4099953D01*
X5575642Y-4100932D01*
X5573672Y-4096174D01*
X5563826Y-4086328D01*
X5560619Y-4085000D01*
X5761360Y-4085000D01*
X5856360Y-4180000D01*
X5848180Y-4188180D01*
X5838425Y-4202779D01*
X5835000Y-4220000D01*
X5835000Y-4284600D01*
X5834585Y-4283596D01*
X5816499Y-4265479D01*
X5792856Y-4255661D01*
X5767256Y-4255639D01*
X5743596Y-4265415D01*
X5725479Y-4283501D01*
X5715661Y-4307144D01*
X5715639Y-4332744D01*
X5725415Y-4356404D01*
X5743501Y-4374521D01*
X5767144Y-4384339D01*
X5792744Y-4384361D01*
X5816404Y-4374585D01*
X5834521Y-4356499D01*
X5835000Y-4355347D01*
X5835000Y-5044600D01*
X5834585Y-5043596D01*
X5816499Y-5025479D01*
X5792856Y-5015661D01*
X5767256Y-5015639D01*
X5743596Y-5025415D01*
X5725479Y-5043501D01*
X5715661Y-5067144D01*
X5715639Y-5092744D01*
X5725415Y-5116404D01*
X5743501Y-5134521D01*
X5767144Y-5144339D01*
X5792744Y-5144361D01*
X5816404Y-5134585D01*
X5834521Y-5116499D01*
X5835000Y-5115347D01*
X5835000Y-5200000D01*
X5838425Y-5217221D01*
X5848180Y-5231820D01*
X5948180Y-5331820D01*
X5962779Y-5341575D01*
X5980000Y-5345000D01*
X6233497Y-5345000D01*
X6234806Y-5348161D01*
X6241839Y-5355194D01*
X6251027Y-5359000D01*
X6260973Y-5359000D01*
X6328973Y-5359000D01*
X6338161Y-5355194D01*
X6343852Y-5349504D01*
X6353099Y-5358304D01*
X6378219Y-5367987D01*
X6389000Y-5360243D01*
X6389000Y-5301000D01*
X6388213Y-5301000D01*
X6388213Y-5299000D01*
X6389000Y-5299000D01*
X6389000Y-5239757D01*
X6378219Y-5232013D01*
X6353099Y-5241696D01*
X6343852Y-5250496D01*
X6338161Y-5244806D01*
X6328973Y-5241000D01*
X6319027Y-5241000D01*
X6251027Y-5241000D01*
X6241839Y-5244806D01*
X6234806Y-5251839D01*
X6233497Y-5255000D01*
X5998640Y-5255000D01*
X5925000Y-5181360D01*
X5925000Y-5155355D01*
X5930839Y-5161194D01*
X5940027Y-5165000D01*
X5949973Y-5165000D01*
X6569973Y-5165000D01*
X6579161Y-5161194D01*
X6586194Y-5154161D01*
X6588188Y-5149348D01*
X6593180Y-5156820D01*
X6705000Y-5268640D01*
X6705000Y-5411567D01*
X6693464Y-5400011D01*
X6671787Y-5391010D01*
X6648316Y-5390990D01*
X6626623Y-5399953D01*
X6610011Y-5416536D01*
X6609996Y-5416572D01*
X6593464Y-5400011D01*
X6571787Y-5391010D01*
X6548316Y-5390990D01*
X6526623Y-5399953D01*
X6510011Y-5416536D01*
X6509996Y-5416572D01*
X6505000Y-5411567D01*
X6505000Y-5398640D01*
X6521820Y-5381820D01*
X6531575Y-5367221D01*
X6535000Y-5350000D01*
X6535000Y-5338539D01*
X6540000Y-5331056D01*
X6547125Y-5341719D01*
X6566266Y-5354509D01*
X6588844Y-5359000D01*
X6591156Y-5359000D01*
X6613734Y-5354509D01*
X6632875Y-5341719D01*
X6645665Y-5322578D01*
X6650156Y-5300000D01*
X6645665Y-5277422D01*
X6632875Y-5258281D01*
X6613734Y-5245491D01*
X6591156Y-5241000D01*
X6588844Y-5241000D01*
X6566266Y-5245491D01*
X6547125Y-5258281D01*
X6540000Y-5268944D01*
X6532875Y-5258281D01*
X6513734Y-5245491D01*
X6491156Y-5241000D01*
X6488844Y-5241000D01*
X6466266Y-5245491D01*
X6447125Y-5258281D01*
X6446038Y-5259907D01*
X6426901Y-5241696D01*
X6401781Y-5232013D01*
X6391000Y-5239757D01*
X6391000Y-5299000D01*
X6391787Y-5299000D01*
X6391787Y-5301000D01*
X6391000Y-5301000D01*
X6391000Y-5360243D01*
X6401781Y-5367987D01*
X6419513Y-5361151D01*
X6418425Y-5362779D01*
X6415000Y-5380000D01*
X6415000Y-5387503D01*
X6413826Y-5386328D01*
X6400962Y-5381000D01*
X6387038Y-5381000D01*
X6369750Y-5381000D01*
X6361000Y-5389750D01*
X6361000Y-5449000D01*
X6361787Y-5449000D01*
X6361787Y-5451000D01*
X6361000Y-5451000D01*
X6361000Y-5510250D01*
X6369750Y-5519000D01*
X6387038Y-5519000D01*
X6400962Y-5519000D01*
X6413826Y-5513672D01*
X6423672Y-5503826D01*
X6425635Y-5499086D01*
X6426536Y-5499989D01*
X6448213Y-5508990D01*
X6471684Y-5509010D01*
X6493377Y-5500047D01*
X6509989Y-5483464D01*
X6510004Y-5483428D01*
X6526536Y-5499989D01*
X6548213Y-5508990D01*
X6571684Y-5509010D01*
X6593377Y-5500047D01*
X6609989Y-5483464D01*
X6610004Y-5483428D01*
X6626536Y-5499989D01*
X6648213Y-5508990D01*
X6652367Y-5508993D01*
X6631360Y-5530000D01*
X6525000Y-5530000D01*
X6507779Y-5533425D01*
X6493180Y-5543180D01*
X6359000Y-5677360D01*
X6359000Y-5510250D01*
X6359000Y-5451000D01*
X6359000Y-5449000D01*
X6359000Y-5389750D01*
X6350250Y-5381000D01*
X6332962Y-5381000D01*
X6319038Y-5381000D01*
X6310000Y-5384744D01*
X6300962Y-5381000D01*
X6287038Y-5381000D01*
X6269750Y-5381000D01*
X6261000Y-5389750D01*
X6261000Y-5449000D01*
X6299750Y-5449000D01*
X6320250Y-5449000D01*
X6359000Y-5449000D01*
X6359000Y-5451000D01*
X6320250Y-5451000D01*
X6299750Y-5451000D01*
X6261000Y-5451000D01*
X6261000Y-5510250D01*
X6269750Y-5519000D01*
X6287038Y-5519000D01*
X6300962Y-5519000D01*
X6310000Y-5515256D01*
X6319038Y-5519000D01*
X6332962Y-5519000D01*
X6350250Y-5519000D01*
X6359000Y-5510250D01*
X6359000Y-5677360D01*
X6331360Y-5705000D01*
X6259000Y-5705000D01*
X6259000Y-5510250D01*
X6259000Y-5451000D01*
X6259000Y-5449000D01*
X6259000Y-5389750D01*
X6250250Y-5381000D01*
X6232962Y-5381000D01*
X6219038Y-5381000D01*
X6206174Y-5386328D01*
X6196328Y-5396174D01*
X6191000Y-5409038D01*
X6191000Y-5440250D01*
X6199750Y-5449000D01*
X6259000Y-5449000D01*
X6259000Y-5451000D01*
X6199750Y-5451000D01*
X6191000Y-5459750D01*
X6191000Y-5490962D01*
X6196328Y-5503826D01*
X6206174Y-5513672D01*
X6219038Y-5519000D01*
X6232962Y-5519000D01*
X6250250Y-5519000D01*
X6259000Y-5510250D01*
X6259000Y-5705000D01*
X6222422Y-5705000D01*
X6212368Y-5694928D01*
X6192512Y-5686683D01*
X6192512Y-5551137D01*
X6181878Y-5525400D01*
X6162204Y-5505691D01*
X6136485Y-5495012D01*
X6108637Y-5494988D01*
X6082900Y-5505622D01*
X6063191Y-5525296D01*
X6052512Y-5551015D01*
X6052488Y-5578863D01*
X6063122Y-5604600D01*
X6082796Y-5624309D01*
X6108515Y-5634988D01*
X6136363Y-5635012D01*
X6162100Y-5624378D01*
X6181809Y-5604704D01*
X6192488Y-5578985D01*
X6192512Y-5551137D01*
X6192512Y-5686683D01*
X6188486Y-5685011D01*
X6162627Y-5684989D01*
X6138729Y-5694864D01*
X6120428Y-5713132D01*
X6110511Y-5737014D01*
X6110489Y-5762873D01*
X6120364Y-5786771D01*
X6138632Y-5805072D01*
X6162514Y-5814989D01*
X6188373Y-5815011D01*
X6212271Y-5805136D01*
X6222426Y-5795000D01*
X6350000Y-5795000D01*
X6367221Y-5791575D01*
X6381820Y-5781820D01*
X6543640Y-5620000D01*
X6650000Y-5620000D01*
X6667221Y-5616575D01*
X6681820Y-5606820D01*
X6708157Y-5580482D01*
X6718122Y-5604600D01*
X6737796Y-5624309D01*
X6763515Y-5634988D01*
X6791363Y-5635012D01*
X6817100Y-5624378D01*
X6836809Y-5604704D01*
X6847488Y-5578985D01*
X6847498Y-5567836D01*
X6853110Y-5583038D01*
X6889386Y-5599332D01*
X6929135Y-5600503D01*
X6966307Y-5586374D01*
X6971299Y-5583038D01*
X6977374Y-5566584D01*
X6912205Y-5501414D01*
X6911648Y-5501971D01*
X6910234Y-5500557D01*
X6910791Y-5500000D01*
X6845621Y-5434830D01*
X6829167Y-5440905D01*
X6827894Y-5443740D01*
X6827894Y-5061694D01*
X6820142Y-5051000D01*
X6726000Y-5051000D01*
X6726000Y-5118450D01*
X6761450Y-5118450D01*
X6787569Y-5112857D01*
X6809559Y-5097694D01*
X6824072Y-5075271D01*
X6827894Y-5061694D01*
X6827894Y-5443740D01*
X6812873Y-5477181D01*
X6812096Y-5503570D01*
X6791485Y-5495012D01*
X6789710Y-5495011D01*
X6791575Y-5492221D01*
X6795000Y-5475000D01*
X6795000Y-5250000D01*
X6791575Y-5232779D01*
X6781820Y-5218180D01*
X6680329Y-5116690D01*
X6688550Y-5118450D01*
X6724000Y-5118450D01*
X6724000Y-5051000D01*
X6723213Y-5051000D01*
X6723213Y-5049000D01*
X6724000Y-5049000D01*
X6724000Y-5048213D01*
X6726000Y-5048213D01*
X6726000Y-5049000D01*
X6820142Y-5049000D01*
X6827894Y-5038306D01*
X6824072Y-5024729D01*
X6809559Y-5002306D01*
X6798963Y-4995000D01*
X7081360Y-4995000D01*
X7104336Y-5017976D01*
X7088209Y-5010715D01*
X7044468Y-5009387D01*
X7003549Y-5024898D01*
X6997889Y-5028681D01*
X6990592Y-5046178D01*
X7063000Y-5118586D01*
X7063557Y-5118029D01*
X7064971Y-5119443D01*
X7064414Y-5120000D01*
X7136822Y-5192408D01*
X7154213Y-5185156D01*
X7154213Y-5282442D01*
X7153013Y-5283639D01*
X7150003Y-5290889D01*
X7147041Y-5283720D01*
X7135408Y-5272067D01*
X7135408Y-5193822D01*
X7063000Y-5121414D01*
X7061586Y-5122828D01*
X7061586Y-5120000D01*
X6989178Y-5047592D01*
X6971681Y-5054889D01*
X6953715Y-5094791D01*
X6952387Y-5138532D01*
X6967898Y-5179451D01*
X6971681Y-5185111D01*
X6989178Y-5192408D01*
X7061586Y-5120000D01*
X7061586Y-5122828D01*
X6990592Y-5193822D01*
X6997889Y-5211319D01*
X7037791Y-5229285D01*
X7081532Y-5230613D01*
X7122451Y-5215102D01*
X7128111Y-5211319D01*
X7135408Y-5193822D01*
X7135408Y-5272067D01*
X7131715Y-5268368D01*
X7111681Y-5260049D01*
X7089989Y-5260030D01*
X7069940Y-5268314D01*
X7054588Y-5283639D01*
X7046269Y-5303673D01*
X7046250Y-5325366D01*
X7054534Y-5345414D01*
X7063044Y-5353938D01*
X7054588Y-5362379D01*
X7046269Y-5382413D01*
X7046250Y-5404106D01*
X7054534Y-5424154D01*
X7069860Y-5439506D01*
X7089894Y-5447825D01*
X7111586Y-5447844D01*
X7131634Y-5439560D01*
X7143377Y-5427838D01*
X7143645Y-5428532D01*
X7145404Y-5431165D01*
X7158177Y-5432928D01*
X7197798Y-5393307D01*
X7158177Y-5353686D01*
X7145404Y-5355449D01*
X7143757Y-5359171D01*
X7138531Y-5353936D01*
X7146987Y-5345495D01*
X7149997Y-5338245D01*
X7152959Y-5345414D01*
X7159617Y-5352083D01*
X7159591Y-5352272D01*
X7199213Y-5391893D01*
X7238834Y-5352272D01*
X7238808Y-5352087D01*
X7245412Y-5345495D01*
X7253731Y-5325461D01*
X7253750Y-5303768D01*
X7245466Y-5283720D01*
X7244213Y-5282464D01*
X7244213Y-5049213D01*
X7240787Y-5031992D01*
X7231032Y-5017393D01*
X7131820Y-4918180D01*
X7117221Y-4908425D01*
X7100000Y-4905000D01*
X6798128Y-4905000D01*
X6790645Y-4900000D01*
X6803620Y-4891330D01*
X6816290Y-4872368D01*
X6820740Y-4850000D01*
X6816290Y-4827632D01*
X6803620Y-4808670D01*
X6784657Y-4795999D01*
X6770000Y-4793084D01*
X6770000Y-4725000D01*
X6766575Y-4707779D01*
X6756820Y-4693180D01*
X6680329Y-4616690D01*
X6688550Y-4618450D01*
X6724000Y-4618450D01*
X6724000Y-4551000D01*
X6723213Y-4551000D01*
X6723213Y-4549000D01*
X6724000Y-4549000D01*
X6724000Y-4548213D01*
X6726000Y-4548213D01*
X6726000Y-4549000D01*
X6726787Y-4549000D01*
X6726787Y-4551000D01*
X6726000Y-4551000D01*
X6726000Y-4618450D01*
X6761450Y-4618450D01*
X6780000Y-4614478D01*
X6780000Y-4650000D01*
X6783425Y-4667221D01*
X6793180Y-4681820D01*
X6923180Y-4811820D01*
X6937779Y-4821575D01*
X6955000Y-4825000D01*
X6973393Y-4825000D01*
X6978175Y-4836571D01*
X7006281Y-4864726D01*
X7043021Y-4879983D01*
X7082804Y-4880017D01*
X7119571Y-4864825D01*
X7147726Y-4836719D01*
X7162983Y-4799979D01*
X7163017Y-4760196D01*
X7147825Y-4723429D01*
X7119719Y-4695274D01*
X7101826Y-4687844D01*
X7082979Y-4680017D01*
X7043196Y-4679983D01*
X7006429Y-4695175D01*
X6978274Y-4723281D01*
X6973475Y-4734836D01*
X6938363Y-4699723D01*
X6959525Y-4700362D01*
X6999636Y-4685148D01*
X7005152Y-4681462D01*
X7012185Y-4664190D01*
X6941339Y-4593343D01*
X6940782Y-4593900D01*
X6939368Y-4592486D01*
X6939924Y-4591929D01*
X6939368Y-4591372D01*
X6940782Y-4589958D01*
X6941339Y-4590515D01*
X6941895Y-4589958D01*
X6943310Y-4591372D01*
X6942753Y-4591929D01*
X7013599Y-4662776D01*
X7030872Y-4655743D01*
X7038713Y-4638318D01*
X7047820Y-4642350D01*
X7073483Y-4642967D01*
X7097429Y-4633717D01*
X7100063Y-4631958D01*
X7101826Y-4619185D01*
X7062205Y-4579564D01*
X7061648Y-4580121D01*
X7060234Y-4578706D01*
X7060791Y-4578150D01*
X7060234Y-4577593D01*
X7061648Y-4576179D01*
X7062205Y-4576735D01*
X7101826Y-4537114D01*
X7100371Y-4526575D01*
X7101826Y-4516036D01*
X7062205Y-4476414D01*
X7022583Y-4516036D01*
X7023857Y-4525259D01*
X7013599Y-4521082D01*
X7019721Y-4514961D01*
X7019095Y-4514335D01*
X7021169Y-4514621D01*
X7060791Y-4475000D01*
X7060234Y-4474443D01*
X7061648Y-4473029D01*
X7062205Y-4473586D01*
X7101826Y-4433964D01*
X7100063Y-4421192D01*
X7076589Y-4410800D01*
X7050926Y-4410182D01*
X7038602Y-4414943D01*
X7048477Y-4393000D01*
X7049771Y-4350121D01*
X7034558Y-4310010D01*
X7030872Y-4304493D01*
X7013599Y-4297460D01*
X7012185Y-4298875D01*
X7012185Y-4296046D01*
X7005152Y-4278774D01*
X6966032Y-4261169D01*
X6923152Y-4259874D01*
X6883041Y-4275088D01*
X6877525Y-4278774D01*
X6870492Y-4296046D01*
X6941339Y-4366893D01*
X7012185Y-4296046D01*
X7012185Y-4298875D01*
X6942753Y-4368307D01*
X6943310Y-4368864D01*
X6941895Y-4370278D01*
X6941339Y-4369721D01*
X6939924Y-4371136D01*
X6939924Y-4368307D01*
X6869078Y-4297460D01*
X6851805Y-4304493D01*
X6834200Y-4343614D01*
X6832906Y-4386494D01*
X6848120Y-4426605D01*
X6851805Y-4432121D01*
X6869078Y-4439154D01*
X6939924Y-4368307D01*
X6939924Y-4371136D01*
X6870492Y-4440568D01*
X6877525Y-4457840D01*
X6916645Y-4475445D01*
X6959525Y-4476740D01*
X6997968Y-4462159D01*
X6997387Y-4486279D01*
X7003289Y-4501557D01*
X6966032Y-4484791D01*
X6923152Y-4483496D01*
X6883041Y-4498710D01*
X6877525Y-4502396D01*
X6870492Y-4519668D01*
X6870000Y-4519176D01*
X6870000Y-4475000D01*
X6866575Y-4457779D01*
X6856820Y-4443180D01*
X6831820Y-4418180D01*
X6817221Y-4408425D01*
X6800000Y-4405000D01*
X6798128Y-4405000D01*
X6790645Y-4400000D01*
X6803620Y-4391330D01*
X6816290Y-4372368D01*
X6820740Y-4350000D01*
X6816290Y-4327632D01*
X6803620Y-4308670D01*
X6784657Y-4295999D01*
X6762290Y-4291550D01*
X6687710Y-4291550D01*
X6665343Y-4295999D01*
X6646380Y-4308670D01*
X6633710Y-4327632D01*
X6633705Y-4327655D01*
X6593180Y-4368180D01*
X6590000Y-4372940D01*
X6590000Y-4255027D01*
X6586194Y-4245839D01*
X6579161Y-4238806D01*
X6569973Y-4235000D01*
X6560027Y-4235000D01*
X6359000Y-4235000D01*
X6359000Y-4210250D01*
X6359000Y-4151000D01*
X6320250Y-4151000D01*
X6299750Y-4151000D01*
X6261000Y-4151000D01*
X6261000Y-4210250D01*
X6269750Y-4219000D01*
X6287038Y-4219000D01*
X6300962Y-4219000D01*
X6310000Y-4215256D01*
X6319038Y-4219000D01*
X6332962Y-4219000D01*
X6350250Y-4219000D01*
X6359000Y-4210250D01*
X6359000Y-4235000D01*
X6259000Y-4235000D01*
X5940027Y-4235000D01*
X5930839Y-4238806D01*
X5925000Y-4244645D01*
X5925000Y-4238640D01*
X5938640Y-4225000D01*
X6100000Y-4225000D01*
X6117221Y-4221575D01*
X6131820Y-4211820D01*
X6192640Y-4151000D01*
X6199750Y-4151000D01*
X6191000Y-4159750D01*
X6191000Y-4190962D01*
X6196328Y-4203826D01*
X6206174Y-4213672D01*
X6219038Y-4219000D01*
X6232962Y-4219000D01*
X6250250Y-4219000D01*
X6259000Y-4210250D01*
X6259000Y-4151000D01*
X6258213Y-4151000D01*
X6258213Y-4149000D01*
X6259000Y-4149000D01*
X6259000Y-4148213D01*
X6261000Y-4148213D01*
X6261000Y-4149000D01*
X6299750Y-4149000D01*
X6320250Y-4149000D01*
X6359000Y-4149000D01*
X6359000Y-4148213D01*
X6361000Y-4148213D01*
X6361000Y-4149000D01*
X6361787Y-4149000D01*
X6361787Y-4151000D01*
X6361000Y-4151000D01*
X6361000Y-4210250D01*
X6369750Y-4219000D01*
X6387038Y-4219000D01*
X6400962Y-4219000D01*
X6413826Y-4213672D01*
X6423672Y-4203826D01*
X6425635Y-4199086D01*
X6426536Y-4199989D01*
X6448213Y-4208990D01*
X6471684Y-4209010D01*
X6493377Y-4200047D01*
X6509989Y-4183464D01*
X6510004Y-4183428D01*
X6526536Y-4199989D01*
X6548213Y-4208990D01*
X6571684Y-4209010D01*
X6593377Y-4200047D01*
X6598433Y-4195000D01*
X7031360Y-4195000D01*
X7261514Y-4425153D01*
X7250264Y-4420482D01*
X7228571Y-4420463D01*
X7208523Y-4428747D01*
X7199999Y-4437256D01*
X7191558Y-4428801D01*
X7171524Y-4420482D01*
X7149831Y-4420463D01*
X7129783Y-4428747D01*
X7118040Y-4440469D01*
X7117772Y-4439775D01*
X7116013Y-4437142D01*
X7103240Y-4435379D01*
X7101826Y-4436793D01*
X7063619Y-4475000D01*
X7103240Y-4514621D01*
X7116013Y-4512858D01*
X7117660Y-4509136D01*
X7129702Y-4521199D01*
X7142655Y-4526578D01*
X7129783Y-4531896D01*
X7118040Y-4543618D01*
X7117772Y-4542925D01*
X7116013Y-4540292D01*
X7103240Y-4538528D01*
X7063619Y-4578150D01*
X7103240Y-4617771D01*
X7116013Y-4616008D01*
X7117660Y-4612286D01*
X7129702Y-4624349D01*
X7149736Y-4632668D01*
X7171429Y-4632687D01*
X7191477Y-4624403D01*
X7200001Y-4615893D01*
X7208442Y-4624349D01*
X7228476Y-4632668D01*
X7250169Y-4632687D01*
X7270217Y-4624403D01*
X7285569Y-4609077D01*
X7288580Y-4601827D01*
X7291542Y-4608997D01*
X7306868Y-4624349D01*
X7326901Y-4632668D01*
X7348594Y-4632687D01*
X7357408Y-4629045D01*
X7365442Y-4650227D01*
X7369128Y-4655743D01*
X7386401Y-4662776D01*
X7457247Y-4591929D01*
X7456690Y-4591372D01*
X7458105Y-4589958D01*
X7458661Y-4590515D01*
X7529508Y-4519668D01*
X7529508Y-4522497D01*
X7460076Y-4591929D01*
X7530922Y-4662776D01*
X7548195Y-4655743D01*
X7565800Y-4616622D01*
X7567094Y-4573743D01*
X7567094Y-4915391D01*
X7566575Y-4912779D01*
X7556820Y-4898180D01*
X7470181Y-4811542D01*
X7474983Y-4799979D01*
X7475017Y-4760196D01*
X7459825Y-4723429D01*
X7435555Y-4699115D01*
X7476848Y-4700362D01*
X7516959Y-4685148D01*
X7522475Y-4681462D01*
X7529508Y-4664190D01*
X7458661Y-4593343D01*
X7457247Y-4594758D01*
X7387815Y-4664190D01*
X7394259Y-4680017D01*
X7355196Y-4679983D01*
X7318429Y-4695175D01*
X7290274Y-4723281D01*
X7275017Y-4760021D01*
X7274983Y-4799804D01*
X7290175Y-4836571D01*
X7318281Y-4864726D01*
X7355021Y-4879983D01*
X7394804Y-4880017D01*
X7406532Y-4875171D01*
X7480000Y-4948640D01*
X7480000Y-5181360D01*
X7475017Y-5186343D01*
X7475017Y-5100196D01*
X7459825Y-5063429D01*
X7431719Y-5035274D01*
X7394979Y-5020017D01*
X7355196Y-5019983D01*
X7318429Y-5035175D01*
X7290274Y-5063281D01*
X7275017Y-5100021D01*
X7274983Y-5139804D01*
X7290175Y-5176571D01*
X7318281Y-5204726D01*
X7355021Y-5219983D01*
X7394804Y-5220017D01*
X7431571Y-5204825D01*
X7459726Y-5176719D01*
X7474983Y-5139979D01*
X7475017Y-5100196D01*
X7475017Y-5186343D01*
X7263653Y-5397707D01*
X7264030Y-5382029D01*
X7254780Y-5358082D01*
X7253021Y-5355449D01*
X7240248Y-5353686D01*
X7200627Y-5393307D01*
X7201184Y-5393864D01*
X7199769Y-5395278D01*
X7199213Y-5394721D01*
X7159591Y-5434343D01*
X7161355Y-5447115D01*
X7184828Y-5457507D01*
X7203406Y-5457954D01*
X7012708Y-5648653D01*
X7012708Y-5483069D01*
X6998578Y-5445897D01*
X6995243Y-5440905D01*
X6978788Y-5434830D01*
X6977374Y-5436245D01*
X6977374Y-5433416D01*
X6971299Y-5416962D01*
X6935024Y-5400668D01*
X6895274Y-5399497D01*
X6858102Y-5413626D01*
X6853110Y-5416962D01*
X6847035Y-5433416D01*
X6912205Y-5498586D01*
X6977374Y-5433416D01*
X6977374Y-5436245D01*
X6913619Y-5500000D01*
X6978788Y-5565170D01*
X6995243Y-5559095D01*
X7011536Y-5522819D01*
X7012708Y-5483069D01*
X7012708Y-5648653D01*
X6881360Y-5780000D01*
X6695347Y-5780000D01*
X6685293Y-5769928D01*
X6661411Y-5760011D01*
X6635553Y-5759989D01*
X6611654Y-5769864D01*
X6593353Y-5788132D01*
X6583436Y-5812014D01*
X6583414Y-5837873D01*
X6593289Y-5861771D01*
X6610031Y-5878543D01*
X6489942Y-5878543D01*
X6506647Y-5861868D01*
X6516564Y-5837986D01*
X6516586Y-5812127D01*
X6506711Y-5788229D01*
X6488442Y-5769928D01*
X6464561Y-5760011D01*
X6438702Y-5759989D01*
X6414803Y-5769864D01*
X6396503Y-5788132D01*
X6386586Y-5812014D01*
X6386564Y-5837873D01*
X6396438Y-5861771D01*
X6413181Y-5878543D01*
X6039511Y-5878543D01*
X6039511Y-5737127D01*
X6029636Y-5713229D01*
X6011368Y-5694928D01*
X5997512Y-5689174D01*
X5997512Y-5551137D01*
X5986878Y-5525400D01*
X5967204Y-5505691D01*
X5941485Y-5495012D01*
X5913637Y-5494988D01*
X5887900Y-5505622D01*
X5868191Y-5525296D01*
X5857512Y-5551015D01*
X5857488Y-5578863D01*
X5868122Y-5604600D01*
X5887796Y-5624309D01*
X5913515Y-5634988D01*
X5941363Y-5635012D01*
X5967100Y-5624378D01*
X5986809Y-5604704D01*
X5997488Y-5578985D01*
X5997512Y-5551137D01*
X5997512Y-5689174D01*
X5987486Y-5685011D01*
X5961627Y-5684989D01*
X5937729Y-5694864D01*
X5919428Y-5713132D01*
X5909511Y-5737014D01*
X5909489Y-5762873D01*
X5919364Y-5786771D01*
X5937632Y-5805072D01*
X5961514Y-5814989D01*
X5987373Y-5815011D01*
X6011271Y-5805136D01*
X6029572Y-5786868D01*
X6039489Y-5762986D01*
X6039511Y-5737127D01*
X6039511Y-5878543D01*
X5394000Y-5878543D01*
X5394000Y-5801027D01*
X5390194Y-5791839D01*
X5383161Y-5784806D01*
X5373973Y-5781000D01*
X5364027Y-5781000D01*
X5276027Y-5781000D01*
X5266839Y-5784806D01*
X5259806Y-5791839D01*
X5256000Y-5801027D01*
X5256000Y-5810973D01*
X5256000Y-5878543D01*
X5186793Y-5878543D01*
X5203497Y-5861868D01*
X5213414Y-5837986D01*
X5213436Y-5812127D01*
X5203562Y-5788229D01*
X5185293Y-5769928D01*
X5161411Y-5760011D01*
X5147512Y-5759999D01*
X5147512Y-5551137D01*
X5136878Y-5525400D01*
X5117204Y-5505691D01*
X5091485Y-5495012D01*
X5063637Y-5494988D01*
X5037900Y-5505622D01*
X5019010Y-5524479D01*
X5019010Y-5438316D01*
X5010047Y-5416623D01*
X4993464Y-5400011D01*
X4971787Y-5391010D01*
X4948316Y-5390990D01*
X4926623Y-5399953D01*
X4910011Y-5416536D01*
X4909996Y-5416572D01*
X4893464Y-5400011D01*
X4871787Y-5391010D01*
X4848316Y-5390990D01*
X4826623Y-5399953D01*
X4810011Y-5416536D01*
X4809996Y-5416572D01*
X4805000Y-5411567D01*
X4805000Y-5408640D01*
X4831820Y-5381820D01*
X4841575Y-5367221D01*
X4845000Y-5350000D01*
X4845000Y-5338539D01*
X4850000Y-5331056D01*
X4857125Y-5341719D01*
X4876266Y-5354509D01*
X4898844Y-5359000D01*
X4901156Y-5359000D01*
X4923734Y-5354509D01*
X4942875Y-5341719D01*
X4955665Y-5322578D01*
X4960156Y-5300000D01*
X4955665Y-5277422D01*
X4942875Y-5258281D01*
X4923734Y-5245491D01*
X4901156Y-5241000D01*
X4898844Y-5241000D01*
X4876266Y-5245491D01*
X4857125Y-5258281D01*
X4850000Y-5268944D01*
X4842875Y-5258281D01*
X4823734Y-5245491D01*
X4801156Y-5241000D01*
X4798844Y-5241000D01*
X4776266Y-5245491D01*
X4757125Y-5258281D01*
X4756038Y-5259907D01*
X4736901Y-5241696D01*
X4711781Y-5232013D01*
X4701000Y-5239757D01*
X4701000Y-5299000D01*
X4701787Y-5299000D01*
X4701787Y-5301000D01*
X4701000Y-5301000D01*
X4701000Y-5360243D01*
X4711781Y-5367987D01*
X4725044Y-5362874D01*
X4718425Y-5372779D01*
X4715414Y-5387917D01*
X4713826Y-5386328D01*
X4700962Y-5381000D01*
X4687038Y-5381000D01*
X4669750Y-5381000D01*
X4661000Y-5389750D01*
X4661000Y-5449000D01*
X4661787Y-5449000D01*
X4661787Y-5451000D01*
X4661000Y-5451000D01*
X4661000Y-5510250D01*
X4669750Y-5519000D01*
X4687038Y-5519000D01*
X4700962Y-5519000D01*
X4713826Y-5513672D01*
X4723672Y-5503826D01*
X4725635Y-5499086D01*
X4726536Y-5499989D01*
X4748213Y-5508990D01*
X4771684Y-5509010D01*
X4793377Y-5500047D01*
X4809989Y-5483464D01*
X4810004Y-5483428D01*
X4826536Y-5499989D01*
X4848213Y-5508990D01*
X4871684Y-5509010D01*
X4893377Y-5500047D01*
X4909989Y-5483464D01*
X4910004Y-5483428D01*
X4926536Y-5499989D01*
X4948213Y-5508990D01*
X4971684Y-5509010D01*
X4993377Y-5500047D01*
X5009989Y-5483464D01*
X5018990Y-5461787D01*
X5019010Y-5438316D01*
X5019010Y-5524479D01*
X5018191Y-5525296D01*
X5007512Y-5551015D01*
X5007488Y-5578863D01*
X5018122Y-5604600D01*
X5037796Y-5624309D01*
X5063515Y-5634988D01*
X5091363Y-5635012D01*
X5117100Y-5624378D01*
X5136809Y-5604704D01*
X5147488Y-5578985D01*
X5147512Y-5551137D01*
X5147512Y-5759999D01*
X5135553Y-5759989D01*
X5111654Y-5769864D01*
X5093353Y-5788132D01*
X5083436Y-5812014D01*
X5083414Y-5837873D01*
X5093289Y-5861771D01*
X5110031Y-5878543D01*
X4989942Y-5878543D01*
X5006647Y-5861868D01*
X5016564Y-5837986D01*
X5016586Y-5812127D01*
X5006711Y-5788229D01*
X4988442Y-5769928D01*
X4964561Y-5760011D01*
X4938702Y-5759989D01*
X4914803Y-5769864D01*
X4904649Y-5780000D01*
X4823640Y-5780000D01*
X4711820Y-5668180D01*
X4697221Y-5658425D01*
X4680000Y-5655000D01*
X4659000Y-5655000D01*
X4659000Y-5510250D01*
X4659000Y-5451000D01*
X4659000Y-5449000D01*
X4659000Y-5389750D01*
X4650250Y-5381000D01*
X4632962Y-5381000D01*
X4619038Y-5381000D01*
X4610000Y-5384744D01*
X4600962Y-5381000D01*
X4587038Y-5381000D01*
X4569750Y-5381000D01*
X4561000Y-5389750D01*
X4561000Y-5449000D01*
X4599750Y-5449000D01*
X4620250Y-5449000D01*
X4659000Y-5449000D01*
X4659000Y-5451000D01*
X4620250Y-5451000D01*
X4599750Y-5451000D01*
X4561000Y-5451000D01*
X4561000Y-5510250D01*
X4569750Y-5519000D01*
X4587038Y-5519000D01*
X4600962Y-5519000D01*
X4610000Y-5515256D01*
X4619038Y-5519000D01*
X4632962Y-5519000D01*
X4650250Y-5519000D01*
X4659000Y-5510250D01*
X4659000Y-5655000D01*
X4559000Y-5655000D01*
X4559000Y-5510250D01*
X4559000Y-5451000D01*
X4559000Y-5449000D01*
X4559000Y-5389750D01*
X4550250Y-5381000D01*
X4532962Y-5381000D01*
X4519038Y-5381000D01*
X4506174Y-5386328D01*
X4496328Y-5396174D01*
X4491000Y-5409038D01*
X4491000Y-5440250D01*
X4499750Y-5449000D01*
X4559000Y-5449000D01*
X4559000Y-5451000D01*
X4499750Y-5451000D01*
X4491000Y-5459750D01*
X4491000Y-5490962D01*
X4496328Y-5503826D01*
X4506174Y-5513672D01*
X4519038Y-5519000D01*
X4532962Y-5519000D01*
X4550250Y-5519000D01*
X4559000Y-5510250D01*
X4559000Y-5655000D01*
X4398640Y-5655000D01*
X4365000Y-5621360D01*
X4365000Y-5606481D01*
X4382796Y-5624309D01*
X4408515Y-5634988D01*
X4436363Y-5635012D01*
X4462100Y-5624378D01*
X4481809Y-5604704D01*
X4492488Y-5578985D01*
X4492512Y-5551137D01*
X4481878Y-5525400D01*
X4462204Y-5505691D01*
X4436485Y-5495012D01*
X4408637Y-5494988D01*
X4382900Y-5505622D01*
X4365000Y-5523491D01*
X4365000Y-5404038D01*
X4372950Y-5412002D01*
X4396593Y-5421819D01*
X4422193Y-5421841D01*
X4445853Y-5412065D01*
X4463970Y-5393979D01*
X4473788Y-5370336D01*
X4473810Y-5344736D01*
X4473810Y-4944736D01*
X4464034Y-4921077D01*
X4445948Y-4902959D01*
X4422305Y-4893141D01*
X4396705Y-4893119D01*
X4373045Y-4902895D01*
X4354927Y-4920981D01*
X4345110Y-4944624D01*
X4345088Y-4970224D01*
X4354864Y-4993884D01*
X4372950Y-5012002D01*
X4396593Y-5021819D01*
X4422193Y-5021841D01*
X4445853Y-5012065D01*
X4463970Y-4993979D01*
X4473788Y-4970336D01*
X4473810Y-4944736D01*
X4473810Y-5344736D01*
X4464034Y-5321077D01*
X4445948Y-5302959D01*
X4422305Y-5293141D01*
X4396705Y-5293119D01*
X4373045Y-5302895D01*
X4365000Y-5310926D01*
X4365000Y-5270000D01*
X4361575Y-5252779D01*
X4351820Y-5238180D01*
X4240294Y-5126654D01*
X4240294Y-5013646D01*
X4240294Y-4813646D01*
X4230978Y-4789524D01*
X4229198Y-4786859D01*
X4216376Y-4785038D01*
X4176414Y-4825000D01*
X4216376Y-4864962D01*
X4229198Y-4863141D01*
X4239668Y-4839497D01*
X4240294Y-4813646D01*
X4240294Y-5013646D01*
X4230978Y-4989524D01*
X4229198Y-4986859D01*
X4216376Y-4985038D01*
X4176414Y-5025000D01*
X4216376Y-5064962D01*
X4229198Y-5063141D01*
X4239668Y-5039497D01*
X4240294Y-5013646D01*
X4240294Y-5126654D01*
X4230008Y-5116368D01*
X4230010Y-5114108D01*
X4221654Y-5093886D01*
X4209244Y-5081454D01*
X4210476Y-5080978D01*
X4213141Y-5079198D01*
X4214962Y-5066376D01*
X4175000Y-5026414D01*
X4173586Y-5027828D01*
X4173586Y-5025000D01*
X4133624Y-4985038D01*
X4125000Y-4986263D01*
X4116376Y-4985038D01*
X4076414Y-5025000D01*
X4116376Y-5064962D01*
X4125000Y-5063737D01*
X4133624Y-5064962D01*
X4173586Y-5025000D01*
X4173586Y-5027828D01*
X4135038Y-5066376D01*
X4136859Y-5079198D01*
X4141135Y-5081092D01*
X4128400Y-5093804D01*
X4125002Y-5101989D01*
X4121654Y-5093886D01*
X4109244Y-5081454D01*
X4110476Y-5080978D01*
X4113141Y-5079198D01*
X4114962Y-5066376D01*
X4075000Y-5026414D01*
X4074443Y-5026971D01*
X4073029Y-5025557D01*
X4073586Y-5025000D01*
X4073029Y-5024443D01*
X4074443Y-5023029D01*
X4075000Y-5023586D01*
X4114962Y-4983624D01*
X4113141Y-4970802D01*
X4108865Y-4968908D01*
X4121600Y-4956196D01*
X4124998Y-4948011D01*
X4128346Y-4956114D01*
X4140756Y-4968546D01*
X4139524Y-4969022D01*
X4136859Y-4970802D01*
X4135038Y-4983624D01*
X4175000Y-5023586D01*
X4214962Y-4983624D01*
X4213141Y-4970802D01*
X4208865Y-4968908D01*
X4221600Y-4956196D01*
X4229990Y-4935988D01*
X4230010Y-4914108D01*
X4221654Y-4893886D01*
X4209244Y-4881454D01*
X4210476Y-4880978D01*
X4213141Y-4879198D01*
X4214962Y-4866376D01*
X4175000Y-4826414D01*
X4173586Y-4827828D01*
X4173586Y-4825000D01*
X4133624Y-4785038D01*
X4125000Y-4786263D01*
X4116376Y-4785038D01*
X4076414Y-4825000D01*
X4116376Y-4864962D01*
X4125000Y-4863737D01*
X4133624Y-4864962D01*
X4173586Y-4825000D01*
X4173586Y-4827828D01*
X4135038Y-4866376D01*
X4136859Y-4879198D01*
X4141135Y-4881092D01*
X4128400Y-4893804D01*
X4125002Y-4901989D01*
X4121654Y-4893886D01*
X4109244Y-4881454D01*
X4110476Y-4880978D01*
X4113141Y-4879198D01*
X4114962Y-4866376D01*
X4075000Y-4826414D01*
X4073586Y-4827828D01*
X4073586Y-4825000D01*
X4033624Y-4785038D01*
X4020802Y-4786859D01*
X4010332Y-4810503D01*
X4009706Y-4836354D01*
X4019022Y-4860476D01*
X4020802Y-4863141D01*
X4033624Y-4864962D01*
X4073586Y-4825000D01*
X4073586Y-4827828D01*
X4035038Y-4866376D01*
X4036859Y-4879198D01*
X4041135Y-4881092D01*
X4028400Y-4893804D01*
X4020010Y-4914012D01*
X4019990Y-4935892D01*
X4020485Y-4937089D01*
X3998787Y-4958787D01*
X3992284Y-4968519D01*
X3990000Y-4980000D01*
X3990000Y-5160000D01*
X3992284Y-5171481D01*
X3998787Y-5181213D01*
X4095000Y-5277426D01*
X4095000Y-5348558D01*
X4091623Y-5349953D01*
X4075011Y-5366536D01*
X4074996Y-5366572D01*
X4058464Y-5350011D01*
X4036787Y-5341010D01*
X4013316Y-5340990D01*
X3991623Y-5349953D01*
X3975011Y-5366536D01*
X3966010Y-5388213D01*
X3965990Y-5411684D01*
X3974953Y-5433377D01*
X3991536Y-5449989D01*
X4013213Y-5458990D01*
X4036684Y-5459010D01*
X4058377Y-5450047D01*
X4074989Y-5433464D01*
X4075004Y-5433428D01*
X4091536Y-5449989D01*
X4113213Y-5458990D01*
X4136684Y-5459010D01*
X4158377Y-5450047D01*
X4167015Y-5441424D01*
X4169806Y-5448161D01*
X4176839Y-5455194D01*
X4186027Y-5459000D01*
X4195973Y-5459000D01*
X4263973Y-5459000D01*
X4273161Y-5455194D01*
X4275000Y-5453355D01*
X4275000Y-5640000D01*
X4278425Y-5657221D01*
X4288180Y-5671820D01*
X4338180Y-5721820D01*
X4348180Y-5731820D01*
X4362779Y-5741575D01*
X4380000Y-5745000D01*
X4661360Y-5745000D01*
X4773180Y-5856820D01*
X4787779Y-5866575D01*
X4805000Y-5870000D01*
X4904653Y-5870000D01*
X4913181Y-5878543D01*
X4661793Y-5878543D01*
X4678497Y-5861868D01*
X4688414Y-5837986D01*
X4688436Y-5812127D01*
X4678562Y-5788229D01*
X4660293Y-5769928D01*
X4636411Y-5760011D01*
X4610553Y-5759989D01*
X4586654Y-5769864D01*
X4568353Y-5788132D01*
X4558436Y-5812014D01*
X4558414Y-5837873D01*
X4568289Y-5861771D01*
X4585031Y-5878543D01*
X4501940Y-5878543D01*
X4481037Y-5878543D01*
X4481285Y-5878296D01*
X4475162Y-5872172D01*
X4489022Y-5869135D01*
X4501158Y-5841878D01*
X4501940Y-5812051D01*
X4491248Y-5784196D01*
X4489022Y-5780865D01*
X4475161Y-5777828D01*
X4473747Y-5779242D01*
X4473747Y-5776413D01*
X4470709Y-5762553D01*
X4443452Y-5750416D01*
X4413626Y-5749635D01*
X4385770Y-5760327D01*
X4382440Y-5762553D01*
X4379402Y-5776413D01*
X4426575Y-5823586D01*
X4473747Y-5776413D01*
X4473747Y-5779242D01*
X4427989Y-5825000D01*
X4428546Y-5825557D01*
X4427132Y-5826971D01*
X4426575Y-5826414D01*
X4426018Y-5826971D01*
X4425161Y-5826114D01*
X4424604Y-5825557D01*
X4425161Y-5825000D01*
X4377988Y-5777828D01*
X4364127Y-5780865D01*
X4351991Y-5808122D01*
X4351210Y-5837949D01*
X4361902Y-5865804D01*
X4364127Y-5869135D01*
X4377988Y-5872172D01*
X4371865Y-5878296D01*
X4372113Y-5878543D01*
X4276993Y-5878543D01*
X4276993Y-5680320D01*
X4255252Y-5627702D01*
X4215030Y-5587409D01*
X4162450Y-5565576D01*
X4105517Y-5565526D01*
X4052899Y-5587268D01*
X4012606Y-5627490D01*
X3990773Y-5680070D01*
X3990723Y-5737003D01*
X4012465Y-5789621D01*
X4052687Y-5829914D01*
X4105267Y-5851747D01*
X4162200Y-5851796D01*
X4214818Y-5830055D01*
X4255110Y-5789833D01*
X4276944Y-5737253D01*
X4276993Y-5680320D01*
X4276993Y-5878543D01*
X3963976Y-5878543D01*
X3963976Y-3963976D01*
X7847047Y-3963976D01*
X7847047Y-5234550D01*
X7838826Y-5226328D01*
X7825962Y-5221000D01*
X7820300Y-5221000D01*
X7820300Y-4105517D01*
X7798559Y-4052899D01*
X7758337Y-4012606D01*
X7705757Y-3990773D01*
X7648824Y-3990723D01*
X7596206Y-4012465D01*
X7555913Y-4052687D01*
X7534080Y-4105267D01*
X7534030Y-4162200D01*
X7555772Y-4214818D01*
X7595994Y-4255110D01*
X7648574Y-4276944D01*
X7705507Y-4276993D01*
X7758125Y-4255252D01*
X7798418Y-4215030D01*
X7820251Y-4162450D01*
X7820300Y-4105517D01*
X7820300Y-5221000D01*
X7787017Y-5221000D01*
X7787017Y-5100196D01*
X7787017Y-4760196D01*
X7771825Y-4723429D01*
X7743719Y-4695274D01*
X7706979Y-4680017D01*
X7667196Y-4679983D01*
X7630429Y-4695175D01*
X7602274Y-4723281D01*
X7587017Y-4760021D01*
X7586983Y-4799804D01*
X7602175Y-4836571D01*
X7630281Y-4864726D01*
X7667021Y-4879983D01*
X7706804Y-4880017D01*
X7743571Y-4864825D01*
X7771726Y-4836719D01*
X7786983Y-4799979D01*
X7787017Y-4760196D01*
X7787017Y-5100196D01*
X7771825Y-5063429D01*
X7743719Y-5035274D01*
X7706979Y-5020017D01*
X7667196Y-5019983D01*
X7630429Y-5035175D01*
X7602274Y-5063281D01*
X7587017Y-5100021D01*
X7586983Y-5139804D01*
X7602175Y-5176571D01*
X7630281Y-5204726D01*
X7667021Y-5219983D01*
X7706804Y-5220017D01*
X7743571Y-5204825D01*
X7771726Y-5176719D01*
X7786983Y-5139979D01*
X7787017Y-5100196D01*
X7787017Y-5221000D01*
X7784750Y-5221000D01*
X7776000Y-5229750D01*
X7776000Y-5299000D01*
X7776787Y-5299000D01*
X7776787Y-5301000D01*
X7776000Y-5301000D01*
X7776000Y-5370250D01*
X7784750Y-5379000D01*
X7825962Y-5379000D01*
X7838826Y-5373672D01*
X7847047Y-5365450D01*
X7847047Y-5878543D01*
M02*
