%FSLAX36Y36*%
G04 Gerber Fmt 3.6, Leading zero omitted, Abs format (unit inch)*
G04 Created by KiCad (PCBNEW (2014-jul-16 BZR unknown)-product) date Sat 24 Jan 2015 08:01:21 PM PST*
%MOIN*%
G01*
G04 APERTURE LIST*
%ADD10C,0.003937*%
%ADD11C,0.006000*%
%ADD12C,0.008000*%
%ADD13C,0.010000*%
%ADD14C,0.005906*%
%ADD15C,0.015000*%
%ADD16C,0.009850*%
%ADD17C,0.009900*%
G04 APERTURE END LIST*
D10*
D11*
X5433052Y-5852595D02*
X5419719Y-5833548D01*
X5410195Y-5852595D02*
X5410195Y-5812595D01*
X5425433Y-5812595D01*
X5429243Y-5814500D01*
X5431148Y-5816405D01*
X5433052Y-5820214D01*
X5433052Y-5825929D01*
X5431148Y-5829738D01*
X5429243Y-5831643D01*
X5425433Y-5833548D01*
X5410195Y-5833548D01*
X5450195Y-5831643D02*
X5463529Y-5831643D01*
X5469243Y-5852595D02*
X5450195Y-5852595D01*
X5450195Y-5812595D01*
X5469243Y-5812595D01*
X5507338Y-5814500D02*
X5503529Y-5812595D01*
X5497814Y-5812595D01*
X5492100Y-5814500D01*
X5488291Y-5818310D01*
X5486386Y-5822119D01*
X5484481Y-5829738D01*
X5484481Y-5835452D01*
X5486386Y-5843071D01*
X5488291Y-5846881D01*
X5492100Y-5850690D01*
X5497814Y-5852595D01*
X5501624Y-5852595D01*
X5507338Y-5850690D01*
X5509243Y-5848786D01*
X5509243Y-5835452D01*
X5501624Y-5835452D01*
X5554957Y-5810690D02*
X5520671Y-5862119D01*
X5581624Y-5831643D02*
X5587338Y-5833548D01*
X5589243Y-5835452D01*
X5591148Y-5839262D01*
X5591148Y-5844976D01*
X5589243Y-5848786D01*
X5587338Y-5850690D01*
X5583529Y-5852595D01*
X5568291Y-5852595D01*
X5568291Y-5812595D01*
X5581624Y-5812595D01*
X5585433Y-5814500D01*
X5587338Y-5816405D01*
X5589243Y-5820214D01*
X5589243Y-5824024D01*
X5587338Y-5827833D01*
X5585433Y-5829738D01*
X5581624Y-5831643D01*
X5568291Y-5831643D01*
X5606386Y-5841167D02*
X5625433Y-5841167D01*
X5602576Y-5852595D02*
X5615910Y-5812595D01*
X5629243Y-5852595D01*
X5636862Y-5812595D02*
X5659719Y-5812595D01*
X5648291Y-5852595D02*
X5648291Y-5812595D01*
X6215714Y-5578095D02*
X6215714Y-5610476D01*
X6217619Y-5614286D01*
X6219524Y-5616190D01*
X6223333Y-5618095D01*
X6230952Y-5618095D01*
X6234762Y-5616190D01*
X6236667Y-5614286D01*
X6238571Y-5610476D01*
X6238571Y-5578095D01*
X6255714Y-5616190D02*
X6261429Y-5618095D01*
X6270952Y-5618095D01*
X6274762Y-5616190D01*
X6276667Y-5614286D01*
X6278571Y-5610476D01*
X6278571Y-5606667D01*
X6276667Y-5602857D01*
X6274762Y-5600952D01*
X6270952Y-5599048D01*
X6263333Y-5597143D01*
X6259524Y-5595238D01*
X6257619Y-5593333D01*
X6255714Y-5589524D01*
X6255714Y-5585714D01*
X6257619Y-5581905D01*
X6259524Y-5580000D01*
X6263333Y-5578095D01*
X6272857Y-5578095D01*
X6278571Y-5580000D01*
X6309048Y-5597143D02*
X6314762Y-5599048D01*
X6316667Y-5600952D01*
X6318571Y-5604762D01*
X6318571Y-5610476D01*
X6316667Y-5614286D01*
X6314762Y-5616190D01*
X6310952Y-5618095D01*
X6295714Y-5618095D01*
X6295714Y-5578095D01*
X6309048Y-5578095D01*
X6312857Y-5580000D01*
X6314762Y-5581905D01*
X6316667Y-5585714D01*
X6316667Y-5589524D01*
X6314762Y-5593333D01*
X6312857Y-5595238D01*
X6309048Y-5597143D01*
X6295714Y-5597143D01*
X6389048Y-5618095D02*
X6375714Y-5599048D01*
X6366191Y-5618095D02*
X6366191Y-5578095D01*
X6381429Y-5578095D01*
X6385238Y-5580000D01*
X6387143Y-5581905D01*
X6389048Y-5585714D01*
X6389048Y-5591429D01*
X6387143Y-5595238D01*
X6385238Y-5597143D01*
X6381429Y-5599048D01*
X6366191Y-5599048D01*
X6406191Y-5597143D02*
X6419524Y-5597143D01*
X6425238Y-5618095D02*
X6406191Y-5618095D01*
X6406191Y-5578095D01*
X6425238Y-5578095D01*
X6463333Y-5580000D02*
X6459524Y-5578095D01*
X6453810Y-5578095D01*
X6448095Y-5580000D01*
X6444286Y-5583810D01*
X6442381Y-5587619D01*
X6440476Y-5595238D01*
X6440476Y-5600952D01*
X6442381Y-5608571D01*
X6444286Y-5612381D01*
X6448095Y-5616190D01*
X6453810Y-5618095D01*
X6457619Y-5618095D01*
X6463333Y-5616190D01*
X6465238Y-5614286D01*
X6465238Y-5600952D01*
X6457619Y-5600952D01*
X6482381Y-5578095D02*
X6482381Y-5610476D01*
X6484286Y-5614286D01*
X6486191Y-5616190D01*
X6490000Y-5618095D01*
X6497619Y-5618095D01*
X6501429Y-5616190D01*
X6503333Y-5614286D01*
X6505238Y-5610476D01*
X6505238Y-5578095D01*
X6543333Y-5618095D02*
X6524286Y-5618095D01*
X6524286Y-5578095D01*
X6554762Y-5606667D02*
X6573810Y-5606667D01*
X6550952Y-5618095D02*
X6564286Y-5578095D01*
X6577619Y-5618095D01*
X6585238Y-5578095D02*
X6608095Y-5578095D01*
X6596667Y-5618095D02*
X6596667Y-5578095D01*
X6629048Y-5578095D02*
X6636667Y-5578095D01*
X6640476Y-5580000D01*
X6644286Y-5583810D01*
X6646190Y-5591429D01*
X6646190Y-5604762D01*
X6644286Y-5612381D01*
X6640476Y-5616190D01*
X6636667Y-5618095D01*
X6629048Y-5618095D01*
X6625238Y-5616190D01*
X6621429Y-5612381D01*
X6619524Y-5604762D01*
X6619524Y-5591429D01*
X6621429Y-5583810D01*
X6625238Y-5580000D01*
X6629048Y-5578095D01*
X6686190Y-5618095D02*
X6672857Y-5599048D01*
X6663333Y-5618095D02*
X6663333Y-5578095D01*
X6678571Y-5578095D01*
X6682381Y-5580000D01*
X6684286Y-5581905D01*
X6686190Y-5585714D01*
X6686190Y-5591429D01*
X6684286Y-5595238D01*
X6682381Y-5597143D01*
X6678571Y-5599048D01*
X6663333Y-5599048D01*
X5356190Y-4597143D02*
X5361905Y-4599048D01*
X5363810Y-4600952D01*
X5365714Y-4604762D01*
X5365714Y-4610476D01*
X5363810Y-4614286D01*
X5361905Y-4616190D01*
X5358095Y-4618095D01*
X5342857Y-4618095D01*
X5342857Y-4578095D01*
X5356190Y-4578095D01*
X5360000Y-4580000D01*
X5361905Y-4581905D01*
X5363810Y-4585714D01*
X5363810Y-4589524D01*
X5361905Y-4593333D01*
X5360000Y-4595238D01*
X5356190Y-4597143D01*
X5342857Y-4597143D01*
X5382857Y-4618095D02*
X5382857Y-4578095D01*
X5398095Y-4578095D01*
X5401905Y-4580000D01*
X5403810Y-4581905D01*
X5405714Y-4585714D01*
X5405714Y-4591429D01*
X5403810Y-4595238D01*
X5401905Y-4597143D01*
X5398095Y-4599048D01*
X5382857Y-4599048D01*
X5419048Y-4578095D02*
X5428571Y-4618095D01*
X5436190Y-4589524D01*
X5443810Y-4618095D01*
X5453333Y-4578095D01*
X5491429Y-4618095D02*
X5478095Y-4599048D01*
X5468571Y-4618095D02*
X5468571Y-4578095D01*
X5483810Y-4578095D01*
X5487619Y-4580000D01*
X5489524Y-4581905D01*
X5491429Y-4585714D01*
X5491429Y-4591429D01*
X5489524Y-4595238D01*
X5487619Y-4597143D01*
X5483810Y-4599048D01*
X5468571Y-4599048D01*
X5561905Y-4618095D02*
X5548571Y-4599048D01*
X5539048Y-4618095D02*
X5539048Y-4578095D01*
X5554286Y-4578095D01*
X5558095Y-4580000D01*
X5560000Y-4581905D01*
X5561905Y-4585714D01*
X5561905Y-4591429D01*
X5560000Y-4595238D01*
X5558095Y-4597143D01*
X5554286Y-4599048D01*
X5539048Y-4599048D01*
X5579048Y-4597143D02*
X5592381Y-4597143D01*
X5598095Y-4618095D02*
X5579048Y-4618095D01*
X5579048Y-4578095D01*
X5598095Y-4578095D01*
X5636190Y-4580000D02*
X5632381Y-4578095D01*
X5626667Y-4578095D01*
X5620952Y-4580000D01*
X5617143Y-4583810D01*
X5615238Y-4587619D01*
X5613333Y-4595238D01*
X5613333Y-4600952D01*
X5615238Y-4608571D01*
X5617143Y-4612381D01*
X5620952Y-4616190D01*
X5626667Y-4618095D01*
X5630476Y-4618095D01*
X5636190Y-4616190D01*
X5638095Y-4614286D01*
X5638095Y-4600952D01*
X5630476Y-4600952D01*
X5655238Y-4578095D02*
X5655238Y-4610476D01*
X5657143Y-4614286D01*
X5659048Y-4616190D01*
X5662857Y-4618095D01*
X5670476Y-4618095D01*
X5674286Y-4616190D01*
X5676190Y-4614286D01*
X5678095Y-4610476D01*
X5678095Y-4578095D01*
X5716190Y-4618095D02*
X5697143Y-4618095D01*
X5697143Y-4578095D01*
X5727619Y-4606667D02*
X5746667Y-4606667D01*
X5723810Y-4618095D02*
X5737143Y-4578095D01*
X5750476Y-4618095D01*
X5758095Y-4578095D02*
X5780952Y-4578095D01*
X5769524Y-4618095D02*
X5769524Y-4578095D01*
X5801905Y-4578095D02*
X5809524Y-4578095D01*
X5813333Y-4580000D01*
X5817143Y-4583810D01*
X5819048Y-4591429D01*
X5819048Y-4604762D01*
X5817143Y-4612381D01*
X5813333Y-4616190D01*
X5809524Y-4618095D01*
X5801905Y-4618095D01*
X5798095Y-4616190D01*
X5794286Y-4612381D01*
X5792381Y-4604762D01*
X5792381Y-4591429D01*
X5794286Y-4583810D01*
X5798095Y-4580000D01*
X5801905Y-4578095D01*
X5859048Y-4618095D02*
X5845714Y-4599048D01*
X5836190Y-4618095D02*
X5836190Y-4578095D01*
X5851429Y-4578095D01*
X5855238Y-4580000D01*
X5857143Y-4581905D01*
X5859048Y-4585714D01*
X5859048Y-4591429D01*
X5857143Y-4595238D01*
X5855238Y-4597143D01*
X5851429Y-4599048D01*
X5836190Y-4599048D01*
X4515714Y-4618095D02*
X4496667Y-4618095D01*
X4496667Y-4578095D01*
X4529048Y-4618095D02*
X4529048Y-4578095D01*
X4544286Y-4578095D01*
X4548095Y-4580000D01*
X4550000Y-4581905D01*
X4551905Y-4585714D01*
X4551905Y-4591429D01*
X4550000Y-4595238D01*
X4548095Y-4597143D01*
X4544286Y-4599048D01*
X4529048Y-4599048D01*
X4565238Y-4578095D02*
X4574762Y-4618095D01*
X4582381Y-4589524D01*
X4590000Y-4618095D01*
X4599524Y-4578095D01*
X4637619Y-4618095D02*
X4624286Y-4599048D01*
X4614762Y-4618095D02*
X4614762Y-4578095D01*
X4630000Y-4578095D01*
X4633810Y-4580000D01*
X4635714Y-4581905D01*
X4637619Y-4585714D01*
X4637619Y-4591429D01*
X4635714Y-4595238D01*
X4633810Y-4597143D01*
X4630000Y-4599048D01*
X4614762Y-4599048D01*
X4708095Y-4618095D02*
X4694762Y-4599048D01*
X4685238Y-4618095D02*
X4685238Y-4578095D01*
X4700476Y-4578095D01*
X4704286Y-4580000D01*
X4706190Y-4581905D01*
X4708095Y-4585714D01*
X4708095Y-4591429D01*
X4706190Y-4595238D01*
X4704286Y-4597143D01*
X4700476Y-4599048D01*
X4685238Y-4599048D01*
X4725238Y-4597143D02*
X4738571Y-4597143D01*
X4744286Y-4618095D02*
X4725238Y-4618095D01*
X4725238Y-4578095D01*
X4744286Y-4578095D01*
X4782381Y-4580000D02*
X4778571Y-4578095D01*
X4772857Y-4578095D01*
X4767143Y-4580000D01*
X4763333Y-4583810D01*
X4761429Y-4587619D01*
X4759524Y-4595238D01*
X4759524Y-4600952D01*
X4761429Y-4608571D01*
X4763333Y-4612381D01*
X4767143Y-4616190D01*
X4772857Y-4618095D01*
X4776667Y-4618095D01*
X4782381Y-4616190D01*
X4784286Y-4614286D01*
X4784286Y-4600952D01*
X4776667Y-4600952D01*
X4801429Y-4578095D02*
X4801429Y-4610476D01*
X4803333Y-4614286D01*
X4805238Y-4616190D01*
X4809048Y-4618095D01*
X4816667Y-4618095D01*
X4820476Y-4616190D01*
X4822381Y-4614286D01*
X4824286Y-4610476D01*
X4824286Y-4578095D01*
X4862381Y-4618095D02*
X4843333Y-4618095D01*
X4843333Y-4578095D01*
X4873810Y-4606667D02*
X4892857Y-4606667D01*
X4870000Y-4618095D02*
X4883333Y-4578095D01*
X4896667Y-4618095D01*
X4904286Y-4578095D02*
X4927143Y-4578095D01*
X4915714Y-4618095D02*
X4915714Y-4578095D01*
X4948095Y-4578095D02*
X4955714Y-4578095D01*
X4959524Y-4580000D01*
X4963333Y-4583810D01*
X4965238Y-4591429D01*
X4965238Y-4604762D01*
X4963333Y-4612381D01*
X4959524Y-4616190D01*
X4955714Y-4618095D01*
X4948095Y-4618095D01*
X4944286Y-4616190D01*
X4940476Y-4612381D01*
X4938571Y-4604762D01*
X4938571Y-4591429D01*
X4940476Y-4583810D01*
X4944286Y-4580000D01*
X4948095Y-4578095D01*
X5005238Y-4618095D02*
X4991905Y-4599048D01*
X4982381Y-4618095D02*
X4982381Y-4578095D01*
X4997619Y-4578095D01*
X5001429Y-4580000D01*
X5003333Y-4581905D01*
X5005238Y-4585714D01*
X5005238Y-4591429D01*
X5003333Y-4595238D01*
X5001429Y-4597143D01*
X4997619Y-4599048D01*
X4982381Y-4599048D01*
X7411524Y-5600095D02*
X7411524Y-5632476D01*
X7413429Y-5636286D01*
X7415333Y-5638190D01*
X7419143Y-5640095D01*
X7426762Y-5640095D01*
X7430571Y-5638190D01*
X7432476Y-5636286D01*
X7434381Y-5632476D01*
X7434381Y-5600095D01*
X7451524Y-5638190D02*
X7457238Y-5640095D01*
X7466762Y-5640095D01*
X7470571Y-5638190D01*
X7472476Y-5636286D01*
X7474381Y-5632476D01*
X7474381Y-5628667D01*
X7472476Y-5624857D01*
X7470571Y-5622952D01*
X7466762Y-5621048D01*
X7459143Y-5619143D01*
X7455333Y-5617238D01*
X7453429Y-5615333D01*
X7451524Y-5611524D01*
X7451524Y-5607714D01*
X7453429Y-5603905D01*
X7455333Y-5602000D01*
X7459143Y-5600095D01*
X7468667Y-5600095D01*
X7474381Y-5602000D01*
X7504857Y-5619143D02*
X7510571Y-5621048D01*
X7512476Y-5622952D01*
X7514381Y-5626762D01*
X7514381Y-5632476D01*
X7512476Y-5636286D01*
X7510571Y-5638190D01*
X7506762Y-5640095D01*
X7491524Y-5640095D01*
X7491524Y-5600095D01*
X7504857Y-5600095D01*
X7508667Y-5602000D01*
X7510571Y-5603905D01*
X7512476Y-5607714D01*
X7512476Y-5611524D01*
X7510571Y-5615333D01*
X7508667Y-5617238D01*
X7504857Y-5619143D01*
X7491524Y-5619143D01*
X7411524Y-5702095D02*
X7411524Y-5662095D01*
X7426762Y-5662095D01*
X7430571Y-5664000D01*
X7432476Y-5665905D01*
X7434381Y-5669714D01*
X7434381Y-5675429D01*
X7432476Y-5679238D01*
X7430571Y-5681143D01*
X7426762Y-5683048D01*
X7411524Y-5683048D01*
X7447714Y-5662095D02*
X7457238Y-5702095D01*
X7464857Y-5673524D01*
X7472476Y-5702095D01*
X7482000Y-5662095D01*
X7520095Y-5702095D02*
X7506762Y-5683048D01*
X7497238Y-5702095D02*
X7497238Y-5662095D01*
X7512476Y-5662095D01*
X7516286Y-5664000D01*
X7518190Y-5665905D01*
X7520095Y-5669714D01*
X7520095Y-5675429D01*
X7518190Y-5679238D01*
X7516286Y-5681143D01*
X7512476Y-5683048D01*
X7497238Y-5683048D01*
X7411524Y-5764095D02*
X7411524Y-5724095D01*
X7430571Y-5764095D02*
X7430571Y-5724095D01*
X7453429Y-5764095D01*
X7453429Y-5724095D01*
X7571429Y-4297095D02*
X7571429Y-4329476D01*
X7573333Y-4333286D01*
X7575238Y-4335190D01*
X7579048Y-4337095D01*
X7586667Y-4337095D01*
X7590476Y-4335190D01*
X7592381Y-4333286D01*
X7594286Y-4329476D01*
X7594286Y-4297095D01*
X7611429Y-4335190D02*
X7617143Y-4337095D01*
X7626667Y-4337095D01*
X7630476Y-4335190D01*
X7632381Y-4333286D01*
X7634286Y-4329476D01*
X7634286Y-4325667D01*
X7632381Y-4321857D01*
X7630476Y-4319952D01*
X7626667Y-4318048D01*
X7619048Y-4316143D01*
X7615238Y-4314238D01*
X7613333Y-4312333D01*
X7611429Y-4308524D01*
X7611429Y-4304714D01*
X7613333Y-4300905D01*
X7615238Y-4299000D01*
X7619048Y-4297095D01*
X7628571Y-4297095D01*
X7634286Y-4299000D01*
X7664762Y-4316143D02*
X7670476Y-4318048D01*
X7672381Y-4319952D01*
X7674286Y-4323762D01*
X7674286Y-4329476D01*
X7672381Y-4333286D01*
X7670476Y-4335190D01*
X7666667Y-4337095D01*
X7651429Y-4337095D01*
X7651429Y-4297095D01*
X7664762Y-4297095D01*
X7668571Y-4299000D01*
X7670476Y-4300905D01*
X7672381Y-4304714D01*
X7672381Y-4308524D01*
X7670476Y-4312333D01*
X7668571Y-4314238D01*
X7664762Y-4316143D01*
X7651429Y-4316143D01*
X7721905Y-4337095D02*
X7721905Y-4297095D01*
X7737143Y-4297095D01*
X7740952Y-4299000D01*
X7742857Y-4300905D01*
X7744762Y-4304714D01*
X7744762Y-4310429D01*
X7742857Y-4314238D01*
X7740952Y-4316143D01*
X7737143Y-4318048D01*
X7721905Y-4318048D01*
X7758095Y-4297095D02*
X7767619Y-4337095D01*
X7775238Y-4308524D01*
X7782857Y-4337095D01*
X7792381Y-4297095D01*
X7830476Y-4337095D02*
X7817143Y-4318048D01*
X7807619Y-4337095D02*
X7807619Y-4297095D01*
X7822857Y-4297095D01*
X7826667Y-4299000D01*
X7828571Y-4300905D01*
X7830476Y-4304714D01*
X7830476Y-4310429D01*
X7828571Y-4314238D01*
X7826667Y-4316143D01*
X7822857Y-4318048D01*
X7807619Y-4318048D01*
X7573333Y-4399095D02*
X7550476Y-4399095D01*
X7561905Y-4399095D02*
X7561905Y-4359095D01*
X7558095Y-4364810D01*
X7554286Y-4368619D01*
X7550476Y-4370524D01*
X7590476Y-4383857D02*
X7620952Y-4383857D01*
X7638095Y-4362905D02*
X7640000Y-4361000D01*
X7643810Y-4359095D01*
X7653333Y-4359095D01*
X7657143Y-4361000D01*
X7659048Y-4362905D01*
X7660952Y-4366714D01*
X7660952Y-4370524D01*
X7659048Y-4376238D01*
X7636191Y-4399095D01*
X7660952Y-4399095D01*
X7706667Y-4387667D02*
X7725714Y-4387667D01*
X7702857Y-4399095D02*
X7716191Y-4359095D01*
X7729524Y-4399095D01*
X7742857Y-4399095D02*
X7742857Y-4359095D01*
X7756190Y-4387667D01*
X7769524Y-4359095D01*
X7769524Y-4399095D01*
X7788571Y-4399095D02*
X7788571Y-4359095D01*
X7803810Y-4359095D01*
X7807619Y-4361000D01*
X7809524Y-4362905D01*
X7811429Y-4366714D01*
X7811429Y-4372429D01*
X7809524Y-4376238D01*
X7807619Y-4378143D01*
X7803810Y-4380048D01*
X7788571Y-4380048D01*
X7826667Y-4397190D02*
X7832381Y-4399095D01*
X7841905Y-4399095D01*
X7845714Y-4397190D01*
X7847619Y-4395286D01*
X7849524Y-4391476D01*
X7849524Y-4387667D01*
X7847619Y-4383857D01*
X7845714Y-4381952D01*
X7841905Y-4380048D01*
X7834286Y-4378143D01*
X7830476Y-4376238D01*
X7828571Y-4374333D01*
X7826667Y-4370524D01*
X7826667Y-4366714D01*
X7828571Y-4362905D01*
X7830476Y-4361000D01*
X7834286Y-4359095D01*
X7843810Y-4359095D01*
X7849524Y-4361000D01*
X4312790Y-5878729D02*
X4314695Y-5873014D01*
X4314695Y-5863490D01*
X4312790Y-5859681D01*
X4310886Y-5857776D01*
X4307076Y-5855871D01*
X4303267Y-5855871D01*
X4299457Y-5857776D01*
X4297552Y-5859681D01*
X4295648Y-5863490D01*
X4293743Y-5871109D01*
X4291838Y-5874919D01*
X4289933Y-5876824D01*
X4286124Y-5878729D01*
X4282314Y-5878729D01*
X4278505Y-5876824D01*
X4276600Y-5874919D01*
X4274695Y-5871109D01*
X4274695Y-5861586D01*
X4276600Y-5855871D01*
X4274695Y-5842538D02*
X4314695Y-5833014D01*
X4286124Y-5825395D01*
X4314695Y-5817776D01*
X4274695Y-5808252D01*
X4299457Y-5793014D02*
X4299457Y-5762538D01*
X4293743Y-5730157D02*
X4295648Y-5724443D01*
X4297552Y-5722538D01*
X4301362Y-5720633D01*
X4307076Y-5720633D01*
X4310886Y-5722538D01*
X4312790Y-5724443D01*
X4314695Y-5728252D01*
X4314695Y-5743490D01*
X4274695Y-5743490D01*
X4274695Y-5730157D01*
X4276600Y-5726348D01*
X4278505Y-5724443D01*
X4282314Y-5722538D01*
X4286124Y-5722538D01*
X4289933Y-5724443D01*
X4291838Y-5726348D01*
X4293743Y-5730157D01*
X4293743Y-5743490D01*
X4303267Y-5705395D02*
X4303267Y-5686348D01*
X4314695Y-5709205D02*
X4274695Y-5695871D01*
X4314695Y-5682538D01*
X4274695Y-5674919D02*
X4274695Y-5652062D01*
X4314695Y-5663490D02*
X4274695Y-5663490D01*
X4817143Y-5883809D02*
X4817143Y-5870476D01*
X4838095Y-5864762D02*
X4838095Y-5883809D01*
X4798095Y-5883809D01*
X4798095Y-5864762D01*
X4836190Y-5849524D02*
X4838095Y-5843809D01*
X4838095Y-5834286D01*
X4836190Y-5830476D01*
X4834286Y-5828571D01*
X4830476Y-5826667D01*
X4826667Y-5826667D01*
X4822857Y-5828571D01*
X4820952Y-5830476D01*
X4819048Y-5834286D01*
X4817143Y-5841905D01*
X4815238Y-5845714D01*
X4813333Y-5847619D01*
X4809524Y-5849524D01*
X4805714Y-5849524D01*
X4801905Y-5847619D01*
X4800000Y-5845714D01*
X4798095Y-5841905D01*
X4798095Y-5832381D01*
X4800000Y-5826667D01*
X4798095Y-5815238D02*
X4798095Y-5792381D01*
X4838095Y-5803809D02*
X4798095Y-5803809D01*
X4798095Y-5771429D02*
X4798095Y-5763810D01*
X4800000Y-5760000D01*
X4803810Y-5756190D01*
X4811429Y-5754286D01*
X4824762Y-5754286D01*
X4832381Y-5756190D01*
X4836190Y-5760000D01*
X4838095Y-5763810D01*
X4838095Y-5771429D01*
X4836190Y-5775238D01*
X4832381Y-5779048D01*
X4824762Y-5780952D01*
X4811429Y-5780952D01*
X4803810Y-5779048D01*
X4800000Y-5775238D01*
X4798095Y-5771429D01*
X4838095Y-5737143D02*
X4798095Y-5737143D01*
X4798095Y-5721905D01*
X4800000Y-5718095D01*
X4801905Y-5716190D01*
X4805714Y-5714286D01*
X4811429Y-5714286D01*
X4815238Y-5716190D01*
X4817143Y-5718095D01*
X4819048Y-5721905D01*
X4819048Y-5737143D01*
X4224762Y-5882857D02*
X4255238Y-5882857D01*
X7587619Y-4587095D02*
X7587619Y-4547095D01*
X7602857Y-4547095D01*
X7606667Y-4549000D01*
X7608571Y-4550905D01*
X7610476Y-4554714D01*
X7610476Y-4560429D01*
X7608571Y-4564238D01*
X7606667Y-4566143D01*
X7602857Y-4568048D01*
X7587619Y-4568048D01*
X7635238Y-4547095D02*
X7642857Y-4547095D01*
X7646667Y-4549000D01*
X7650476Y-4552810D01*
X7652381Y-4560429D01*
X7652381Y-4573762D01*
X7650476Y-4581381D01*
X7646667Y-4585190D01*
X7642857Y-4587095D01*
X7635238Y-4587095D01*
X7631429Y-4585190D01*
X7627619Y-4581381D01*
X7625714Y-4573762D01*
X7625714Y-4560429D01*
X7627619Y-4552810D01*
X7631429Y-4549000D01*
X7635238Y-4547095D01*
X7665714Y-4547095D02*
X7675238Y-4587095D01*
X7682857Y-4558524D01*
X7690476Y-4587095D01*
X7700000Y-4547095D01*
X7715238Y-4566143D02*
X7728571Y-4566143D01*
X7734286Y-4587095D02*
X7715238Y-4587095D01*
X7715238Y-4547095D01*
X7734286Y-4547095D01*
X7774286Y-4587095D02*
X7760952Y-4568048D01*
X7751429Y-4587095D02*
X7751429Y-4547095D01*
X7766667Y-4547095D01*
X7770476Y-4549000D01*
X7772381Y-4550905D01*
X7774286Y-4554714D01*
X7774286Y-4560429D01*
X7772381Y-4564238D01*
X7770476Y-4566143D01*
X7766667Y-4568048D01*
X7751429Y-4568048D01*
X7579048Y-4609095D02*
X7586667Y-4609095D01*
X7590476Y-4611000D01*
X7594286Y-4614810D01*
X7596190Y-4622429D01*
X7596190Y-4635762D01*
X7594286Y-4643381D01*
X7590476Y-4647190D01*
X7586667Y-4649095D01*
X7579048Y-4649095D01*
X7575238Y-4647190D01*
X7571429Y-4643381D01*
X7569524Y-4635762D01*
X7569524Y-4622429D01*
X7571429Y-4614810D01*
X7575238Y-4611000D01*
X7579048Y-4609095D01*
X7613333Y-4649095D02*
X7613333Y-4609095D01*
X7636190Y-4649095D01*
X7636190Y-4609095D01*
X7683810Y-4607190D02*
X7649524Y-4658619D01*
X7704762Y-4609095D02*
X7712381Y-4609095D01*
X7716190Y-4611000D01*
X7720000Y-4614810D01*
X7721905Y-4622429D01*
X7721905Y-4635762D01*
X7720000Y-4643381D01*
X7716190Y-4647190D01*
X7712381Y-4649095D01*
X7704762Y-4649095D01*
X7700952Y-4647190D01*
X7697143Y-4643381D01*
X7695238Y-4635762D01*
X7695238Y-4622429D01*
X7697143Y-4614810D01*
X7700952Y-4611000D01*
X7704762Y-4609095D01*
X7752381Y-4628143D02*
X7739048Y-4628143D01*
X7739048Y-4649095D02*
X7739048Y-4609095D01*
X7758095Y-4609095D01*
X7786667Y-4628143D02*
X7773333Y-4628143D01*
X7773333Y-4649095D02*
X7773333Y-4609095D01*
X7792381Y-4609095D01*
X7511381Y-5412795D02*
X7498048Y-5393748D01*
X7488524Y-5412795D02*
X7488524Y-5372795D01*
X7503762Y-5372795D01*
X7507571Y-5374700D01*
X7509476Y-5376605D01*
X7511381Y-5380414D01*
X7511381Y-5386129D01*
X7509476Y-5389938D01*
X7507571Y-5391843D01*
X7503762Y-5393748D01*
X7488524Y-5393748D01*
X7528524Y-5391843D02*
X7541857Y-5391843D01*
X7547571Y-5412795D02*
X7528524Y-5412795D01*
X7528524Y-5372795D01*
X7547571Y-5372795D01*
X7559000Y-5372795D02*
X7572333Y-5412795D01*
X7585667Y-5372795D01*
X7599000Y-5408986D02*
X7600905Y-5410890D01*
X7599000Y-5412795D01*
X7597095Y-5410890D01*
X7599000Y-5408986D01*
X7599000Y-5412795D01*
X7661857Y-5391843D02*
X7667571Y-5393748D01*
X7669476Y-5395652D01*
X7671381Y-5399462D01*
X7671381Y-5405176D01*
X7669476Y-5408986D01*
X7667571Y-5410890D01*
X7663762Y-5412795D01*
X7648524Y-5412795D01*
X7648524Y-5372795D01*
X7661857Y-5372795D01*
X7665667Y-5374700D01*
X7667571Y-5376605D01*
X7669476Y-5380414D01*
X7669476Y-5384224D01*
X7667571Y-5388033D01*
X7665667Y-5389938D01*
X7661857Y-5391843D01*
X7648524Y-5391843D01*
X7486619Y-5438605D02*
X7488524Y-5436700D01*
X7492333Y-5434795D01*
X7501857Y-5434795D01*
X7505667Y-5436700D01*
X7507571Y-5438605D01*
X7509476Y-5442414D01*
X7509476Y-5446224D01*
X7507571Y-5451938D01*
X7484714Y-5474795D01*
X7509476Y-5474795D01*
X7543762Y-5448129D02*
X7543762Y-5474795D01*
X7534238Y-5432890D02*
X7524714Y-5461462D01*
X7549476Y-5461462D01*
X7576143Y-5434795D02*
X7576143Y-5463367D01*
X7574238Y-5469081D01*
X7570429Y-5472890D01*
X7564714Y-5474795D01*
X7560905Y-5474795D01*
X7593286Y-5463367D02*
X7612333Y-5463367D01*
X7589476Y-5474795D02*
X7602810Y-5434795D01*
X7616143Y-5474795D01*
X7629476Y-5474795D02*
X7629476Y-5434795D01*
X7652333Y-5474795D01*
X7652333Y-5434795D01*
X7669476Y-5438605D02*
X7671381Y-5436700D01*
X7675190Y-5434795D01*
X7684714Y-5434795D01*
X7688524Y-5436700D01*
X7690429Y-5438605D01*
X7692333Y-5442414D01*
X7692333Y-5446224D01*
X7690429Y-5451938D01*
X7667571Y-5474795D01*
X7692333Y-5474795D01*
X7717095Y-5434795D02*
X7720905Y-5434795D01*
X7724714Y-5436700D01*
X7726619Y-5438605D01*
X7728524Y-5442414D01*
X7730429Y-5450033D01*
X7730429Y-5459557D01*
X7728524Y-5467176D01*
X7726619Y-5470986D01*
X7724714Y-5472890D01*
X7720905Y-5474795D01*
X7717095Y-5474795D01*
X7713286Y-5472890D01*
X7711381Y-5470986D01*
X7709476Y-5467176D01*
X7707571Y-5459557D01*
X7707571Y-5450033D01*
X7709476Y-5442414D01*
X7711381Y-5438605D01*
X7713286Y-5436700D01*
X7717095Y-5434795D01*
X7768524Y-5474795D02*
X7745667Y-5474795D01*
X7757095Y-5474795D02*
X7757095Y-5434795D01*
X7753286Y-5440510D01*
X7749476Y-5444319D01*
X7745667Y-5446224D01*
X7804714Y-5434795D02*
X7785667Y-5434795D01*
X7783762Y-5453843D01*
X7785667Y-5451938D01*
X7789476Y-5450033D01*
X7799000Y-5450033D01*
X7802809Y-5451938D01*
X7804714Y-5453843D01*
X7806619Y-5457652D01*
X7806619Y-5467176D01*
X7804714Y-5470986D01*
X7802809Y-5472890D01*
X7799000Y-5474795D01*
X7789476Y-5474795D01*
X7785667Y-5472890D01*
X7783762Y-5470986D01*
X7499952Y-5552033D02*
X7498048Y-5550129D01*
X7494238Y-5544414D01*
X7492333Y-5540605D01*
X7490429Y-5534890D01*
X7488524Y-5525367D01*
X7488524Y-5517748D01*
X7490429Y-5508224D01*
X7492333Y-5502510D01*
X7494238Y-5498700D01*
X7498048Y-5492986D01*
X7499952Y-5491081D01*
X7538048Y-5532986D02*
X7536143Y-5534890D01*
X7530429Y-5536795D01*
X7526619Y-5536795D01*
X7520905Y-5534890D01*
X7517095Y-5531081D01*
X7515190Y-5527271D01*
X7513286Y-5519652D01*
X7513286Y-5513938D01*
X7515190Y-5506319D01*
X7517095Y-5502510D01*
X7520905Y-5498700D01*
X7526619Y-5496795D01*
X7530429Y-5496795D01*
X7536143Y-5498700D01*
X7538048Y-5500605D01*
X7551381Y-5552033D02*
X7553286Y-5550129D01*
X7557095Y-5544414D01*
X7559000Y-5540605D01*
X7560905Y-5534890D01*
X7562810Y-5525367D01*
X7562810Y-5517748D01*
X7560905Y-5508224D01*
X7559000Y-5502510D01*
X7557095Y-5498700D01*
X7553286Y-5492986D01*
X7551381Y-5491081D01*
X7610429Y-5500605D02*
X7612333Y-5498700D01*
X7616143Y-5496795D01*
X7625667Y-5496795D01*
X7629476Y-5498700D01*
X7631381Y-5500605D01*
X7633286Y-5504414D01*
X7633286Y-5508224D01*
X7631381Y-5513938D01*
X7608524Y-5536795D01*
X7633286Y-5536795D01*
X7658048Y-5496795D02*
X7661857Y-5496795D01*
X7665667Y-5498700D01*
X7667571Y-5500605D01*
X7669476Y-5504414D01*
X7671381Y-5512033D01*
X7671381Y-5521557D01*
X7669476Y-5529176D01*
X7667571Y-5532986D01*
X7665667Y-5534890D01*
X7661857Y-5536795D01*
X7658048Y-5536795D01*
X7654238Y-5534890D01*
X7652333Y-5532986D01*
X7650429Y-5529176D01*
X7648524Y-5521557D01*
X7648524Y-5512033D01*
X7650429Y-5504414D01*
X7652333Y-5500605D01*
X7654238Y-5498700D01*
X7658048Y-5496795D01*
X7709476Y-5536795D02*
X7686619Y-5536795D01*
X7698048Y-5536795D02*
X7698048Y-5496795D01*
X7694238Y-5502510D01*
X7690429Y-5506319D01*
X7686619Y-5508224D01*
X7745667Y-5496795D02*
X7726619Y-5496795D01*
X7724714Y-5515843D01*
X7726619Y-5513938D01*
X7730429Y-5512033D01*
X7739952Y-5512033D01*
X7743762Y-5513938D01*
X7745667Y-5515843D01*
X7747571Y-5519652D01*
X7747571Y-5529176D01*
X7745667Y-5532986D01*
X7743762Y-5534890D01*
X7739952Y-5536795D01*
X7730429Y-5536795D01*
X7726619Y-5534890D01*
X7724714Y-5532986D01*
X6776476Y-5778143D02*
X6782190Y-5780048D01*
X6784095Y-5781952D01*
X6786000Y-5785762D01*
X6786000Y-5791476D01*
X6784095Y-5795286D01*
X6782190Y-5797190D01*
X6778381Y-5799095D01*
X6763143Y-5799095D01*
X6763143Y-5759095D01*
X6776476Y-5759095D01*
X6780286Y-5761000D01*
X6782190Y-5762905D01*
X6784095Y-5766714D01*
X6784095Y-5770524D01*
X6782190Y-5774333D01*
X6780286Y-5776238D01*
X6776476Y-5778143D01*
X6763143Y-5778143D01*
X6801238Y-5787667D02*
X6820286Y-5787667D01*
X6797429Y-5799095D02*
X6810762Y-5759095D01*
X6824095Y-5799095D01*
X6831714Y-5759095D02*
X6854571Y-5759095D01*
X6843143Y-5799095D02*
X6843143Y-5759095D01*
X5710476Y-5857143D02*
X5716190Y-5859048D01*
X5718095Y-5860952D01*
X5720000Y-5864762D01*
X5720000Y-5870476D01*
X5718095Y-5874286D01*
X5716190Y-5876190D01*
X5712381Y-5878095D01*
X5697143Y-5878095D01*
X5697143Y-5838095D01*
X5710476Y-5838095D01*
X5714286Y-5840000D01*
X5716190Y-5841905D01*
X5718095Y-5845714D01*
X5718095Y-5849524D01*
X5716190Y-5853333D01*
X5714286Y-5855238D01*
X5710476Y-5857143D01*
X5697143Y-5857143D01*
X5737143Y-5838095D02*
X5737143Y-5870476D01*
X5739048Y-5874286D01*
X5740952Y-5876190D01*
X5744762Y-5878095D01*
X5752381Y-5878095D01*
X5756190Y-5876190D01*
X5758095Y-5874286D01*
X5760000Y-5870476D01*
X5760000Y-5838095D01*
X5777143Y-5876190D02*
X5782857Y-5878095D01*
X5792381Y-5878095D01*
X5796190Y-5876190D01*
X5798095Y-5874286D01*
X5800000Y-5870476D01*
X5800000Y-5866667D01*
X5798095Y-5862857D01*
X5796190Y-5860952D01*
X5792381Y-5859048D01*
X5784762Y-5857143D01*
X5780952Y-5855238D01*
X5779048Y-5853333D01*
X5777143Y-5849524D01*
X5777143Y-5845714D01*
X5779048Y-5841905D01*
X5780952Y-5840000D01*
X5784762Y-5838095D01*
X5794286Y-5838095D01*
X5800000Y-5840000D01*
X5807619Y-5881905D02*
X5838095Y-5881905D01*
X5847619Y-5838095D02*
X5847619Y-5870476D01*
X5849524Y-5874286D01*
X5851429Y-5876190D01*
X5855238Y-5878095D01*
X5862857Y-5878095D01*
X5866667Y-5876190D01*
X5868571Y-5874286D01*
X5870476Y-5870476D01*
X5870476Y-5838095D01*
X5887619Y-5876190D02*
X5893333Y-5878095D01*
X5902857Y-5878095D01*
X5906667Y-5876190D01*
X5908571Y-5874286D01*
X5910476Y-5870476D01*
X5910476Y-5866667D01*
X5908571Y-5862857D01*
X5906667Y-5860952D01*
X5902857Y-5859048D01*
X5895238Y-5857143D01*
X5891429Y-5855238D01*
X5889524Y-5853333D01*
X5887619Y-5849524D01*
X5887619Y-5845714D01*
X5889524Y-5841905D01*
X5891429Y-5840000D01*
X5895238Y-5838095D01*
X5904762Y-5838095D01*
X5910476Y-5840000D01*
X5940952Y-5857143D02*
X5946667Y-5859048D01*
X5948571Y-5860952D01*
X5950476Y-5864762D01*
X5950476Y-5870476D01*
X5948571Y-5874286D01*
X5946667Y-5876190D01*
X5942857Y-5878095D01*
X5927619Y-5878095D01*
X5927619Y-5838095D01*
X5940952Y-5838095D01*
X5944762Y-5840000D01*
X5946667Y-5841905D01*
X5948571Y-5845714D01*
X5948571Y-5849524D01*
X5946667Y-5853333D01*
X5944762Y-5855238D01*
X5940952Y-5857143D01*
X5927619Y-5857143D01*
X5958095Y-5881905D02*
X5988571Y-5881905D01*
X5998095Y-5878095D02*
X5998095Y-5838095D01*
X6013333Y-5838095D01*
X6017143Y-5840000D01*
X6019048Y-5841905D01*
X6020952Y-5845714D01*
X6020952Y-5851429D01*
X6019048Y-5855238D01*
X6017143Y-5857143D01*
X6013333Y-5859048D01*
X5998095Y-5859048D01*
X6045714Y-5838095D02*
X6053333Y-5838095D01*
X6057143Y-5840000D01*
X6060952Y-5843810D01*
X6062857Y-5851429D01*
X6062857Y-5864762D01*
X6060952Y-5872381D01*
X6057143Y-5876190D01*
X6053333Y-5878095D01*
X6045714Y-5878095D01*
X6041905Y-5876190D01*
X6038095Y-5872381D01*
X6036190Y-5864762D01*
X6036190Y-5851429D01*
X6038095Y-5843810D01*
X6041905Y-5840000D01*
X6045714Y-5838095D01*
X6076190Y-5838095D02*
X6085714Y-5878095D01*
X6093333Y-5849524D01*
X6100952Y-5878095D01*
X6110476Y-5838095D01*
X6125714Y-5857143D02*
X6139048Y-5857143D01*
X6144762Y-5878095D02*
X6125714Y-5878095D01*
X6125714Y-5838095D01*
X6144762Y-5838095D01*
X6184762Y-5878095D02*
X6171429Y-5859048D01*
X6161905Y-5878095D02*
X6161905Y-5838095D01*
X6177143Y-5838095D01*
X6180952Y-5840000D01*
X6182857Y-5841905D01*
X6184762Y-5845714D01*
X6184762Y-5851429D01*
X6182857Y-5855238D01*
X6180952Y-5857143D01*
X6177143Y-5859048D01*
X6161905Y-5859048D01*
X6304762Y-5862857D02*
X6335238Y-5862857D01*
X6764762Y-5862857D02*
X6795238Y-5862857D01*
X6780000Y-5878095D02*
X6780000Y-5847619D01*
X4744762Y-5862857D02*
X4775238Y-5862857D01*
X4760000Y-5878095D02*
X4760000Y-5847619D01*
X3966667Y-5518095D02*
X3989524Y-5518095D01*
X3978095Y-5558095D02*
X3978095Y-5518095D01*
X4002857Y-5537143D02*
X4016190Y-5537143D01*
X4021905Y-5558095D02*
X4002857Y-5558095D01*
X4002857Y-5518095D01*
X4021905Y-5518095D01*
X4061905Y-5558095D02*
X4048571Y-5539048D01*
X4039048Y-5558095D02*
X4039048Y-5518095D01*
X4054286Y-5518095D01*
X4058095Y-5520000D01*
X4060000Y-5521905D01*
X4061905Y-5525714D01*
X4061905Y-5531429D01*
X4060000Y-5535238D01*
X4058095Y-5537143D01*
X4054286Y-5539048D01*
X4039048Y-5539048D01*
X4079048Y-5558095D02*
X4079048Y-5518095D01*
X4092381Y-5546667D01*
X4105714Y-5518095D01*
X4105714Y-5558095D01*
X4124762Y-5558095D02*
X4124762Y-5518095D01*
X4143810Y-5558095D02*
X4143810Y-5518095D01*
X4166667Y-5558095D01*
X4166667Y-5518095D01*
X4183810Y-5546667D02*
X4202857Y-5546667D01*
X4180000Y-5558095D02*
X4193333Y-5518095D01*
X4206667Y-5558095D01*
X4214286Y-5518095D02*
X4237143Y-5518095D01*
X4225714Y-5558095D02*
X4225714Y-5518095D01*
X4250476Y-5537143D02*
X4263810Y-5537143D01*
X4269524Y-5558095D02*
X4250476Y-5558095D01*
X4250476Y-5518095D01*
X4269524Y-5518095D01*
X4021905Y-5465095D02*
X4029524Y-5465095D01*
X4033333Y-5467000D01*
X4037143Y-5470810D01*
X4039048Y-5478429D01*
X4039048Y-5491762D01*
X4037143Y-5499381D01*
X4033333Y-5503190D01*
X4029524Y-5505095D01*
X4021905Y-5505095D01*
X4018095Y-5503190D01*
X4014286Y-5499381D01*
X4012381Y-5491762D01*
X4012381Y-5478429D01*
X4014286Y-5470810D01*
X4018095Y-5467000D01*
X4021905Y-5465095D01*
X4069524Y-5484143D02*
X4056191Y-5484143D01*
X4056191Y-5505095D02*
X4056191Y-5465095D01*
X4075238Y-5465095D01*
X4103810Y-5484143D02*
X4090476Y-5484143D01*
X4090476Y-5505095D02*
X4090476Y-5465095D01*
X4109524Y-5465095D01*
X4155638Y-5465395D02*
X4163257Y-5465395D01*
X4167067Y-5467300D01*
X4170876Y-5471110D01*
X4172781Y-5478729D01*
X4172781Y-5492062D01*
X4170876Y-5499681D01*
X4167067Y-5503490D01*
X4163257Y-5505395D01*
X4155638Y-5505395D01*
X4151829Y-5503490D01*
X4148019Y-5499681D01*
X4146114Y-5492062D01*
X4146114Y-5478729D01*
X4148019Y-5471110D01*
X4151829Y-5467300D01*
X4155638Y-5465395D01*
X4189924Y-5505395D02*
X4189924Y-5465395D01*
X4212781Y-5505395D01*
X4212781Y-5465395D01*
D12*
X3937008Y-5905512D02*
X3937008Y-3937008D01*
X7874016Y-5905512D02*
X3937008Y-5905512D01*
X7874016Y-3937008D02*
X7874016Y-5905512D01*
X3937008Y-3937008D02*
X7874016Y-3937008D01*
D13*
X5600000Y-5700000D02*
X5400000Y-5700000D01*
X5400000Y-5700000D02*
X5400000Y-5800000D01*
X5400000Y-5800000D02*
X5600000Y-5800000D01*
X5700000Y-5800000D02*
X5600000Y-5800000D01*
X5600000Y-5800000D02*
X5600000Y-5700000D01*
X5700000Y-5800000D02*
X5700000Y-5700000D01*
X5700000Y-5700000D02*
X5600000Y-5700000D01*
X4175000Y-5350000D02*
X3975000Y-5350000D01*
X3975000Y-5350000D02*
X3975000Y-5450000D01*
X3975000Y-5450000D02*
X4175000Y-5450000D01*
X4275000Y-5450000D02*
X4175000Y-5450000D01*
X4175000Y-5450000D02*
X4175000Y-5350000D01*
X4275000Y-5450000D02*
X4275000Y-5350000D01*
X4275000Y-5350000D02*
X4175000Y-5350000D01*
D12*
X4328150Y-5659646D02*
X4328150Y-5954921D01*
X4328150Y-5954921D02*
X4721850Y-5954921D01*
X4721850Y-5954921D02*
X4721850Y-5659646D01*
X4721850Y-5659646D02*
X4328150Y-5659646D01*
X6353150Y-5659646D02*
X6353150Y-5954921D01*
X6353150Y-5954921D02*
X6746850Y-5954921D01*
X6746850Y-5954921D02*
X6746850Y-5659646D01*
X6746850Y-5659646D02*
X6353150Y-5659646D01*
X4853150Y-5659646D02*
X4853150Y-5954921D01*
X4853150Y-5954921D02*
X5246850Y-5954921D01*
X5246850Y-5954921D02*
X5246850Y-5659646D01*
X5246850Y-5659646D02*
X4853150Y-5659646D01*
D14*
X3905000Y-4725000D02*
X3935000Y-4705000D01*
X3905000Y-4725000D02*
X3935000Y-4745000D01*
D13*
X3935000Y-5015000D02*
X3955000Y-5015000D01*
X3955000Y-5015000D02*
X3955000Y-4835000D01*
X3955000Y-4835000D02*
X3935000Y-4835000D01*
X4315000Y-4525000D02*
X4315000Y-5325000D01*
X4315000Y-5325000D02*
X3935000Y-5325000D01*
X3935000Y-5325000D02*
X3935000Y-4525000D01*
X3935000Y-4525000D02*
X4315000Y-4525000D01*
D15*
X6580000Y-5050000D02*
X6635000Y-5050000D01*
X6580000Y-4950000D02*
X6635000Y-4950000D01*
X6580000Y-4850000D02*
X6635000Y-4850000D01*
X6163995Y-4950000D02*
G75*
G03X6163995Y-4950000I-98995J0D01*
G74*
G01*
X6245000Y-4740000D02*
X5930000Y-4740000D01*
X5930000Y-4740000D02*
X5930000Y-5160000D01*
X5930000Y-5160000D02*
X6245000Y-5160000D01*
X6580000Y-4740000D02*
X6245000Y-4740000D01*
X6245000Y-4740000D02*
X6245000Y-5160000D01*
X6245000Y-5160000D02*
X6580000Y-5160000D01*
X6580000Y-4950000D02*
X6580000Y-5160000D01*
X6580000Y-4950000D02*
X6580000Y-4740000D01*
X6580000Y-4550000D02*
X6635000Y-4550000D01*
X6580000Y-4450000D02*
X6635000Y-4450000D01*
X6580000Y-4350000D02*
X6635000Y-4350000D01*
X6163995Y-4450000D02*
G75*
G03X6163995Y-4450000I-98995J0D01*
G74*
G01*
X6245000Y-4240000D02*
X5930000Y-4240000D01*
X5930000Y-4240000D02*
X5930000Y-4660000D01*
X5930000Y-4660000D02*
X6245000Y-4660000D01*
X6580000Y-4240000D02*
X6245000Y-4240000D01*
X6245000Y-4240000D02*
X6245000Y-4660000D01*
X6245000Y-4660000D02*
X6580000Y-4660000D01*
X6580000Y-4450000D02*
X6580000Y-4660000D01*
X6580000Y-4450000D02*
X6580000Y-4240000D01*
D14*
X4409449Y-5257480D02*
X4409449Y-5307480D01*
X4409449Y-5057480D02*
X4409449Y-5007480D01*
X4459449Y-5057480D02*
X4359449Y-5057480D01*
X4359449Y-5057480D02*
X4359449Y-5257480D01*
X4359449Y-5257480D02*
X4459449Y-5257480D01*
X4459449Y-5257480D02*
X4459449Y-5057480D01*
D12*
X6925000Y-4675000D02*
X6925000Y-5225000D01*
X6925000Y-5225000D02*
X7825000Y-5225000D01*
X7825000Y-5225000D02*
X7825000Y-4675000D01*
X7825000Y-4675000D02*
X6925000Y-4675000D01*
D13*
X4000000Y-4400000D02*
X4000000Y-4500000D01*
X4000000Y-4500000D02*
X4100000Y-4500000D01*
X4100000Y-4500000D02*
X4100000Y-4400000D01*
X4100000Y-4400000D02*
X4000000Y-4400000D01*
X4125000Y-4400000D02*
X4125000Y-4500000D01*
X4125000Y-4500000D02*
X4225000Y-4500000D01*
X4225000Y-4500000D02*
X4225000Y-4400000D01*
X4225000Y-4400000D02*
X4125000Y-4400000D01*
X7725000Y-5250000D02*
X7725000Y-5350000D01*
X7725000Y-5350000D02*
X7825000Y-5350000D01*
X7825000Y-5350000D02*
X7825000Y-5250000D01*
X7825000Y-5250000D02*
X7725000Y-5250000D01*
X5725000Y-5700000D02*
X5725000Y-5800000D01*
X5725000Y-5800000D02*
X5825000Y-5800000D01*
X5825000Y-5800000D02*
X5825000Y-5700000D01*
X5825000Y-5700000D02*
X5725000Y-5700000D01*
X5275000Y-5800000D02*
X5275000Y-5900000D01*
X5275000Y-5900000D02*
X5375000Y-5900000D01*
X5375000Y-5900000D02*
X5375000Y-5800000D01*
X5375000Y-5800000D02*
X5275000Y-5800000D01*
X6340000Y-5350000D02*
X6640000Y-5350000D01*
X6340000Y-5250000D02*
X6640000Y-5250000D01*
X6240000Y-5250000D02*
X6340000Y-5250000D01*
X6640000Y-5350000D02*
X6640000Y-5250000D01*
X6340000Y-5250000D02*
X6340000Y-5350000D01*
X6240000Y-5250000D02*
X6240000Y-5350000D01*
X6240000Y-5350000D02*
X6340000Y-5350000D01*
X5500000Y-5350000D02*
X5800000Y-5350000D01*
X5500000Y-5250000D02*
X5800000Y-5250000D01*
X5400000Y-5250000D02*
X5500000Y-5250000D01*
X5800000Y-5350000D02*
X5800000Y-5250000D01*
X5500000Y-5250000D02*
X5500000Y-5350000D01*
X5400000Y-5250000D02*
X5400000Y-5350000D01*
X5400000Y-5350000D02*
X5500000Y-5350000D01*
X4650000Y-5350000D02*
X4950000Y-5350000D01*
X4650000Y-5250000D02*
X4950000Y-5250000D01*
X4550000Y-5250000D02*
X4650000Y-5250000D01*
X4950000Y-5350000D02*
X4950000Y-5250000D01*
X4650000Y-5250000D02*
X4650000Y-5350000D01*
X4550000Y-5250000D02*
X4550000Y-5350000D01*
X4550000Y-5350000D02*
X4650000Y-5350000D01*
D12*
X6311000Y-5691000D02*
X5839000Y-5691000D01*
X5839000Y-5691000D02*
X5839000Y-5809000D01*
X5839000Y-5809000D02*
X6311000Y-5809000D01*
X6311000Y-5809000D02*
X6311000Y-5691000D01*
D14*
X5680000Y-5080000D02*
X5730000Y-5080000D01*
X5480000Y-5080000D02*
X5430000Y-5080000D01*
X5480000Y-5030000D02*
X5480000Y-5130000D01*
X5480000Y-5130000D02*
X5680000Y-5130000D01*
X5680000Y-5130000D02*
X5680000Y-5030000D01*
X5680000Y-5030000D02*
X5480000Y-5030000D01*
X5680000Y-4320000D02*
X5730000Y-4320000D01*
X5480000Y-4320000D02*
X5430000Y-4320000D01*
X5480000Y-4270000D02*
X5480000Y-4370000D01*
X5480000Y-4370000D02*
X5680000Y-4370000D01*
X5680000Y-4370000D02*
X5680000Y-4270000D01*
X5680000Y-4270000D02*
X5480000Y-4270000D01*
X4337500Y-5650000D02*
X4337500Y-3950000D01*
X4337500Y-3950000D02*
X5162500Y-3950000D01*
X5162500Y-3950000D02*
X5162500Y-5650000D01*
X5162500Y-5650000D02*
X4337500Y-5650000D01*
X5187500Y-5650000D02*
X5187500Y-3950000D01*
X5187500Y-3950000D02*
X6012500Y-3950000D01*
X6012500Y-3950000D02*
X6012500Y-5650000D01*
X6012500Y-5650000D02*
X5187500Y-5650000D01*
X6037500Y-5650000D02*
X6037500Y-3950000D01*
X6037500Y-3950000D02*
X6862500Y-3950000D01*
X6862500Y-3950000D02*
X6862500Y-5650000D01*
X6862500Y-5650000D02*
X6037500Y-5650000D01*
X6912992Y-5255118D02*
X7387008Y-5255118D01*
X7387008Y-5255118D02*
X7387008Y-5904724D01*
X7387008Y-5904724D02*
X6912992Y-5904724D01*
X6912992Y-5904724D02*
X6912992Y-5255118D01*
X7485433Y-3952559D02*
X6914567Y-3952559D01*
X6914567Y-3952559D02*
X6914567Y-4621850D01*
X6904724Y-4621850D02*
X7495276Y-4621850D01*
X7485433Y-4621850D02*
X7485433Y-3952559D01*
D12*
X4103382Y-4151954D02*
X4103382Y-4111954D01*
X4103382Y-4131001D02*
X4126239Y-4131001D01*
X4126239Y-4151954D02*
X4126239Y-4111954D01*
X4166239Y-4151954D02*
X4143382Y-4151954D01*
X4154811Y-4151954D02*
X4154811Y-4111954D01*
X4151001Y-4117668D01*
X4147192Y-4121477D01*
X4143382Y-4123382D01*
X7646689Y-4151954D02*
X7646689Y-4111954D01*
X7646689Y-4131001D02*
X7669546Y-4131001D01*
X7669546Y-4151954D02*
X7669546Y-4111954D01*
X7686689Y-4115763D02*
X7688594Y-4113858D01*
X7692403Y-4111954D01*
X7701927Y-4111954D01*
X7705737Y-4113858D01*
X7707642Y-4115763D01*
X7709546Y-4119573D01*
X7709546Y-4123382D01*
X7707642Y-4129096D01*
X7684784Y-4151954D01*
X7709546Y-4151954D01*
X4103382Y-5726757D02*
X4103382Y-5686757D01*
X4103382Y-5705804D02*
X4126239Y-5705804D01*
X4126239Y-5726757D02*
X4126239Y-5686757D01*
X4141477Y-5686757D02*
X4166239Y-5686757D01*
X4152906Y-5701995D01*
X4158620Y-5701995D01*
X4162430Y-5703900D01*
X4164334Y-5705804D01*
X4166239Y-5709614D01*
X4166239Y-5719138D01*
X4164334Y-5722947D01*
X4162430Y-5724852D01*
X4158620Y-5726757D01*
X4147192Y-5726757D01*
X4143382Y-5724852D01*
X4141477Y-5722947D01*
X7646689Y-5726757D02*
X7646689Y-5686757D01*
X7646689Y-5705804D02*
X7669546Y-5705804D01*
X7669546Y-5726757D02*
X7669546Y-5686757D01*
X7705737Y-5700090D02*
X7705737Y-5726757D01*
X7696213Y-5684852D02*
X7686689Y-5713423D01*
X7711451Y-5713423D01*
X5340167Y-5669095D02*
X5340167Y-5697667D01*
X5338262Y-5703381D01*
X5334452Y-5707190D01*
X5328738Y-5709095D01*
X5324929Y-5709095D01*
X5380167Y-5709095D02*
X5357310Y-5709095D01*
X5368738Y-5709095D02*
X5368738Y-5669095D01*
X5364929Y-5674810D01*
X5361119Y-5678619D01*
X5357310Y-5680524D01*
X4286667Y-5463095D02*
X4286667Y-5491667D01*
X4284762Y-5497381D01*
X4280952Y-5501190D01*
X4275238Y-5503095D01*
X4271429Y-5503095D01*
X4303810Y-5466905D02*
X4305714Y-5465000D01*
X4309524Y-5463095D01*
X4319048Y-5463095D01*
X4322857Y-5465000D01*
X4324762Y-5466905D01*
X4326667Y-5470714D01*
X4326667Y-5474524D01*
X4324762Y-5480238D01*
X4301905Y-5503095D01*
X4326667Y-5503095D01*
X4261924Y-5640495D02*
X4261924Y-5600495D01*
X4284781Y-5640495D01*
X4284781Y-5600495D01*
X4324781Y-5640495D02*
X4301924Y-5640495D01*
X4313352Y-5640495D02*
X4313352Y-5600495D01*
X4309543Y-5606210D01*
X4305733Y-5610019D01*
X4301924Y-5611924D01*
X6769524Y-5718095D02*
X6769524Y-5678095D01*
X6792381Y-5718095D01*
X6792381Y-5678095D01*
X6809524Y-5681905D02*
X6811429Y-5680000D01*
X6815238Y-5678095D01*
X6824762Y-5678095D01*
X6828571Y-5680000D01*
X6830476Y-5681905D01*
X6832381Y-5685714D01*
X6832381Y-5689524D01*
X6830476Y-5695238D01*
X6807619Y-5718095D01*
X6832381Y-5718095D01*
X4769524Y-5698095D02*
X4769524Y-5658095D01*
X4792381Y-5698095D01*
X4792381Y-5658095D01*
X4830476Y-5658095D02*
X4811429Y-5658095D01*
X4809524Y-5677143D01*
X4811429Y-5675238D01*
X4815238Y-5673333D01*
X4824762Y-5673333D01*
X4828571Y-5675238D01*
X4830476Y-5677143D01*
X4832381Y-5680952D01*
X4832381Y-5690476D01*
X4830476Y-5694286D01*
X4828571Y-5696190D01*
X4824762Y-5698095D01*
X4815238Y-5698095D01*
X4811429Y-5696190D01*
X4809524Y-5694286D01*
X4254224Y-4503695D02*
X4254224Y-4463695D01*
X4277081Y-4503695D01*
X4277081Y-4463695D01*
X4313271Y-4463695D02*
X4305652Y-4463695D01*
X4301843Y-4465600D01*
X4299938Y-4467505D01*
X4296129Y-4473219D01*
X4294224Y-4480838D01*
X4294224Y-4496076D01*
X4296129Y-4499886D01*
X4298033Y-4501790D01*
X4301843Y-4503695D01*
X4309462Y-4503695D01*
X4313271Y-4501790D01*
X4315176Y-4499886D01*
X4317081Y-4496076D01*
X4317081Y-4486552D01*
X4315176Y-4482743D01*
X4313271Y-4480838D01*
X4309462Y-4478933D01*
X4301843Y-4478933D01*
X4298033Y-4480838D01*
X4296129Y-4482743D01*
X4294224Y-4486552D01*
X5864890Y-4958105D02*
X5861081Y-4956200D01*
X5857271Y-4952390D01*
X5851557Y-4946676D01*
X5847748Y-4944771D01*
X5843938Y-4944771D01*
X5845843Y-4954295D02*
X5842033Y-4952390D01*
X5838224Y-4948581D01*
X5836319Y-4940962D01*
X5836319Y-4927629D01*
X5838224Y-4920010D01*
X5842033Y-4916200D01*
X5845843Y-4914295D01*
X5853462Y-4914295D01*
X5857271Y-4916200D01*
X5861081Y-4920010D01*
X5862986Y-4927629D01*
X5862986Y-4940962D01*
X5861081Y-4948581D01*
X5857271Y-4952390D01*
X5853462Y-4954295D01*
X5845843Y-4954295D01*
X5901081Y-4954295D02*
X5878224Y-4954295D01*
X5889652Y-4954295D02*
X5889652Y-4914295D01*
X5885843Y-4920010D01*
X5882033Y-4923819D01*
X5878224Y-4925724D01*
D16*
X6505300Y-5039681D02*
X6503424Y-5043433D01*
X6503424Y-5049062D01*
X6505300Y-5054690D01*
X6509052Y-5058443D01*
X6512805Y-5060319D01*
X6520310Y-5062195D01*
X6525938Y-5062195D01*
X6533443Y-5060319D01*
X6537195Y-5058443D01*
X6540948Y-5054690D01*
X6542824Y-5049062D01*
X6542824Y-5045310D01*
X6540948Y-5039681D01*
X6539071Y-5037805D01*
X6525938Y-5037805D01*
X6525938Y-5045310D01*
D17*
D16*
X6540948Y-4861257D02*
X6542824Y-4855629D01*
X6542824Y-4846248D01*
X6540948Y-4842495D01*
X6539071Y-4840619D01*
X6535319Y-4838743D01*
X6531567Y-4838743D01*
X6527814Y-4840619D01*
X6525938Y-4842495D01*
X6524062Y-4846248D01*
X6522186Y-4853752D01*
X6520310Y-4857505D01*
X6518433Y-4859381D01*
X6514681Y-4861257D01*
X6510929Y-4861257D01*
X6507176Y-4859381D01*
X6505300Y-4857505D01*
X6503424Y-4853752D01*
X6503424Y-4844371D01*
X6505300Y-4838743D01*
D17*
D16*
X6542824Y-4960319D02*
X6503424Y-4960319D01*
X6503424Y-4950938D01*
X6505300Y-4945310D01*
X6509052Y-4941557D01*
X6512805Y-4939681D01*
X6520310Y-4937805D01*
X6525938Y-4937805D01*
X6533443Y-4939681D01*
X6537195Y-4941557D01*
X6540948Y-4945310D01*
X6542824Y-4950938D01*
X6542824Y-4960319D01*
D17*
D12*
X5864890Y-4458105D02*
X5861081Y-4456200D01*
X5857271Y-4452390D01*
X5851557Y-4446676D01*
X5847748Y-4444771D01*
X5843938Y-4444771D01*
X5845843Y-4454295D02*
X5842033Y-4452390D01*
X5838224Y-4448581D01*
X5836319Y-4440962D01*
X5836319Y-4427629D01*
X5838224Y-4420010D01*
X5842033Y-4416200D01*
X5845843Y-4414295D01*
X5853462Y-4414295D01*
X5857271Y-4416200D01*
X5861081Y-4420010D01*
X5862986Y-4427629D01*
X5862986Y-4440962D01*
X5861081Y-4448581D01*
X5857271Y-4452390D01*
X5853462Y-4454295D01*
X5845843Y-4454295D01*
X5878224Y-4418105D02*
X5880129Y-4416200D01*
X5883938Y-4414295D01*
X5893462Y-4414295D01*
X5897271Y-4416200D01*
X5899176Y-4418105D01*
X5901081Y-4421914D01*
X5901081Y-4425724D01*
X5899176Y-4431438D01*
X5876319Y-4454295D01*
X5901081Y-4454295D01*
D16*
X6505300Y-4539681D02*
X6503424Y-4543433D01*
X6503424Y-4549062D01*
X6505300Y-4554690D01*
X6509052Y-4558443D01*
X6512805Y-4560319D01*
X6520310Y-4562195D01*
X6525938Y-4562195D01*
X6533443Y-4560319D01*
X6537195Y-4558443D01*
X6540948Y-4554690D01*
X6542824Y-4549062D01*
X6542824Y-4545310D01*
X6540948Y-4539681D01*
X6539071Y-4537805D01*
X6525938Y-4537805D01*
X6525938Y-4545310D01*
D17*
D16*
X6540948Y-4361257D02*
X6542824Y-4355629D01*
X6542824Y-4346248D01*
X6540948Y-4342495D01*
X6539071Y-4340619D01*
X6535319Y-4338743D01*
X6531567Y-4338743D01*
X6527814Y-4340619D01*
X6525938Y-4342495D01*
X6524062Y-4346248D01*
X6522186Y-4353752D01*
X6520310Y-4357505D01*
X6518433Y-4359381D01*
X6514681Y-4361257D01*
X6510929Y-4361257D01*
X6507176Y-4359381D01*
X6505300Y-4357505D01*
X6503424Y-4353752D01*
X6503424Y-4344371D01*
X6505300Y-4338743D01*
D17*
D16*
X6542824Y-4460319D02*
X6503424Y-4460319D01*
X6503424Y-4450938D01*
X6505300Y-4445310D01*
X6509052Y-4441557D01*
X6512805Y-4439681D01*
X6520310Y-4437805D01*
X6525938Y-4437805D01*
X6533443Y-4439681D01*
X6537195Y-4441557D01*
X6540948Y-4445310D01*
X6542824Y-4450938D01*
X6542824Y-4460319D01*
D17*
D12*
X4494514Y-5174394D02*
X4481181Y-5155347D01*
X4471657Y-5174394D02*
X4471657Y-5134394D01*
X4486895Y-5134394D01*
X4490705Y-5136299D01*
X4492610Y-5138204D01*
X4494514Y-5142014D01*
X4494514Y-5147728D01*
X4492610Y-5151537D01*
X4490705Y-5153442D01*
X4486895Y-5155347D01*
X4471657Y-5155347D01*
X4528800Y-5147728D02*
X4528800Y-5174394D01*
X4519276Y-5132490D02*
X4509753Y-5161061D01*
X4534514Y-5161061D01*
X7413667Y-5284190D02*
X7419381Y-5286095D01*
X7428905Y-5286095D01*
X7432714Y-5284190D01*
X7434619Y-5282286D01*
X7436524Y-5278476D01*
X7436524Y-5274667D01*
X7434619Y-5270857D01*
X7432714Y-5268952D01*
X7428905Y-5267048D01*
X7421286Y-5265143D01*
X7417476Y-5263238D01*
X7415571Y-5261333D01*
X7413667Y-5257524D01*
X7413667Y-5253714D01*
X7415571Y-5249905D01*
X7417476Y-5248000D01*
X7421286Y-5246095D01*
X7430810Y-5246095D01*
X7436524Y-5248000D01*
X7449857Y-5246095D02*
X7459381Y-5286095D01*
X7467000Y-5257524D01*
X7474619Y-5286095D01*
X7484143Y-5246095D01*
X7520333Y-5286095D02*
X7497476Y-5286095D01*
X7508905Y-5286095D02*
X7508905Y-5246095D01*
X7505095Y-5251810D01*
X7501286Y-5255619D01*
X7497476Y-5257524D01*
X3999524Y-4338095D02*
X4022381Y-4338095D01*
X4010952Y-4378095D02*
X4010952Y-4338095D01*
X4035714Y-4378095D02*
X4035714Y-4338095D01*
X4050952Y-4338095D01*
X4054762Y-4340000D01*
X4056667Y-4341905D01*
X4058571Y-4345714D01*
X4058571Y-4351429D01*
X4056667Y-4355238D01*
X4054762Y-4357143D01*
X4050952Y-4359048D01*
X4035714Y-4359048D01*
X4096667Y-4378095D02*
X4073810Y-4378095D01*
X4085238Y-4378095D02*
X4085238Y-4338095D01*
X4081429Y-4343810D01*
X4077619Y-4347619D01*
X4073810Y-4349524D01*
X4124524Y-4338095D02*
X4147381Y-4338095D01*
X4135952Y-4378095D02*
X4135952Y-4338095D01*
X4160714Y-4378095D02*
X4160714Y-4338095D01*
X4175952Y-4338095D01*
X4179762Y-4340000D01*
X4181667Y-4341905D01*
X4183571Y-4345714D01*
X4183571Y-4351429D01*
X4181667Y-4355238D01*
X4179762Y-4357143D01*
X4175952Y-4359048D01*
X4160714Y-4359048D01*
X4198810Y-4341905D02*
X4200714Y-4340000D01*
X4204524Y-4338095D01*
X4214048Y-4338095D01*
X4217857Y-4340000D01*
X4219762Y-4341905D01*
X4221667Y-4345714D01*
X4221667Y-4349524D01*
X4219762Y-4355238D01*
X4196905Y-4378095D01*
X4221667Y-4378095D01*
X7605524Y-5255095D02*
X7628381Y-5255095D01*
X7616952Y-5295095D02*
X7616952Y-5255095D01*
X7641714Y-5295095D02*
X7641714Y-5255095D01*
X7656952Y-5255095D01*
X7660762Y-5257000D01*
X7662667Y-5258905D01*
X7664571Y-5262714D01*
X7664571Y-5268429D01*
X7662667Y-5272238D01*
X7660762Y-5274143D01*
X7656952Y-5276048D01*
X7641714Y-5276048D01*
X7677905Y-5255095D02*
X7702667Y-5255095D01*
X7689333Y-5270333D01*
X7695048Y-5270333D01*
X7698857Y-5272238D01*
X7700762Y-5274143D01*
X7702667Y-5277952D01*
X7702667Y-5287476D01*
X7700762Y-5291286D01*
X7698857Y-5293190D01*
X7695048Y-5295095D01*
X7683619Y-5295095D01*
X7679810Y-5293190D01*
X7677905Y-5291286D01*
X5734524Y-5578095D02*
X5757381Y-5578095D01*
X5745952Y-5618095D02*
X5745952Y-5578095D01*
X5770714Y-5618095D02*
X5770714Y-5578095D01*
X5785952Y-5578095D01*
X5789762Y-5580000D01*
X5791667Y-5581905D01*
X5793571Y-5585714D01*
X5793571Y-5591429D01*
X5791667Y-5595238D01*
X5789762Y-5597143D01*
X5785952Y-5599048D01*
X5770714Y-5599048D01*
X5827857Y-5591429D02*
X5827857Y-5618095D01*
X5818333Y-5576190D02*
X5808810Y-5604762D01*
X5833571Y-5604762D01*
X5274524Y-5745595D02*
X5297381Y-5745595D01*
X5285952Y-5785595D02*
X5285952Y-5745595D01*
X5310714Y-5785595D02*
X5310714Y-5745595D01*
X5325952Y-5745595D01*
X5329762Y-5747500D01*
X5331667Y-5749405D01*
X5333571Y-5753214D01*
X5333571Y-5758929D01*
X5331667Y-5762738D01*
X5329762Y-5764643D01*
X5325952Y-5766548D01*
X5310714Y-5766548D01*
X5369762Y-5745595D02*
X5350714Y-5745595D01*
X5348810Y-5764643D01*
X5350714Y-5762738D01*
X5354524Y-5760833D01*
X5364048Y-5760833D01*
X5367857Y-5762738D01*
X5369762Y-5764643D01*
X5371667Y-5768452D01*
X5371667Y-5777976D01*
X5369762Y-5781786D01*
X5367857Y-5783690D01*
X5364048Y-5785595D01*
X5354524Y-5785595D01*
X5350714Y-5783690D01*
X5348810Y-5781786D01*
X6387619Y-5188095D02*
X6400952Y-5228095D01*
X6414286Y-5188095D01*
X6450476Y-5228095D02*
X6437143Y-5209048D01*
X6427619Y-5228095D02*
X6427619Y-5188095D01*
X6442857Y-5188095D01*
X6446667Y-5190000D01*
X6448571Y-5191905D01*
X6450476Y-5195714D01*
X6450476Y-5201429D01*
X6448571Y-5205238D01*
X6446667Y-5207143D01*
X6442857Y-5209048D01*
X6427619Y-5209048D01*
X6465714Y-5191905D02*
X6467619Y-5190000D01*
X6471429Y-5188095D01*
X6480952Y-5188095D01*
X6484762Y-5190000D01*
X6486667Y-5191905D01*
X6488571Y-5195714D01*
X6488571Y-5199524D01*
X6486667Y-5205238D01*
X6463810Y-5228095D01*
X6488571Y-5228095D01*
X5547619Y-5178095D02*
X5560952Y-5218095D01*
X5574286Y-5178095D01*
X5610476Y-5218095D02*
X5597143Y-5199048D01*
X5587619Y-5218095D02*
X5587619Y-5178095D01*
X5602857Y-5178095D01*
X5606667Y-5180000D01*
X5608571Y-5181905D01*
X5610476Y-5185714D01*
X5610476Y-5191429D01*
X5608571Y-5195238D01*
X5606667Y-5197143D01*
X5602857Y-5199048D01*
X5587619Y-5199048D01*
X5644762Y-5191429D02*
X5644762Y-5218095D01*
X5635238Y-5176190D02*
X5625714Y-5204762D01*
X5650476Y-5204762D01*
X4697619Y-5178095D02*
X4710952Y-5218095D01*
X4724286Y-5178095D01*
X4760476Y-5218095D02*
X4747143Y-5199048D01*
X4737619Y-5218095D02*
X4737619Y-5178095D01*
X4752857Y-5178095D01*
X4756667Y-5180000D01*
X4758571Y-5181905D01*
X4760476Y-5185714D01*
X4760476Y-5191429D01*
X4758571Y-5195238D01*
X4756667Y-5197143D01*
X4752857Y-5199048D01*
X4737619Y-5199048D01*
X4794762Y-5178095D02*
X4787143Y-5178095D01*
X4783333Y-5180000D01*
X4781429Y-5181905D01*
X4777619Y-5187619D01*
X4775714Y-5195238D01*
X4775714Y-5210476D01*
X4777619Y-5214286D01*
X4779524Y-5216190D01*
X4783333Y-5218095D01*
X4790952Y-5218095D01*
X4794762Y-5216190D01*
X4796667Y-5214286D01*
X4798571Y-5210476D01*
X4798571Y-5200952D01*
X4796667Y-5197143D01*
X4794762Y-5195238D01*
X4790952Y-5193333D01*
X4783333Y-5193333D01*
X4779524Y-5195238D01*
X4777619Y-5197143D01*
X4775714Y-5200952D01*
X6241333Y-5862095D02*
X6228000Y-5843048D01*
X6218476Y-5862095D02*
X6218476Y-5822095D01*
X6233714Y-5822095D01*
X6237524Y-5824000D01*
X6239429Y-5825905D01*
X6241333Y-5829714D01*
X6241333Y-5835429D01*
X6239429Y-5839238D01*
X6237524Y-5841143D01*
X6233714Y-5843048D01*
X6218476Y-5843048D01*
X6279429Y-5862095D02*
X6256571Y-5862095D01*
X6268000Y-5862095D02*
X6268000Y-5822095D01*
X6264191Y-5827810D01*
X6260381Y-5831619D01*
X6256571Y-5833524D01*
X5572152Y-5006363D02*
X5558819Y-4987315D01*
X5549295Y-5006363D02*
X5549295Y-4966363D01*
X5564533Y-4966363D01*
X5568343Y-4968268D01*
X5570247Y-4970172D01*
X5572152Y-4973982D01*
X5572152Y-4979696D01*
X5570247Y-4983506D01*
X5568343Y-4985411D01*
X5564533Y-4987315D01*
X5549295Y-4987315D01*
X5587390Y-4970172D02*
X5589295Y-4968268D01*
X5593105Y-4966363D01*
X5602628Y-4966363D01*
X5606438Y-4968268D01*
X5608343Y-4970172D01*
X5610247Y-4973982D01*
X5610247Y-4977792D01*
X5608343Y-4983506D01*
X5585486Y-5006363D01*
X5610247Y-5006363D01*
X5568333Y-4443095D02*
X5555000Y-4424048D01*
X5545476Y-4443095D02*
X5545476Y-4403095D01*
X5560714Y-4403095D01*
X5564524Y-4405000D01*
X5566429Y-4406905D01*
X5568333Y-4410714D01*
X5568333Y-4416429D01*
X5566429Y-4420238D01*
X5564524Y-4422143D01*
X5560714Y-4424048D01*
X5545476Y-4424048D01*
X5581667Y-4403095D02*
X5606429Y-4403095D01*
X5593095Y-4418333D01*
X5598810Y-4418333D01*
X5602619Y-4420238D01*
X5604524Y-4422143D01*
X5606429Y-4425952D01*
X5606429Y-4435476D01*
X5604524Y-4439286D01*
X5602619Y-4441190D01*
X5598810Y-4443095D01*
X5587381Y-4443095D01*
X5583571Y-4441190D01*
X5581667Y-4439286D01*
D11*
X4672619Y-5528095D02*
X4685952Y-5568095D01*
X4699286Y-5528095D01*
X4735476Y-5568095D02*
X4722143Y-5549048D01*
X4712619Y-5568095D02*
X4712619Y-5528095D01*
X4727857Y-5528095D01*
X4731667Y-5530000D01*
X4733571Y-5531905D01*
X4735476Y-5535714D01*
X4735476Y-5541429D01*
X4733571Y-5545238D01*
X4731667Y-5547143D01*
X4727857Y-5549048D01*
X4712619Y-5549048D01*
X4771667Y-5528095D02*
X4752619Y-5528095D01*
X4750714Y-5547143D01*
X4752619Y-5545238D01*
X4756429Y-5543333D01*
X4765952Y-5543333D01*
X4769762Y-5545238D01*
X4771667Y-5547143D01*
X4773571Y-5550952D01*
X4773571Y-5560476D01*
X4771667Y-5564286D01*
X4769762Y-5566190D01*
X4765952Y-5568095D01*
X4756429Y-5568095D01*
X4752619Y-5566190D01*
X4750714Y-5564286D01*
X5522619Y-5528095D02*
X5535952Y-5568095D01*
X5549286Y-5528095D01*
X5585476Y-5568095D02*
X5572143Y-5549048D01*
X5562619Y-5568095D02*
X5562619Y-5528095D01*
X5577857Y-5528095D01*
X5581667Y-5530000D01*
X5583571Y-5531905D01*
X5585476Y-5535714D01*
X5585476Y-5541429D01*
X5583571Y-5545238D01*
X5581667Y-5547143D01*
X5577857Y-5549048D01*
X5562619Y-5549048D01*
X5598810Y-5528095D02*
X5623571Y-5528095D01*
X5610238Y-5543333D01*
X5615952Y-5543333D01*
X5619762Y-5545238D01*
X5621667Y-5547143D01*
X5623571Y-5550952D01*
X5623571Y-5560476D01*
X5621667Y-5564286D01*
X5619762Y-5566190D01*
X5615952Y-5568095D01*
X5604524Y-5568095D01*
X5600714Y-5566190D01*
X5598810Y-5564286D01*
X6381119Y-5511595D02*
X6394452Y-5551595D01*
X6407786Y-5511595D01*
X6443976Y-5551595D02*
X6430643Y-5532548D01*
X6421119Y-5551595D02*
X6421119Y-5511595D01*
X6436357Y-5511595D01*
X6440167Y-5513500D01*
X6442071Y-5515405D01*
X6443976Y-5519214D01*
X6443976Y-5524929D01*
X6442071Y-5528738D01*
X6440167Y-5530643D01*
X6436357Y-5532548D01*
X6421119Y-5532548D01*
X6482071Y-5551595D02*
X6459214Y-5551595D01*
X6470643Y-5551595D02*
X6470643Y-5511595D01*
X6466833Y-5517310D01*
X6463024Y-5521119D01*
X6459214Y-5523024D01*
X7409524Y-5858095D02*
X7409524Y-5818095D01*
X7432381Y-5858095D01*
X7432381Y-5818095D01*
X7447619Y-5818095D02*
X7472381Y-5818095D01*
X7459048Y-5833333D01*
X7464762Y-5833333D01*
X7468571Y-5835238D01*
X7470476Y-5837143D01*
X7472381Y-5840952D01*
X7472381Y-5850476D01*
X7470476Y-5854286D01*
X7468571Y-5856190D01*
X7464762Y-5858095D01*
X7453333Y-5858095D01*
X7449524Y-5856190D01*
X7447619Y-5854286D01*
X7177398Y-4311993D02*
X7177398Y-4271993D01*
X7200255Y-4311993D01*
X7200255Y-4271993D01*
X7236445Y-4285326D02*
X7236445Y-4311993D01*
X7226922Y-4270088D02*
X7217398Y-4298660D01*
X7242160Y-4298660D01*
M02*
