%FSLAX36Y36*%
G04 Gerber Fmt 3.6, Leading zero omitted, Abs format (unit inch)*
G04 Created by KiCad (PCBNEW (2014-jul-16 BZR unknown)-product) date Sat 24 Jan 2015 08:01:21 PM PST*
%MOIN*%
G01*
G04 APERTURE LIST*
%ADD10C,0.003937*%
%ADD11C,0.006000*%
%ADD12C,0.000100*%
G04 APERTURE END LIST*
D10*
D11*
X4985476Y-4604143D02*
X4979762Y-4606048D01*
X4977857Y-4607952D01*
X4975952Y-4611762D01*
X4975952Y-4617476D01*
X4977857Y-4621286D01*
X4979762Y-4623190D01*
X4983571Y-4625095D01*
X4998809Y-4625095D01*
X4998809Y-4585095D01*
X4985476Y-4585095D01*
X4981667Y-4587000D01*
X4979762Y-4588905D01*
X4977857Y-4592714D01*
X4977857Y-4596524D01*
X4979762Y-4600333D01*
X4981667Y-4602238D01*
X4985476Y-4604143D01*
X4998809Y-4604143D01*
X4941667Y-4598429D02*
X4941667Y-4625095D01*
X4958809Y-4598429D02*
X4958809Y-4619381D01*
X4956905Y-4623190D01*
X4953095Y-4625095D01*
X4947381Y-4625095D01*
X4943571Y-4623190D01*
X4941667Y-4621286D01*
X4924524Y-4623190D02*
X4920714Y-4625095D01*
X4913095Y-4625095D01*
X4909286Y-4623190D01*
X4907381Y-4619381D01*
X4907381Y-4617476D01*
X4909286Y-4613667D01*
X4913095Y-4611762D01*
X4918809Y-4611762D01*
X4922619Y-4609857D01*
X4924524Y-4606048D01*
X4924524Y-4604143D01*
X4922619Y-4600333D01*
X4918809Y-4598429D01*
X4913095Y-4598429D01*
X4909286Y-4600333D01*
X4859762Y-4585095D02*
X4859762Y-4617476D01*
X4857857Y-4621286D01*
X4855952Y-4623190D01*
X4852143Y-4625095D01*
X4844524Y-4625095D01*
X4840714Y-4623190D01*
X4838810Y-4621286D01*
X4836905Y-4617476D01*
X4836905Y-4585095D01*
X4819762Y-4623190D02*
X4814048Y-4625095D01*
X4804524Y-4625095D01*
X4800714Y-4623190D01*
X4798810Y-4621286D01*
X4796905Y-4617476D01*
X4796905Y-4613667D01*
X4798810Y-4609857D01*
X4800714Y-4607952D01*
X4804524Y-4606048D01*
X4812143Y-4604143D01*
X4815952Y-4602238D01*
X4817857Y-4600333D01*
X4819762Y-4596524D01*
X4819762Y-4592714D01*
X4817857Y-4588905D01*
X4815952Y-4587000D01*
X4812143Y-4585095D01*
X4802619Y-4585095D01*
X4796905Y-4587000D01*
X4766429Y-4604143D02*
X4760714Y-4606048D01*
X4758810Y-4607952D01*
X4756905Y-4611762D01*
X4756905Y-4617476D01*
X4758810Y-4621286D01*
X4760714Y-4623190D01*
X4764524Y-4625095D01*
X4779762Y-4625095D01*
X4779762Y-4585095D01*
X4766429Y-4585095D01*
X4762619Y-4587000D01*
X4760714Y-4588905D01*
X4758810Y-4592714D01*
X4758810Y-4596524D01*
X4760714Y-4600333D01*
X4762619Y-4602238D01*
X4766429Y-4604143D01*
X4779762Y-4604143D01*
X4709286Y-4625095D02*
X4709286Y-4585095D01*
X4694048Y-4585095D01*
X4690238Y-4587000D01*
X4688333Y-4588905D01*
X4686429Y-4592714D01*
X4686429Y-4598429D01*
X4688333Y-4602238D01*
X4690238Y-4604143D01*
X4694048Y-4606048D01*
X4709286Y-4606048D01*
X4663571Y-4625095D02*
X4667381Y-4623190D01*
X4669286Y-4621286D01*
X4671190Y-4617476D01*
X4671190Y-4606048D01*
X4669286Y-4602238D01*
X4667381Y-4600333D01*
X4663571Y-4598429D01*
X4657857Y-4598429D01*
X4654048Y-4600333D01*
X4652143Y-4602238D01*
X4650238Y-4606048D01*
X4650238Y-4617476D01*
X4652143Y-4621286D01*
X4654048Y-4623190D01*
X4657857Y-4625095D01*
X4663571Y-4625095D01*
X4636905Y-4598429D02*
X4629286Y-4625095D01*
X4621667Y-4606048D01*
X4614048Y-4625095D01*
X4606429Y-4598429D01*
X4575952Y-4623190D02*
X4579762Y-4625095D01*
X4587381Y-4625095D01*
X4591190Y-4623190D01*
X4593095Y-4619381D01*
X4593095Y-4604143D01*
X4591190Y-4600333D01*
X4587381Y-4598429D01*
X4579762Y-4598429D01*
X4575952Y-4600333D01*
X4574048Y-4604143D01*
X4574048Y-4607952D01*
X4593095Y-4611762D01*
X4556905Y-4625095D02*
X4556905Y-4598429D01*
X4556905Y-4606048D02*
X4555000Y-4602238D01*
X4553095Y-4600333D01*
X4549286Y-4598429D01*
X4545476Y-4598429D01*
X5020714Y-4687095D02*
X5034048Y-4668048D01*
X5043571Y-4687095D02*
X5043571Y-4647095D01*
X5028333Y-4647095D01*
X5024524Y-4649000D01*
X5022619Y-4650905D01*
X5020714Y-4654714D01*
X5020714Y-4660429D01*
X5022619Y-4664238D01*
X5024524Y-4666143D01*
X5028333Y-4668048D01*
X5043571Y-4668048D01*
X4988333Y-4685190D02*
X4992143Y-4687095D01*
X4999762Y-4687095D01*
X5003571Y-4685190D01*
X5005476Y-4681381D01*
X5005476Y-4666143D01*
X5003571Y-4662333D01*
X4999762Y-4660429D01*
X4992143Y-4660429D01*
X4988333Y-4662333D01*
X4986429Y-4666143D01*
X4986429Y-4669952D01*
X5005476Y-4673762D01*
X4973095Y-4660429D02*
X4963571Y-4687095D01*
X4954048Y-4660429D01*
X4938809Y-4683286D02*
X4936905Y-4685190D01*
X4938809Y-4687095D01*
X4940714Y-4685190D01*
X4938809Y-4683286D01*
X4938809Y-4687095D01*
X4875952Y-4666143D02*
X4870238Y-4668048D01*
X4868333Y-4669952D01*
X4866429Y-4673762D01*
X4866429Y-4679476D01*
X4868333Y-4683286D01*
X4870238Y-4685190D01*
X4874048Y-4687095D01*
X4889286Y-4687095D01*
X4889286Y-4647095D01*
X4875952Y-4647095D01*
X4872143Y-4649000D01*
X4870238Y-4650905D01*
X4868333Y-4654714D01*
X4868333Y-4658524D01*
X4870238Y-4662333D01*
X4872143Y-4664238D01*
X4875952Y-4666143D01*
X4889286Y-4666143D01*
X4820714Y-4650905D02*
X4818809Y-4649000D01*
X4815000Y-4647095D01*
X4805476Y-4647095D01*
X4801667Y-4649000D01*
X4799762Y-4650905D01*
X4797857Y-4654714D01*
X4797857Y-4658524D01*
X4799762Y-4664238D01*
X4822619Y-4687095D01*
X4797857Y-4687095D01*
X4763571Y-4660429D02*
X4763571Y-4687095D01*
X4773095Y-4645190D02*
X4782619Y-4673762D01*
X4757857Y-4673762D01*
X4731190Y-4647095D02*
X4731190Y-4675667D01*
X4733095Y-4681381D01*
X4736905Y-4685190D01*
X4742619Y-4687095D01*
X4746429Y-4687095D01*
X4695000Y-4687095D02*
X4695000Y-4666143D01*
X4696905Y-4662333D01*
X4700714Y-4660429D01*
X4708333Y-4660429D01*
X4712143Y-4662333D01*
X4695000Y-4685190D02*
X4698810Y-4687095D01*
X4708333Y-4687095D01*
X4712143Y-4685190D01*
X4714048Y-4681381D01*
X4714048Y-4677571D01*
X4712143Y-4673762D01*
X4708333Y-4671857D01*
X4698810Y-4671857D01*
X4695000Y-4669952D01*
X4675952Y-4660429D02*
X4675952Y-4687095D01*
X4675952Y-4664238D02*
X4674048Y-4662333D01*
X4670238Y-4660429D01*
X4664524Y-4660429D01*
X4660714Y-4662333D01*
X4658810Y-4666143D01*
X4658810Y-4687095D01*
X4641667Y-4650905D02*
X4639762Y-4649000D01*
X4635952Y-4647095D01*
X4626429Y-4647095D01*
X4622619Y-4649000D01*
X4620714Y-4650905D01*
X4618810Y-4654714D01*
X4618810Y-4658524D01*
X4620714Y-4664238D01*
X4643571Y-4687095D01*
X4618810Y-4687095D01*
X4594048Y-4647095D02*
X4590238Y-4647095D01*
X4586429Y-4649000D01*
X4584524Y-4650905D01*
X4582619Y-4654714D01*
X4580714Y-4662333D01*
X4580714Y-4671857D01*
X4582619Y-4679476D01*
X4584524Y-4683286D01*
X4586429Y-4685190D01*
X4590238Y-4687095D01*
X4594048Y-4687095D01*
X4597857Y-4685190D01*
X4599762Y-4683286D01*
X4601667Y-4679476D01*
X4603571Y-4671857D01*
X4603571Y-4662333D01*
X4601667Y-4654714D01*
X4599762Y-4650905D01*
X4597857Y-4649000D01*
X4594048Y-4647095D01*
X4542619Y-4687095D02*
X4565476Y-4687095D01*
X4554048Y-4687095D02*
X4554048Y-4647095D01*
X4557857Y-4652810D01*
X4561667Y-4656619D01*
X4565476Y-4658524D01*
X4508333Y-4660429D02*
X4508333Y-4687095D01*
X4517857Y-4645190D02*
X4527381Y-4673762D01*
X4502619Y-4673762D01*
X5034048Y-4745286D02*
X5035952Y-4747190D01*
X5041667Y-4749095D01*
X5045476Y-4749095D01*
X5051190Y-4747190D01*
X5055000Y-4743381D01*
X5056905Y-4739571D01*
X5058809Y-4731952D01*
X5058809Y-4726238D01*
X5056905Y-4718619D01*
X5055000Y-4714810D01*
X5051190Y-4711000D01*
X5045476Y-4709095D01*
X5041667Y-4709095D01*
X5035952Y-4711000D01*
X5034048Y-4712905D01*
X5011190Y-4749095D02*
X5015000Y-4747190D01*
X5016905Y-4745286D01*
X5018809Y-4741476D01*
X5018809Y-4730048D01*
X5016905Y-4726238D01*
X5015000Y-4724333D01*
X5011190Y-4722429D01*
X5005476Y-4722429D01*
X5001667Y-4724333D01*
X4999762Y-4726238D01*
X4997857Y-4730048D01*
X4997857Y-4741476D01*
X4999762Y-4745286D01*
X5001667Y-4747190D01*
X5005476Y-4749095D01*
X5011190Y-4749095D01*
X4980714Y-4722429D02*
X4980714Y-4762429D01*
X4980714Y-4724333D02*
X4976905Y-4722429D01*
X4969286Y-4722429D01*
X4965476Y-4724333D01*
X4963571Y-4726238D01*
X4961667Y-4730048D01*
X4961667Y-4741476D01*
X4963571Y-4745286D01*
X4965476Y-4747190D01*
X4969286Y-4749095D01*
X4976905Y-4749095D01*
X4980714Y-4747190D01*
X4948333Y-4722429D02*
X4938809Y-4749095D01*
X4929286Y-4722429D02*
X4938809Y-4749095D01*
X4942619Y-4758619D01*
X4944524Y-4760524D01*
X4948333Y-4762429D01*
X4914048Y-4749095D02*
X4914048Y-4722429D01*
X4914048Y-4730048D02*
X4912143Y-4726238D01*
X4910238Y-4724333D01*
X4906429Y-4722429D01*
X4902619Y-4722429D01*
X4889286Y-4749095D02*
X4889286Y-4722429D01*
X4889286Y-4709095D02*
X4891190Y-4711000D01*
X4889286Y-4712905D01*
X4887381Y-4711000D01*
X4889286Y-4709095D01*
X4889286Y-4712905D01*
X4853095Y-4722429D02*
X4853095Y-4754810D01*
X4855000Y-4758619D01*
X4856905Y-4760524D01*
X4860714Y-4762429D01*
X4866429Y-4762429D01*
X4870238Y-4760524D01*
X4853095Y-4747190D02*
X4856905Y-4749095D01*
X4864524Y-4749095D01*
X4868333Y-4747190D01*
X4870238Y-4745286D01*
X4872143Y-4741476D01*
X4872143Y-4730048D01*
X4870238Y-4726238D01*
X4868333Y-4724333D01*
X4864524Y-4722429D01*
X4856905Y-4722429D01*
X4853095Y-4724333D01*
X4834048Y-4749095D02*
X4834048Y-4709095D01*
X4816905Y-4749095D02*
X4816905Y-4728143D01*
X4818809Y-4724333D01*
X4822619Y-4722429D01*
X4828333Y-4722429D01*
X4832143Y-4724333D01*
X4834048Y-4726238D01*
X4803571Y-4722429D02*
X4788333Y-4722429D01*
X4797857Y-4709095D02*
X4797857Y-4743381D01*
X4795952Y-4747190D01*
X4792143Y-4749095D01*
X4788333Y-4749095D01*
X4733095Y-4764333D02*
X4735000Y-4762429D01*
X4738809Y-4756714D01*
X4740714Y-4752905D01*
X4742619Y-4747190D01*
X4744524Y-4737667D01*
X4744524Y-4730048D01*
X4742619Y-4720524D01*
X4740714Y-4714810D01*
X4738809Y-4711000D01*
X4735000Y-4705286D01*
X4733095Y-4703381D01*
X4700714Y-4747190D02*
X4704524Y-4749095D01*
X4712143Y-4749095D01*
X4715952Y-4747190D01*
X4717857Y-4745286D01*
X4719762Y-4741476D01*
X4719762Y-4730048D01*
X4717857Y-4726238D01*
X4715952Y-4724333D01*
X4712143Y-4722429D01*
X4704524Y-4722429D01*
X4700714Y-4724333D01*
X4687381Y-4764333D02*
X4685476Y-4762429D01*
X4681667Y-4756714D01*
X4679762Y-4752905D01*
X4677857Y-4747190D01*
X4675952Y-4737667D01*
X4675952Y-4730048D01*
X4677857Y-4720524D01*
X4679762Y-4714810D01*
X4681667Y-4711000D01*
X4685476Y-4705286D01*
X4687381Y-4703381D01*
X4628333Y-4712905D02*
X4626429Y-4711000D01*
X4622619Y-4709095D01*
X4613095Y-4709095D01*
X4609286Y-4711000D01*
X4607381Y-4712905D01*
X4605476Y-4716714D01*
X4605476Y-4720524D01*
X4607381Y-4726238D01*
X4630238Y-4749095D01*
X4605476Y-4749095D01*
X4580714Y-4709095D02*
X4576905Y-4709095D01*
X4573095Y-4711000D01*
X4571191Y-4712905D01*
X4569286Y-4716714D01*
X4567381Y-4724333D01*
X4567381Y-4733857D01*
X4569286Y-4741476D01*
X4571191Y-4745286D01*
X4573095Y-4747190D01*
X4576905Y-4749095D01*
X4580714Y-4749095D01*
X4584524Y-4747190D01*
X4586429Y-4745286D01*
X4588333Y-4741476D01*
X4590238Y-4733857D01*
X4590238Y-4724333D01*
X4588333Y-4716714D01*
X4586429Y-4712905D01*
X4584524Y-4711000D01*
X4580714Y-4709095D01*
X4529286Y-4749095D02*
X4552143Y-4749095D01*
X4540714Y-4749095D02*
X4540714Y-4709095D01*
X4544524Y-4714810D01*
X4548333Y-4718619D01*
X4552143Y-4720524D01*
X4493095Y-4709095D02*
X4512143Y-4709095D01*
X4514048Y-4728143D01*
X4512143Y-4726238D01*
X4508333Y-4724333D01*
X4498810Y-4724333D01*
X4495000Y-4726238D01*
X4493095Y-4728143D01*
X4491191Y-4731952D01*
X4491191Y-4741476D01*
X4493095Y-4745286D01*
X4495000Y-4747190D01*
X4498810Y-4749095D01*
X4508333Y-4749095D01*
X4512143Y-4747190D01*
X4514048Y-4745286D01*
X5053095Y-4811095D02*
X5053095Y-4771095D01*
X5053095Y-4786333D02*
X5049286Y-4784429D01*
X5041667Y-4784429D01*
X5037857Y-4786333D01*
X5035952Y-4788238D01*
X5034048Y-4792048D01*
X5034048Y-4803476D01*
X5035952Y-4807286D01*
X5037857Y-4809190D01*
X5041667Y-4811095D01*
X5049286Y-4811095D01*
X5053095Y-4809190D01*
X5020714Y-4784429D02*
X5011190Y-4811095D01*
X5001667Y-4784429D02*
X5011190Y-4811095D01*
X5015000Y-4820619D01*
X5016905Y-4822524D01*
X5020714Y-4824429D01*
X4959762Y-4771095D02*
X4950238Y-4811095D01*
X4942619Y-4782524D01*
X4935000Y-4811095D01*
X4925476Y-4771095D01*
X4893095Y-4811095D02*
X4893095Y-4790143D01*
X4895000Y-4786333D01*
X4898810Y-4784429D01*
X4906429Y-4784429D01*
X4910238Y-4786333D01*
X4893095Y-4809190D02*
X4896905Y-4811095D01*
X4906429Y-4811095D01*
X4910238Y-4809190D01*
X4912143Y-4805381D01*
X4912143Y-4801571D01*
X4910238Y-4797762D01*
X4906429Y-4795857D01*
X4896905Y-4795857D01*
X4893095Y-4793952D01*
X4877857Y-4784429D02*
X4868333Y-4811095D01*
X4858810Y-4784429D02*
X4868333Y-4811095D01*
X4872143Y-4820619D01*
X4874048Y-4822524D01*
X4877857Y-4824429D01*
X4843571Y-4784429D02*
X4843571Y-4811095D01*
X4843571Y-4788238D02*
X4841667Y-4786333D01*
X4837857Y-4784429D01*
X4832143Y-4784429D01*
X4828333Y-4786333D01*
X4826429Y-4790143D01*
X4826429Y-4811095D01*
X4792143Y-4809190D02*
X4795952Y-4811095D01*
X4803571Y-4811095D01*
X4807381Y-4809190D01*
X4809286Y-4805381D01*
X4809286Y-4790143D01*
X4807381Y-4786333D01*
X4803571Y-4784429D01*
X4795952Y-4784429D01*
X4792143Y-4786333D01*
X4790238Y-4790143D01*
X4790238Y-4793952D01*
X4809286Y-4797762D01*
X4721667Y-4773000D02*
X4725476Y-4771095D01*
X4731191Y-4771095D01*
X4736905Y-4773000D01*
X4740714Y-4776810D01*
X4742619Y-4780619D01*
X4744524Y-4788238D01*
X4744524Y-4793952D01*
X4742619Y-4801571D01*
X4740714Y-4805381D01*
X4736905Y-4809190D01*
X4731191Y-4811095D01*
X4727381Y-4811095D01*
X4721667Y-4809190D01*
X4719762Y-4807286D01*
X4719762Y-4793952D01*
X4727381Y-4793952D01*
X4702619Y-4811095D02*
X4702619Y-4784429D01*
X4702619Y-4792048D02*
X4700714Y-4788238D01*
X4698810Y-4786333D01*
X4695000Y-4784429D01*
X4691191Y-4784429D01*
X4660714Y-4811095D02*
X4660714Y-4790143D01*
X4662619Y-4786333D01*
X4666429Y-4784429D01*
X4674048Y-4784429D01*
X4677857Y-4786333D01*
X4660714Y-4809190D02*
X4664524Y-4811095D01*
X4674048Y-4811095D01*
X4677857Y-4809190D01*
X4679762Y-4805381D01*
X4679762Y-4801571D01*
X4677857Y-4797762D01*
X4674048Y-4795857D01*
X4664524Y-4795857D01*
X4660714Y-4793952D01*
X4641667Y-4811095D02*
X4641667Y-4784429D01*
X4641667Y-4788238D02*
X4639762Y-4786333D01*
X4635952Y-4784429D01*
X4630238Y-4784429D01*
X4626429Y-4786333D01*
X4624524Y-4790143D01*
X4624524Y-4811095D01*
X4624524Y-4790143D02*
X4622619Y-4786333D01*
X4618810Y-4784429D01*
X4613095Y-4784429D01*
X4609286Y-4786333D01*
X4607381Y-4790143D01*
X4607381Y-4811095D01*
X4582619Y-4811095D02*
X4586429Y-4809190D01*
X4588333Y-4805381D01*
X4588333Y-4771095D01*
X4567381Y-4811095D02*
X4567381Y-4784429D01*
X4567381Y-4771095D02*
X4569286Y-4773000D01*
X4567381Y-4774905D01*
X4565476Y-4773000D01*
X4567381Y-4771095D01*
X4567381Y-4774905D01*
X4531191Y-4809190D02*
X4535000Y-4811095D01*
X4542619Y-4811095D01*
X4546429Y-4809190D01*
X4548333Y-4807286D01*
X4550238Y-4803476D01*
X4550238Y-4792048D01*
X4548333Y-4788238D01*
X4546429Y-4786333D01*
X4542619Y-4784429D01*
X4535000Y-4784429D01*
X4531191Y-4786333D01*
X4514048Y-4811095D02*
X4514048Y-4771095D01*
X4496905Y-4811095D02*
X4496905Y-4790143D01*
X4498810Y-4786333D01*
X4502619Y-4784429D01*
X4508333Y-4784429D01*
X4512143Y-4786333D01*
X4514048Y-4788238D01*
X5620114Y-4891295D02*
X5620114Y-4851295D01*
X5602971Y-4891295D02*
X5602971Y-4870343D01*
X5604876Y-4866533D01*
X5608686Y-4864629D01*
X5614400Y-4864629D01*
X5618209Y-4866533D01*
X5620114Y-4868438D01*
X5566781Y-4891295D02*
X5566781Y-4870343D01*
X5568686Y-4866533D01*
X5572495Y-4864629D01*
X5580114Y-4864629D01*
X5583924Y-4866533D01*
X5566781Y-4889390D02*
X5570590Y-4891295D01*
X5580114Y-4891295D01*
X5583924Y-4889390D01*
X5585829Y-4885581D01*
X5585829Y-4881771D01*
X5583924Y-4877962D01*
X5580114Y-4876057D01*
X5570590Y-4876057D01*
X5566781Y-4874152D01*
X5547733Y-4891295D02*
X5547733Y-4864629D01*
X5547733Y-4872248D02*
X5545829Y-4868438D01*
X5543924Y-4866533D01*
X5540114Y-4864629D01*
X5536305Y-4864629D01*
X5505829Y-4891295D02*
X5505829Y-4851295D01*
X5505829Y-4889390D02*
X5509638Y-4891295D01*
X5517257Y-4891295D01*
X5521067Y-4889390D01*
X5522971Y-4887486D01*
X5524876Y-4883676D01*
X5524876Y-4872248D01*
X5522971Y-4868438D01*
X5521067Y-4866533D01*
X5517257Y-4864629D01*
X5509638Y-4864629D01*
X5505829Y-4866533D01*
X5490590Y-4864629D02*
X5482971Y-4891295D01*
X5475352Y-4872248D01*
X5467733Y-4891295D01*
X5460114Y-4864629D01*
X5427733Y-4891295D02*
X5427733Y-4870343D01*
X5429638Y-4866533D01*
X5433448Y-4864629D01*
X5441067Y-4864629D01*
X5444876Y-4866533D01*
X5427733Y-4889390D02*
X5431543Y-4891295D01*
X5441067Y-4891295D01*
X5444876Y-4889390D01*
X5446781Y-4885581D01*
X5446781Y-4881771D01*
X5444876Y-4877962D01*
X5441067Y-4876057D01*
X5431543Y-4876057D01*
X5427733Y-4874152D01*
X5408686Y-4891295D02*
X5408686Y-4864629D01*
X5408686Y-4872248D02*
X5406781Y-4868438D01*
X5404876Y-4866533D01*
X5401067Y-4864629D01*
X5397257Y-4864629D01*
X5368686Y-4889390D02*
X5372495Y-4891295D01*
X5380114Y-4891295D01*
X5383924Y-4889390D01*
X5385829Y-4885581D01*
X5385829Y-4870343D01*
X5383924Y-4866533D01*
X5380114Y-4864629D01*
X5372495Y-4864629D01*
X5368686Y-4866533D01*
X5366781Y-4870343D01*
X5366781Y-4874152D01*
X5385829Y-4877962D01*
X5650476Y-4838095D02*
X5654286Y-4836190D01*
X5656190Y-4834286D01*
X5658095Y-4830476D01*
X5658095Y-4819048D01*
X5656190Y-4815238D01*
X5654286Y-4813333D01*
X5650476Y-4811429D01*
X5644762Y-4811429D01*
X5640952Y-4813333D01*
X5639048Y-4815238D01*
X5637143Y-4819048D01*
X5637143Y-4830476D01*
X5639048Y-4834286D01*
X5640952Y-4836190D01*
X5644762Y-4838095D01*
X5650476Y-4838095D01*
X5620000Y-4811429D02*
X5620000Y-4851429D01*
X5620000Y-4813333D02*
X5616190Y-4811429D01*
X5608571Y-4811429D01*
X5604762Y-4813333D01*
X5602857Y-4815238D01*
X5600952Y-4819048D01*
X5600952Y-4830476D01*
X5602857Y-4834286D01*
X5604762Y-4836190D01*
X5608571Y-4838095D01*
X5616190Y-4838095D01*
X5620000Y-4836190D01*
X5568571Y-4836190D02*
X5572381Y-4838095D01*
X5580000Y-4838095D01*
X5583809Y-4836190D01*
X5585714Y-4832381D01*
X5585714Y-4817143D01*
X5583809Y-4813333D01*
X5580000Y-4811429D01*
X5572381Y-4811429D01*
X5568571Y-4813333D01*
X5566667Y-4817143D01*
X5566667Y-4820952D01*
X5585714Y-4824762D01*
X5549524Y-4811429D02*
X5549524Y-4838095D01*
X5549524Y-4815238D02*
X5547619Y-4813333D01*
X5543809Y-4811429D01*
X5538095Y-4811429D01*
X5534286Y-4813333D01*
X5532381Y-4817143D01*
X5532381Y-4838095D01*
X5484762Y-4836190D02*
X5480952Y-4838095D01*
X5473333Y-4838095D01*
X5469524Y-4836190D01*
X5467619Y-4832381D01*
X5467619Y-4830476D01*
X5469524Y-4826667D01*
X5473333Y-4824762D01*
X5479048Y-4824762D01*
X5482857Y-4822857D01*
X5484762Y-4819048D01*
X5484762Y-4817143D01*
X5482857Y-4813333D01*
X5479048Y-4811429D01*
X5473333Y-4811429D01*
X5469524Y-4813333D01*
X5444762Y-4838095D02*
X5448571Y-4836190D01*
X5450476Y-4834286D01*
X5452381Y-4830476D01*
X5452381Y-4819048D01*
X5450476Y-4815238D01*
X5448571Y-4813333D01*
X5444762Y-4811429D01*
X5439048Y-4811429D01*
X5435238Y-4813333D01*
X5433333Y-4815238D01*
X5431429Y-4819048D01*
X5431429Y-4830476D01*
X5433333Y-4834286D01*
X5435238Y-4836190D01*
X5439048Y-4838095D01*
X5444762Y-4838095D01*
X5397143Y-4811429D02*
X5397143Y-4838095D01*
X5414286Y-4811429D02*
X5414286Y-4832381D01*
X5412381Y-4836190D01*
X5408571Y-4838095D01*
X5402857Y-4838095D01*
X5399048Y-4836190D01*
X5397143Y-4834286D01*
X5378095Y-4838095D02*
X5378095Y-4811429D01*
X5378095Y-4819048D02*
X5376190Y-4815238D01*
X5374286Y-4813333D01*
X5370476Y-4811429D01*
X5366667Y-4811429D01*
X5336191Y-4836190D02*
X5340000Y-4838095D01*
X5347619Y-4838095D01*
X5351429Y-4836190D01*
X5353333Y-4834286D01*
X5355238Y-4830476D01*
X5355238Y-4819048D01*
X5353333Y-4815238D01*
X5351429Y-4813333D01*
X5347619Y-4811429D01*
X5340000Y-4811429D01*
X5336191Y-4813333D01*
X5303810Y-4836190D02*
X5307619Y-4838095D01*
X5315238Y-4838095D01*
X5319048Y-4836190D01*
X5320952Y-4832381D01*
X5320952Y-4817143D01*
X5319048Y-4813333D01*
X5315238Y-4811429D01*
X5307619Y-4811429D01*
X5303810Y-4813333D01*
X5301905Y-4817143D01*
X5301905Y-4820952D01*
X5320952Y-4824762D01*
D12*
G36*
X5601200Y-4799600D02*
X5599100Y-4798600D01*
X5594400Y-4795600D01*
X5587800Y-4791200D01*
X5579900Y-4785900D01*
X5572000Y-4780600D01*
X5565400Y-4776200D01*
X5560900Y-4773300D01*
X5559000Y-4772200D01*
X5558000Y-4772600D01*
X5554200Y-4774400D01*
X5548700Y-4777300D01*
X5545600Y-4778900D01*
X5540500Y-4781100D01*
X5538100Y-4781500D01*
X5537600Y-4780800D01*
X5535800Y-4777000D01*
X5532900Y-4770400D01*
X5529100Y-4761800D01*
X5524800Y-4751600D01*
X5520200Y-4740700D01*
X5515500Y-4729500D01*
X5511100Y-4718800D01*
X5507200Y-4709300D01*
X5504100Y-4701500D01*
X5502000Y-4696100D01*
X5501200Y-4693700D01*
X5501500Y-4693300D01*
X5504000Y-4690800D01*
X5508400Y-4687500D01*
X5517800Y-4679900D01*
X5527200Y-4668200D01*
X5532900Y-4654900D01*
X5534700Y-4640200D01*
X5533100Y-4626600D01*
X5527800Y-4613500D01*
X5518600Y-4601700D01*
X5507500Y-4592900D01*
X5494600Y-4587400D01*
X5480000Y-4585600D01*
X5466100Y-4587200D01*
X5452700Y-4592400D01*
X5440900Y-4601400D01*
X5435900Y-4607200D01*
X5429000Y-4619100D01*
X5425100Y-4631900D01*
X5424700Y-4635200D01*
X5425300Y-4649200D01*
X5429400Y-4662700D01*
X5436900Y-4674700D01*
X5447200Y-4684600D01*
X5448400Y-4685500D01*
X5453200Y-4689100D01*
X5456400Y-4691500D01*
X5458900Y-4693600D01*
X5441000Y-4736600D01*
X5438200Y-4743500D01*
X5433300Y-4755200D01*
X5428900Y-4765400D01*
X5425500Y-4773500D01*
X5423100Y-4778800D01*
X5422100Y-4781000D01*
X5421900Y-4781100D01*
X5420400Y-4781400D01*
X5417100Y-4780200D01*
X5411100Y-4777300D01*
X5407100Y-4775300D01*
X5402500Y-4773100D01*
X5400500Y-4772200D01*
X5398800Y-4773200D01*
X5394300Y-4776000D01*
X5387900Y-4780300D01*
X5380200Y-4785500D01*
X5372900Y-4790500D01*
X5366200Y-4795000D01*
X5361200Y-4798100D01*
X5358900Y-4799400D01*
X5358500Y-4799400D01*
X5356400Y-4798200D01*
X5352500Y-4795000D01*
X5346600Y-4789400D01*
X5338300Y-4781300D01*
X5337100Y-4780000D01*
X5330300Y-4773100D01*
X5324700Y-4767200D01*
X5321000Y-4763100D01*
X5319700Y-4761200D01*
X5319700Y-4761200D01*
X5320900Y-4758900D01*
X5324000Y-4754000D01*
X5328500Y-4747100D01*
X5333900Y-4739100D01*
X5348200Y-4718400D01*
X5340300Y-4698900D01*
X5337900Y-4692900D01*
X5334900Y-4685600D01*
X5332600Y-4680400D01*
X5331400Y-4678200D01*
X5329300Y-4677400D01*
X5324000Y-4676100D01*
X5316200Y-4674500D01*
X5307000Y-4672800D01*
X5298200Y-4671200D01*
X5290200Y-4669700D01*
X5284400Y-4668600D01*
X5281800Y-4668000D01*
X5281200Y-4667700D01*
X5280700Y-4666400D01*
X5280400Y-4663700D01*
X5280200Y-4658900D01*
X5280100Y-4651300D01*
X5280100Y-4640200D01*
X5280100Y-4639000D01*
X5280200Y-4628500D01*
X5280300Y-4620100D01*
X5280600Y-4614700D01*
X5281000Y-4612500D01*
X5281000Y-4612500D01*
X5283500Y-4611900D01*
X5289100Y-4610700D01*
X5297100Y-4609100D01*
X5306600Y-4607300D01*
X5307200Y-4607200D01*
X5316600Y-4605400D01*
X5324600Y-4603700D01*
X5330100Y-4602400D01*
X5332500Y-4601700D01*
X5332900Y-4601000D01*
X5334900Y-4597400D01*
X5337600Y-4591500D01*
X5340700Y-4584300D01*
X5343800Y-4576900D01*
X5346500Y-4570200D01*
X5348300Y-4565200D01*
X5348800Y-4563000D01*
X5348800Y-4562900D01*
X5347300Y-4560600D01*
X5344100Y-4555800D01*
X5339500Y-4548900D01*
X5334000Y-4540900D01*
X5333500Y-4540300D01*
X5328100Y-4532300D01*
X5323700Y-4525500D01*
X5320800Y-4520700D01*
X5319700Y-4518500D01*
X5319700Y-4518400D01*
X5321500Y-4516000D01*
X5325600Y-4511500D01*
X5331400Y-4505400D01*
X5338400Y-4498300D01*
X5340600Y-4496100D01*
X5348400Y-4488500D01*
X5353800Y-4483600D01*
X5357200Y-4480900D01*
X5358800Y-4480300D01*
X5358800Y-4480400D01*
X5361200Y-4481800D01*
X5366300Y-4485100D01*
X5373100Y-4489800D01*
X5381200Y-4495300D01*
X5381800Y-4495700D01*
X5389800Y-4501100D01*
X5396500Y-4505600D01*
X5401200Y-4508700D01*
X5403300Y-4510000D01*
X5403600Y-4510000D01*
X5406900Y-4509000D01*
X5412600Y-4507000D01*
X5419600Y-4504300D01*
X5427000Y-4501400D01*
X5433700Y-4498500D01*
X5438700Y-4496200D01*
X5441100Y-4494900D01*
X5441200Y-4494700D01*
X5442000Y-4491900D01*
X5443400Y-4485900D01*
X5445100Y-4477700D01*
X5446900Y-4467900D01*
X5447200Y-4466300D01*
X5449000Y-4456800D01*
X5450600Y-4448900D01*
X5451700Y-4443500D01*
X5452200Y-4441200D01*
X5453600Y-4440900D01*
X5458300Y-4440600D01*
X5465400Y-4440400D01*
X5474000Y-4440300D01*
X5483000Y-4440400D01*
X5491900Y-4440500D01*
X5499400Y-4440800D01*
X5504800Y-4441200D01*
X5507100Y-4441600D01*
X5507100Y-4441800D01*
X5508000Y-4444700D01*
X5509300Y-4450700D01*
X5511000Y-4459000D01*
X5512800Y-4468800D01*
X5513200Y-4470500D01*
X5515000Y-4480000D01*
X5516600Y-4487800D01*
X5517700Y-4493200D01*
X5518300Y-4495300D01*
X5519200Y-4495800D01*
X5523100Y-4497500D01*
X5529500Y-4500100D01*
X5537400Y-4503300D01*
X5555700Y-4510700D01*
X5578100Y-4495300D01*
X5580200Y-4493900D01*
X5588300Y-4488400D01*
X5594900Y-4484000D01*
X5599500Y-4481000D01*
X5601400Y-4479900D01*
X5601600Y-4480000D01*
X5603800Y-4482000D01*
X5608300Y-4486200D01*
X5614300Y-4492100D01*
X5621400Y-4499100D01*
X5626600Y-4504300D01*
X5632800Y-4510600D01*
X5636700Y-4514900D01*
X5638900Y-4517600D01*
X5639600Y-4519200D01*
X5639500Y-4520300D01*
X5638000Y-4522600D01*
X5634700Y-4527600D01*
X5630100Y-4534400D01*
X5624600Y-4542300D01*
X5620100Y-4548900D01*
X5615200Y-4556500D01*
X5612100Y-4561900D01*
X5611000Y-4564500D01*
X5611300Y-4565600D01*
X5612800Y-4570000D01*
X5615500Y-4576600D01*
X5618900Y-4584500D01*
X5626700Y-4602300D01*
X5638300Y-4604500D01*
X5645400Y-4605900D01*
X5655200Y-4607800D01*
X5664700Y-4609600D01*
X5679400Y-4612500D01*
X5680000Y-4666700D01*
X5677700Y-4667600D01*
X5675500Y-4668200D01*
X5670000Y-4669400D01*
X5662200Y-4671000D01*
X5653000Y-4672700D01*
X5645200Y-4674200D01*
X5637300Y-4675700D01*
X5631600Y-4676800D01*
X5629100Y-4677300D01*
X5628500Y-4678200D01*
X5626500Y-4682000D01*
X5623700Y-4688100D01*
X5620500Y-4695400D01*
X5617400Y-4703000D01*
X5614600Y-4710000D01*
X5612700Y-4715300D01*
X5611900Y-4718100D01*
X5613000Y-4720200D01*
X5616000Y-4724800D01*
X5620400Y-4731400D01*
X5625700Y-4739300D01*
X5631100Y-4747100D01*
X5635600Y-4753800D01*
X5638800Y-4758700D01*
X5640100Y-4760900D01*
X5639500Y-4762400D01*
X5636300Y-4766200D01*
X5630400Y-4772300D01*
X5621600Y-4781000D01*
X5620100Y-4782400D01*
X5613100Y-4789200D01*
X5607200Y-4794600D01*
X5603100Y-4798300D01*
X5601200Y-4799600D01*
X5601200Y-4799600D01*
G37*
X5601200Y-4799600D02*
X5599100Y-4798600D01*
X5594400Y-4795600D01*
X5587800Y-4791200D01*
X5579900Y-4785900D01*
X5572000Y-4780600D01*
X5565400Y-4776200D01*
X5560900Y-4773300D01*
X5559000Y-4772200D01*
X5558000Y-4772600D01*
X5554200Y-4774400D01*
X5548700Y-4777300D01*
X5545600Y-4778900D01*
X5540500Y-4781100D01*
X5538100Y-4781500D01*
X5537600Y-4780800D01*
X5535800Y-4777000D01*
X5532900Y-4770400D01*
X5529100Y-4761800D01*
X5524800Y-4751600D01*
X5520200Y-4740700D01*
X5515500Y-4729500D01*
X5511100Y-4718800D01*
X5507200Y-4709300D01*
X5504100Y-4701500D01*
X5502000Y-4696100D01*
X5501200Y-4693700D01*
X5501500Y-4693300D01*
X5504000Y-4690800D01*
X5508400Y-4687500D01*
X5517800Y-4679900D01*
X5527200Y-4668200D01*
X5532900Y-4654900D01*
X5534700Y-4640200D01*
X5533100Y-4626600D01*
X5527800Y-4613500D01*
X5518600Y-4601700D01*
X5507500Y-4592900D01*
X5494600Y-4587400D01*
X5480000Y-4585600D01*
X5466100Y-4587200D01*
X5452700Y-4592400D01*
X5440900Y-4601400D01*
X5435900Y-4607200D01*
X5429000Y-4619100D01*
X5425100Y-4631900D01*
X5424700Y-4635200D01*
X5425300Y-4649200D01*
X5429400Y-4662700D01*
X5436900Y-4674700D01*
X5447200Y-4684600D01*
X5448400Y-4685500D01*
X5453200Y-4689100D01*
X5456400Y-4691500D01*
X5458900Y-4693600D01*
X5441000Y-4736600D01*
X5438200Y-4743500D01*
X5433300Y-4755200D01*
X5428900Y-4765400D01*
X5425500Y-4773500D01*
X5423100Y-4778800D01*
X5422100Y-4781000D01*
X5421900Y-4781100D01*
X5420400Y-4781400D01*
X5417100Y-4780200D01*
X5411100Y-4777300D01*
X5407100Y-4775300D01*
X5402500Y-4773100D01*
X5400500Y-4772200D01*
X5398800Y-4773200D01*
X5394300Y-4776000D01*
X5387900Y-4780300D01*
X5380200Y-4785500D01*
X5372900Y-4790500D01*
X5366200Y-4795000D01*
X5361200Y-4798100D01*
X5358900Y-4799400D01*
X5358500Y-4799400D01*
X5356400Y-4798200D01*
X5352500Y-4795000D01*
X5346600Y-4789400D01*
X5338300Y-4781300D01*
X5337100Y-4780000D01*
X5330300Y-4773100D01*
X5324700Y-4767200D01*
X5321000Y-4763100D01*
X5319700Y-4761200D01*
X5319700Y-4761200D01*
X5320900Y-4758900D01*
X5324000Y-4754000D01*
X5328500Y-4747100D01*
X5333900Y-4739100D01*
X5348200Y-4718400D01*
X5340300Y-4698900D01*
X5337900Y-4692900D01*
X5334900Y-4685600D01*
X5332600Y-4680400D01*
X5331400Y-4678200D01*
X5329300Y-4677400D01*
X5324000Y-4676100D01*
X5316200Y-4674500D01*
X5307000Y-4672800D01*
X5298200Y-4671200D01*
X5290200Y-4669700D01*
X5284400Y-4668600D01*
X5281800Y-4668000D01*
X5281200Y-4667700D01*
X5280700Y-4666400D01*
X5280400Y-4663700D01*
X5280200Y-4658900D01*
X5280100Y-4651300D01*
X5280100Y-4640200D01*
X5280100Y-4639000D01*
X5280200Y-4628500D01*
X5280300Y-4620100D01*
X5280600Y-4614700D01*
X5281000Y-4612500D01*
X5281000Y-4612500D01*
X5283500Y-4611900D01*
X5289100Y-4610700D01*
X5297100Y-4609100D01*
X5306600Y-4607300D01*
X5307200Y-4607200D01*
X5316600Y-4605400D01*
X5324600Y-4603700D01*
X5330100Y-4602400D01*
X5332500Y-4601700D01*
X5332900Y-4601000D01*
X5334900Y-4597400D01*
X5337600Y-4591500D01*
X5340700Y-4584300D01*
X5343800Y-4576900D01*
X5346500Y-4570200D01*
X5348300Y-4565200D01*
X5348800Y-4563000D01*
X5348800Y-4562900D01*
X5347300Y-4560600D01*
X5344100Y-4555800D01*
X5339500Y-4548900D01*
X5334000Y-4540900D01*
X5333500Y-4540300D01*
X5328100Y-4532300D01*
X5323700Y-4525500D01*
X5320800Y-4520700D01*
X5319700Y-4518500D01*
X5319700Y-4518400D01*
X5321500Y-4516000D01*
X5325600Y-4511500D01*
X5331400Y-4505400D01*
X5338400Y-4498300D01*
X5340600Y-4496100D01*
X5348400Y-4488500D01*
X5353800Y-4483600D01*
X5357200Y-4480900D01*
X5358800Y-4480300D01*
X5358800Y-4480400D01*
X5361200Y-4481800D01*
X5366300Y-4485100D01*
X5373100Y-4489800D01*
X5381200Y-4495300D01*
X5381800Y-4495700D01*
X5389800Y-4501100D01*
X5396500Y-4505600D01*
X5401200Y-4508700D01*
X5403300Y-4510000D01*
X5403600Y-4510000D01*
X5406900Y-4509000D01*
X5412600Y-4507000D01*
X5419600Y-4504300D01*
X5427000Y-4501400D01*
X5433700Y-4498500D01*
X5438700Y-4496200D01*
X5441100Y-4494900D01*
X5441200Y-4494700D01*
X5442000Y-4491900D01*
X5443400Y-4485900D01*
X5445100Y-4477700D01*
X5446900Y-4467900D01*
X5447200Y-4466300D01*
X5449000Y-4456800D01*
X5450600Y-4448900D01*
X5451700Y-4443500D01*
X5452200Y-4441200D01*
X5453600Y-4440900D01*
X5458300Y-4440600D01*
X5465400Y-4440400D01*
X5474000Y-4440300D01*
X5483000Y-4440400D01*
X5491900Y-4440500D01*
X5499400Y-4440800D01*
X5504800Y-4441200D01*
X5507100Y-4441600D01*
X5507100Y-4441800D01*
X5508000Y-4444700D01*
X5509300Y-4450700D01*
X5511000Y-4459000D01*
X5512800Y-4468800D01*
X5513200Y-4470500D01*
X5515000Y-4480000D01*
X5516600Y-4487800D01*
X5517700Y-4493200D01*
X5518300Y-4495300D01*
X5519200Y-4495800D01*
X5523100Y-4497500D01*
X5529500Y-4500100D01*
X5537400Y-4503300D01*
X5555700Y-4510700D01*
X5578100Y-4495300D01*
X5580200Y-4493900D01*
X5588300Y-4488400D01*
X5594900Y-4484000D01*
X5599500Y-4481000D01*
X5601400Y-4479900D01*
X5601600Y-4480000D01*
X5603800Y-4482000D01*
X5608300Y-4486200D01*
X5614300Y-4492100D01*
X5621400Y-4499100D01*
X5626600Y-4504300D01*
X5632800Y-4510600D01*
X5636700Y-4514900D01*
X5638900Y-4517600D01*
X5639600Y-4519200D01*
X5639500Y-4520300D01*
X5638000Y-4522600D01*
X5634700Y-4527600D01*
X5630100Y-4534400D01*
X5624600Y-4542300D01*
X5620100Y-4548900D01*
X5615200Y-4556500D01*
X5612100Y-4561900D01*
X5611000Y-4564500D01*
X5611300Y-4565600D01*
X5612800Y-4570000D01*
X5615500Y-4576600D01*
X5618900Y-4584500D01*
X5626700Y-4602300D01*
X5638300Y-4604500D01*
X5645400Y-4605900D01*
X5655200Y-4607800D01*
X5664700Y-4609600D01*
X5679400Y-4612500D01*
X5680000Y-4666700D01*
X5677700Y-4667600D01*
X5675500Y-4668200D01*
X5670000Y-4669400D01*
X5662200Y-4671000D01*
X5653000Y-4672700D01*
X5645200Y-4674200D01*
X5637300Y-4675700D01*
X5631600Y-4676800D01*
X5629100Y-4677300D01*
X5628500Y-4678200D01*
X5626500Y-4682000D01*
X5623700Y-4688100D01*
X5620500Y-4695400D01*
X5617400Y-4703000D01*
X5614600Y-4710000D01*
X5612700Y-4715300D01*
X5611900Y-4718100D01*
X5613000Y-4720200D01*
X5616000Y-4724800D01*
X5620400Y-4731400D01*
X5625700Y-4739300D01*
X5631100Y-4747100D01*
X5635600Y-4753800D01*
X5638800Y-4758700D01*
X5640100Y-4760900D01*
X5639500Y-4762400D01*
X5636300Y-4766200D01*
X5630400Y-4772300D01*
X5621600Y-4781000D01*
X5620100Y-4782400D01*
X5613100Y-4789200D01*
X5607200Y-4794600D01*
X5603100Y-4798300D01*
X5601200Y-4799600D01*
M02*
